<svg width="20" height="13" viewBox="0 0 20 13" fill="none" xmlns="http://www.w3.org/2000/svg">
<g clip-path="url(#clip0_1_6730)">
<path d="M0 0H20V13H0V0Z" fill="white"/>
<path fill-rule="evenodd" clip-rule="evenodd" d="M3.05347 3.93799L4.90246 1.23382L5.38904 1.5501L3.54005 4.25426L3.05347 3.93799ZM3.74684 4.38868L5.59584 1.68452L6.08242 2.00079L4.23342 4.70496L3.74684 4.38868ZM4.44022 4.83937L6.28922 2.13521L6.7758 2.45148L4.9268 5.15565L4.44022 4.83937ZM13.223 10.5482L15.072 7.84399L15.5586 8.16026L13.7096 10.8644L13.223 10.5482ZM13.9164 10.9988L15.7654 8.29468L16.2519 8.61096L14.4029 11.3151L13.9164 10.9988ZM16.9453 9.06165L15.0963 11.7658L14.6097 11.4495L16.4587 8.74537L16.9453 9.06165Z" fill="black"/>
<path fill-rule="evenodd" clip-rule="evenodd" d="M16.1046 10.7533L13.7934 9.25098L14.0637 8.85563L16.375 10.3579L16.1046 10.7533Z" fill="white"/>
<path d="M12.7729 8.30226C13.7941 6.80879 13.3802 4.79096 11.8484 3.79532C10.3166 2.79968 8.24706 3.20324 7.22589 4.69671C6.20472 6.19018 6.61863 8.20801 8.1504 9.20365C9.68216 10.1993 11.7517 9.79573 12.7729 8.30226Z" fill="#CA163A"/>
<path d="M7.22589 4.69671C6.71557 5.44306 6.92266 6.45262 7.68814 6.95018C8.45363 7.44775 9.48907 7.24584 9.99939 6.49949C10.5097 5.75314 11.5452 5.55122 12.3106 6.04879C13.0761 6.54635 13.2832 7.55591 12.7729 8.30226C11.7522 9.79496 9.68137 10.1988 8.1504 9.20365C6.61942 8.20852 6.20524 6.18941 7.22589 4.69671Z" fill="#0E4896"/>
<path fill-rule="evenodd" clip-rule="evenodd" d="M15.0963 1.2334L16.9453 3.93757L16.4587 4.25385L14.6097 1.54967L15.0963 1.2334ZM14.4029 1.68411L16.2519 4.38826L15.7654 4.70454L13.9163 2.00039L14.4029 1.68411ZM13.7095 2.1348L15.5585 4.83895L15.072 5.15523L13.223 2.45107L13.7095 2.1348ZM4.92676 7.84357L6.77576 10.5477L6.28918 10.864L4.44018 8.15985L4.92676 7.84357ZM4.23338 8.29428L6.08238 10.9984L5.5958 11.3147L3.7468 8.61056L4.23338 8.29428ZM3.54005 8.74497L5.38905 11.4491L4.90247 11.7654L3.05347 9.06125L3.54005 8.74497Z" fill="black"/>
<path d="M4.56891 10.0296L5.26229 9.57895L4.56891 10.0296ZM13.9285 3.94586L14.7384 3.41944L13.9285 3.94586ZM15.4318 2.96875L16.1252 2.51807L15.4318 2.96875Z" fill="black"/>
<path fill-rule="evenodd" clip-rule="evenodd" d="M16.2603 2.71566L15.5669 3.16635L15.2966 2.771L15.99 2.32031L16.2603 2.71566ZM14.8735 3.61704L14.0637 4.14345L13.7933 3.7481L14.6032 3.22169L14.8735 3.61704ZM5.3974 9.77655L4.70403 10.2272L4.43372 9.83186L5.12709 9.38119L5.3974 9.77655Z" fill="white"/>
</g>
<rect x="0.15" y="0.15" width="19.7" height="12.7" stroke="#C8C8C8" stroke-width="0.3"/>
<defs>
<clipPath id="clip0_1_6730">
<rect width="20" height="13" fill="white"/>
</clipPath>
</defs>
</svg>
