<svg width="28" height="28" viewBox="0 0 28 28" fill="none" xmlns="http://www.w3.org/2000/svg">
<path d="M13.9968 25.783C19.5179 25.783 23.9937 21.4199 23.9937 16.0378C23.9937 10.6556 19.5179 6.29248 13.9968 6.29248C8.47574 6.29248 4 10.6556 4 16.0378C4 21.4199 8.47574 25.783 13.9968 25.783Z" fill="url(#paint0_radial_1_3892)"/>
<path d="M13.9968 25.783C19.5179 25.783 23.9937 21.4199 23.9937 16.0378C23.9937 10.6556 19.5179 6.29248 13.9968 6.29248C8.47574 6.29248 4 10.6556 4 16.0378C4 21.4199 8.47574 25.783 13.9968 25.783Z" fill="url(#paint1_radial_1_3892)"/>
<path d="M18.5395 7.3574C17.6063 6.89244 16.5893 6.56333 15.5138 6.4043C14.7053 7.80579 14.4307 9.27575 14.4307 9.27575C14.4307 9.27575 17.8291 11.1974 20.3661 10.0135C20.7125 9.85115 21.0246 9.6391 21.3059 9.39392C20.5161 8.56783 19.5796 7.87647 18.5384 7.3574H18.5395Z" fill="#FA5A00"/>
<path d="M15.769 3.4388C13.7902 5.4201 14.4311 9.27558 14.4311 9.27558L21.5986 2.09915C21.5986 2.09915 17.7479 1.45749 15.769 3.4388Z" fill="url(#paint2_linear_1_3892)"/>
<path d="M21.5982 2.09912L14.4307 9.27555C14.4307 9.27555 18.2814 9.91721 20.2602 7.93591C22.2391 5.9546 21.5982 2.09912 21.5982 2.09912Z" fill="#008200"/>
<path d="M14.0251 19.0097C12.8018 19.0097 11.6514 18.4454 10.8693 17.4625C10.7193 17.2736 10.7502 16.9975 10.9388 16.8473C11.1285 16.696 11.4032 16.728 11.5532 16.9169C12.1687 17.69 13.0688 18.1339 14.024 18.1339C14.9792 18.1339 15.8793 17.69 16.4948 16.9169C16.6448 16.728 16.9206 16.696 17.1092 16.8473C17.2978 16.9975 17.3298 17.2736 17.1787 17.4625C16.3966 18.4454 15.2462 19.0097 14.0229 19.0097H14.0251Z" fill="#F5F5E6"/>
<path d="M9.18538 16.1417C9.06074 16.1417 8.93499 16.0953 8.83792 16.0014C8.63938 15.8092 8.63386 15.4923 8.82579 15.2935C9.35194 14.7468 9.88471 13.9439 9.83948 13.6214C9.82845 13.5463 9.82073 13.4922 9.70822 13.4955C9.69609 13.4977 9.69499 13.4977 9.68616 13.4966C9.68285 13.4966 9.67954 13.4966 9.67513 13.4966L7.89593 13.5463C7.62127 13.5518 7.38963 13.3365 7.38191 13.0593C7.37419 12.7832 7.59149 12.5523 7.86835 12.5446L9.63101 12.4949C10.0601 12.4596 10.7197 12.6893 10.83 13.4811C10.9668 14.4574 9.78433 15.7408 9.54608 15.9881C9.4479 16.0897 9.31664 16.1417 9.18648 16.1417H9.18538Z" fill="#F5F5E6"/>
<path d="M13.4866 16.165C13.1601 16.165 12.9373 16.038 12.7983 15.9165C12.3824 15.552 12.388 14.9556 12.3968 14.801L12.4255 13.1345C12.4299 12.8584 12.656 12.6353 12.934 12.643C13.2097 12.6474 13.4303 12.876 13.4248 13.1521L13.395 14.8308C13.395 14.8408 13.395 14.8496 13.3939 14.8596C13.3873 14.9799 13.4226 15.1301 13.4557 15.1633C13.4557 15.1633 13.4645 15.1633 13.4822 15.1633C13.502 15.1633 13.5329 15.1611 13.577 15.1522C14.1528 15.0318 14.8466 14.4233 15.065 14.198C15.257 14.0003 15.5735 13.9959 15.7721 14.1881C15.9695 14.3802 15.975 14.6972 15.7831 14.8949C15.6816 14.9998 14.7617 15.9275 13.7811 16.1318C13.6741 16.1539 13.5759 16.1639 13.4855 16.1639L13.4866 16.165Z" fill="#F5F5E6"/>
<path d="M19.3433 16.1901C18.6958 16.1901 18.1796 16.0212 17.8023 15.6854C17.2155 15.1619 17.21 14.4496 17.2155 14.2983C17.2155 14.2221 17.2155 13.8278 17.2299 13.491C17.2519 12.9642 17.6854 12.6593 18.1035 12.6295C18.1178 12.6295 18.1332 12.6284 18.1476 12.6284L19.9213 12.6593C20.197 12.6638 20.4176 12.8924 20.4121 13.1685C20.4066 13.4446 20.1772 13.661 19.9036 13.6599L18.2248 13.6301C18.2149 13.9526 18.2149 14.3049 18.2149 14.3082C18.2149 14.3193 18.2149 14.3303 18.2149 14.3414C18.2149 14.3502 18.2049 14.708 18.4752 14.9421C18.7609 15.1906 19.2958 15.2514 20.0227 15.1189C20.2941 15.0692 20.5544 15.2492 20.604 15.5209C20.6537 15.7925 20.4739 16.0532 20.2014 16.1029C19.8937 16.1592 19.6069 16.1868 19.3422 16.1868L19.3433 16.1901Z" fill="#F5F5E6"/>
<defs>
<radialGradient id="paint0_radial_1_3892" cx="0" cy="0" r="1" gradientUnits="userSpaceOnUse" gradientTransform="translate(10.5565 7.40912) scale(12.9523 12.9683)">
<stop stop-color="#FFB400"/>
<stop offset="1" stop-color="#FF5A00"/>
</radialGradient>
<radialGradient id="paint1_radial_1_3892" cx="0" cy="0" r="1" gradientUnits="userSpaceOnUse" gradientTransform="translate(13.9968 15.3343) scale(10.0222 10.0346)">
<stop offset="0.4" stop-color="#FF6E00" stop-opacity="0"/>
<stop offset="0.62" stop-color="#FF6D00" stop-opacity="0"/>
<stop offset="0.7" stop-color="#FF6C00" stop-opacity="0.03"/>
<stop offset="0.76" stop-color="#FF6A00" stop-opacity="0.08"/>
<stop offset="0.81" stop-color="#FF6800" stop-opacity="0.15"/>
<stop offset="0.85" stop-color="#FF6400" stop-opacity="0.23"/>
<stop offset="0.88" stop-color="#FF6000" stop-opacity="0.34"/>
<stop offset="0.91" stop-color="#FF5B00" stop-opacity="0.47"/>
<stop offset="0.94" stop-color="#FF5500" stop-opacity="0.61"/>
<stop offset="0.97" stop-color="#FF4E00" stop-opacity="0.78"/>
<stop offset="1" stop-color="#FF4600"/>
</radialGradient>
<linearGradient id="paint2_linear_1_3892" x1="15.8396" y1="3.50948" x2="17.9325" y2="5.59974" gradientUnits="userSpaceOnUse">
<stop stop-color="#96DC00"/>
<stop offset="0.09" stop-color="#88D500"/>
<stop offset="0.36" stop-color="#63C200"/>
<stop offset="0.61" stop-color="#48B500"/>
<stop offset="0.83" stop-color="#37AC00"/>
<stop offset="1" stop-color="#32AA00"/>
</linearGradient>
</defs>
</svg>
