<svg width="133" height="28" viewBox="0 0 133 28" fill="none" xmlns="http://www.w3.org/2000/svg">
<g clip-path="url(#clip0_2255_1963)">
<path d="M50.1626 9.55005C48.8588 9.55005 47.1138 9.79633 46.4498 10.0183L45.0235 14.0803L45.146 14.1786C46.0063 13.9323 46.8921 13.7357 48.4407 13.7357C50.2111 13.7357 51.7113 13.982 51.7598 15.632C50.8752 14.9672 49.7192 14.7209 48.2687 14.7209C46.0306 14.7209 43.1053 15.5337 43.1053 18.8812C43.1053 21.4666 45.0235 22.8692 47.7778 22.8692C49.4743 22.8692 50.9005 22.4506 51.7609 21.2932V22.5246H57.564V15.3603C57.564 10.8555 54.4655 9.55005 50.1626 9.55005ZM50.4571 19.5206C49.6949 19.5206 49.0805 19.3726 49.0805 18.5355C49.0805 17.9203 49.4743 17.5504 50.531 17.5504C51.2932 17.5504 51.8348 17.7966 51.8348 18.4615C51.8348 19.0281 51.441 19.5206 50.4582 19.5206H50.4571Z" fill="#282828"/>
<path d="M68.9869 9.55005C66.9706 9.55005 65.6425 10.4115 64.93 11.6186V9.89573H58.9305V22.5257H65.1759V16.6657C65.1759 15.7303 65.5697 15.188 66.4058 15.188C67.0941 15.188 67.3401 15.5823 67.3401 16.4437V22.5246H73.5855V14.9418C73.5855 11.1006 71.471 9.55005 68.9869 9.55005Z" fill="#282828"/>
<path d="M88.7457 19.0631H84.1228C83.557 19.0631 83.2382 18.9152 83.2382 18.6446C83.2382 18.2503 83.5581 18.1034 84.3203 18.1034H86.4844C90.7631 18.1034 93.6399 16.3065 93.6399 13.7211C93.6399 12.1705 92.7795 10.9634 91.2297 10.2003C90.2668 9.74527 89.0656 9.51114 89.0656 9.51114C88.9486 9.48905 88.8295 9.46917 88.7093 9.45039C88.8449 9.35762 88.9729 9.25381 89.092 9.13564C90.4344 7.79158 89.9998 5.17634 89.9998 5.17634C89.9998 5.17634 87.3878 4.74121 86.0454 6.08527C85.1387 6.99309 85.0428 8.47852 85.0759 9.34879C81.4623 9.66244 79.3776 11.2285 79.3776 13.7697C79.3776 15.1734 80.1894 16.3297 81.6156 17.094C80.0173 17.7345 79.0588 18.8909 79.0588 20.3189C79.0588 21.3283 79.6985 22.1654 80.8292 22.7066C79.2309 23.1008 78.2469 23.9866 78.2469 25.1197C78.2469 27.1386 80.485 28 85.6726 28C91.5496 28 94.8201 26.1037 94.8201 22.6823C94.8201 20.2946 92.7552 19.0631 88.7468 19.0631H88.7457ZM86.4833 14.5815C85.6969 14.5815 85.2049 14.2369 85.2049 13.6703C85.2049 13.0552 85.6726 12.7106 86.4833 12.7106C87.3691 12.7106 87.8114 13.0309 87.8114 13.6703C87.8114 14.3098 87.3691 14.5815 86.4833 14.5815ZM86.0653 24.774C84.3445 24.774 83.803 24.5774 83.803 23.9126C83.803 23.7403 83.9011 23.568 84.0986 23.3957H86.4348C87.7629 23.3957 88.1809 23.5437 88.1809 23.9866C88.1809 24.5774 87.6404 24.774 86.0664 24.774H86.0653Z" fill="#282828"/>
<path d="M102.077 16.8863H101.905L100.332 9.89429H93.5194L98.4379 22.5243L95.881 27.6211H103.282L110.266 9.89429H103.651L102.077 16.8863Z" fill="#282828"/>
<path d="M119.019 16.0493C119.019 16.9847 118.651 17.5513 117.937 17.5513C117.126 17.5513 117.003 17.1327 117.003 16.2713V9.89441H110.758V17.305C110.758 21.1461 112.774 22.869 115.331 22.869C117.372 22.869 118.552 22.0075 119.265 20.8004V22.5233H125.265V9.89331H119.019V16.0482V16.0493Z" fill="#282828"/>
<path d="M133 4.05981H126.755V22.5244H133V4.05981Z" fill="#282828"/>
<path d="M35.7561 10.7779H32.2121V5.29126H25.9667V22.5244H32.2121V16.692H35.7561V22.5244H42.0015V5.29126H35.7561V10.7779Z" fill="#282828"/>
<path d="M9.99684 23.7833C15.5179 23.7833 19.9937 19.4202 19.9937 14.038C19.9937 8.65583 15.5179 4.29272 9.99684 4.29272C4.47574 4.29272 0 8.65583 0 14.038C0 19.4202 4.47574 23.7833 9.99684 23.7833Z" fill="url(#paint0_radial_2255_1963)"/>
<path d="M9.99684 23.7833C15.5179 23.7833 19.9937 19.4202 19.9937 14.038C19.9937 8.65583 15.5179 4.29272 9.99684 4.29272C4.47574 4.29272 0 8.65583 0 14.038C0 19.4202 4.47574 23.7833 9.99684 23.7833Z" fill="url(#paint1_radial_2255_1963)"/>
<path d="M14.5395 5.35764C13.6063 4.89269 12.5893 4.56358 11.5138 4.40454C10.7053 5.80603 10.4307 7.276 10.4307 7.276C10.4307 7.276 13.8291 9.19766 16.3661 8.01374C16.7125 7.85139 17.0246 7.63934 17.3059 7.39417C16.5161 6.56807 15.5796 5.87671 14.5384 5.35764H14.5395Z" fill="#FA5A00"/>
<path d="M11.769 1.43904C9.7902 3.42035 10.4311 7.27583 10.4311 7.27583L17.5986 0.0993977C17.5986 0.0993977 13.7479 -0.542262 11.769 1.43904Z" fill="url(#paint2_linear_2255_1963)"/>
<path d="M17.5982 0.0993652L10.4307 7.27579C10.4307 7.27579 14.2814 7.91745 16.2602 5.93615C18.2391 3.95485 17.5982 0.0993652 17.5982 0.0993652Z" fill="#008200"/>
<path d="M10.0251 17.01C8.80184 17.01 7.65137 16.4456 6.86931 15.4627C6.7193 15.2739 6.75019 14.9978 6.93881 14.8476C7.12853 14.6963 7.40318 14.7283 7.5532 14.9171C8.16869 15.6902 9.06877 16.1342 10.024 16.1342C10.9792 16.1342 11.8793 15.6902 12.4948 14.9171C12.6448 14.7283 12.9206 14.6963 13.1092 14.8476C13.2978 14.9978 13.3298 15.2739 13.1787 15.4627C12.3966 16.4456 11.2462 17.01 10.0229 17.01H10.0251Z" fill="#F5F5E6"/>
<path d="M5.18538 14.1419C5.06074 14.1419 4.93499 14.0955 4.83792 14.0016C4.63938 13.8095 4.63386 13.4925 4.82579 13.2937C5.35194 12.747 5.88471 11.9441 5.83948 11.6216C5.82845 11.5465 5.82073 11.4924 5.70822 11.4957C5.69609 11.4979 5.69499 11.498 5.68616 11.4968C5.68285 11.4968 5.67954 11.4968 5.67513 11.4968L3.89593 11.5465C3.62127 11.5521 3.38963 11.3367 3.38191 11.0595C3.37419 10.7834 3.59149 10.5526 3.86835 10.5448L5.63101 10.4951C6.06009 10.4598 6.71971 10.6895 6.83001 11.4814C6.96679 12.4577 5.78433 13.741 5.54608 13.9884C5.4479 14.09 5.31664 14.1419 5.18648 14.1419H5.18538Z" fill="#F5F5E6"/>
<path d="M9.48658 14.1652C9.16008 14.1652 8.93726 14.0382 8.79828 13.9167C8.38244 13.5523 8.38795 12.9559 8.39677 12.8013L8.42545 11.1347C8.42987 10.8586 8.65599 10.6355 8.93395 10.6433C9.20971 10.6477 9.43032 10.8763 9.42481 11.1524L9.39502 12.8311C9.39502 12.841 9.39502 12.8499 9.39392 12.8598C9.3873 12.9802 9.4226 13.1304 9.45569 13.1635C9.45569 13.1635 9.46452 13.1635 9.48216 13.1635C9.50202 13.1635 9.5329 13.1613 9.57703 13.1525C10.1528 13.0321 10.8466 12.4236 11.065 12.1983C11.257 12.0006 11.5735 11.9962 11.7721 12.1883C11.9695 12.3805 11.975 12.6975 11.7831 12.8951C11.6816 13.0001 10.7617 13.9278 9.78109 14.1321C9.67409 14.1542 9.57592 14.1641 9.48547 14.1641L9.48658 14.1652Z" fill="#F5F5E6"/>
<path d="M15.3433 14.1904C14.6958 14.1904 14.1796 14.0214 13.8024 13.6857C13.2155 13.1622 13.21 12.4498 13.2155 12.2985C13.2155 12.2223 13.2155 11.828 13.2299 11.4912C13.2519 10.9644 13.6854 10.6596 14.1035 10.6298C14.1178 10.6298 14.1333 10.6287 14.1476 10.6287L15.9213 10.6596C16.1971 10.664 16.4177 10.8926 16.4121 11.1687C16.4066 11.4448 16.1772 11.6613 15.9036 11.6602L14.2248 11.6304C14.2149 11.9528 14.2149 12.3052 14.2149 12.3085C14.2149 12.3195 14.2149 12.3306 14.2149 12.3416C14.2149 12.3504 14.205 12.7083 14.4752 12.9424C14.7609 13.1909 15.2959 13.2516 16.0228 13.1191C16.2941 13.0694 16.5544 13.2494 16.6041 13.5211C16.6537 13.7928 16.4739 14.0534 16.2015 14.1031C15.8937 14.1594 15.6069 14.1871 15.3422 14.1871L15.3433 14.1904Z" fill="#F5F5E6"/>
</g>
<defs>
<radialGradient id="paint0_radial_2255_1963" cx="0" cy="0" r="1" gradientUnits="userSpaceOnUse" gradientTransform="translate(6.55646 5.40937) scale(12.9523 12.9683)">
<stop stop-color="#FFB400"/>
<stop offset="1" stop-color="#FF5A00"/>
</radialGradient>
<radialGradient id="paint1_radial_2255_1963" cx="0" cy="0" r="1" gradientUnits="userSpaceOnUse" gradientTransform="translate(9.99684 13.3345) scale(10.0222 10.0346)">
<stop offset="0.4" stop-color="#FF6E00" stop-opacity="0"/>
<stop offset="0.62" stop-color="#FF6D00" stop-opacity="0"/>
<stop offset="0.7" stop-color="#FF6C00" stop-opacity="0.03"/>
<stop offset="0.76" stop-color="#FF6A00" stop-opacity="0.08"/>
<stop offset="0.81" stop-color="#FF6800" stop-opacity="0.15"/>
<stop offset="0.85" stop-color="#FF6400" stop-opacity="0.23"/>
<stop offset="0.88" stop-color="#FF6000" stop-opacity="0.34"/>
<stop offset="0.91" stop-color="#FF5B00" stop-opacity="0.47"/>
<stop offset="0.94" stop-color="#FF5500" stop-opacity="0.61"/>
<stop offset="0.97" stop-color="#FF4E00" stop-opacity="0.78"/>
<stop offset="1" stop-color="#FF4600"/>
</radialGradient>
<linearGradient id="paint2_linear_2255_1963" x1="11.8396" y1="1.50972" x2="13.9325" y2="3.59998" gradientUnits="userSpaceOnUse">
<stop stop-color="#96DC00"/>
<stop offset="0.09" stop-color="#88D500"/>
<stop offset="0.36" stop-color="#63C200"/>
<stop offset="0.61" stop-color="#48B500"/>
<stop offset="0.83" stop-color="#37AC00"/>
<stop offset="1" stop-color="#32AA00"/>
</linearGradient>
<clipPath id="clip0_2255_1963">
<rect width="133" height="28" fill="white"/>
</clipPath>
</defs>
</svg>
