<svg width="45" height="48" viewBox="0 0 45 48" fill="none" xmlns="http://www.w3.org/2000/svg">
<g clip-path="url(#clip0_1_3838)">
<path d="M43.4805 28.7886C45.0002 31.1604 44.3068 34.3101 41.9322 35.8281L25.2572 46.4821C22.8826 48 19.729 47.3075 18.2092 44.9357L1.71001 19.2067C0.190217 16.8349 0.883621 13.6852 3.25829 12.1672L19.9332 1.51322C22.3079 -0.00471365 25.4615 0.687845 26.9812 3.05962L43.4805 28.7934V28.7886Z" fill="#FF6700"/>
<path d="M22.5176 48.0002C20.5988 48.0002 18.7181 47.0562 17.6115 45.3248L1.11229 19.5911C0.271659 18.2866 -0.00380284 16.7307 0.328651 15.2175C0.661105 13.7043 1.56348 12.4093 2.8743 11.5697L19.5492 0.915717C22.2516 -0.810936 25.8564 -0.0187624 27.5851 2.67557L44.0843 28.4093C44.9202 29.7138 45.2004 31.2697 44.868 32.7829C44.5355 34.2961 43.6331 35.5911 42.3223 36.4307L25.6474 47.0847C24.6785 47.7014 23.5957 48.0002 22.5223 48.0002H22.5176ZM22.679 1.42328C21.8669 1.42328 21.05 1.64622 20.3186 2.11584L3.64369 12.7699C2.65583 13.4007 1.97192 14.3779 1.72021 15.5211C1.46849 16.6643 1.67746 17.836 2.30913 18.8226L18.8083 44.5564C20.1144 46.5914 22.8358 47.1891 24.8732 45.8846L41.5482 35.2306C42.536 34.5997 43.2199 33.6225 43.4717 32.4793C43.7234 31.3361 43.5144 30.1645 42.8827 29.1778L26.3835 3.44403C25.5476 2.13955 24.1276 1.42328 22.679 1.42328Z" fill="#281000"/>
<path d="M6.40279 19.4961C6.64975 19.8803 6.53577 20.3879 6.15107 20.6346L1.98115 23.3004C1.59645 23.5471 1.08827 23.4333 0.841308 23.049C0.594342 22.6648 0.708326 22.1572 1.09302 21.9106L5.26294 19.2447C5.64764 18.998 6.15582 19.1119 6.40279 19.4961Z" fill="white"/>
<path d="M1.53973 24.1399C1.03155 24.1399 0.537617 23.8885 0.243158 23.4331C-0.212779 22.7169 -0.0038077 21.7682 0.708593 21.3128L4.87851 18.6469C5.59092 18.1915 6.54553 18.4002 7.00147 19.1118C7.22469 19.458 7.29593 19.866 7.21044 20.2692C7.12495 20.6677 6.88274 21.0139 6.53603 21.2321L2.36611 23.898C2.10965 24.0593 1.82469 24.1399 1.53973 24.1399ZM5.70965 19.828C5.70965 19.828 5.6669 19.8328 5.64791 19.847L1.47799 22.5129C1.44474 22.5319 1.43524 22.5603 1.43049 22.584C1.43049 22.603 1.42574 22.6362 1.44474 22.6694C1.47799 22.7216 1.54923 22.7358 1.60147 22.7026L5.77139 20.0368C5.80464 20.0178 5.81413 19.9893 5.81888 19.9656C5.81888 19.9466 5.82363 19.9134 5.80464 19.8802C5.78564 19.847 5.74764 19.828 5.70965 19.828Z" fill="#251E00"/>
<path d="M10.852 26.436C11.099 26.8203 10.985 27.3278 10.6003 27.5745L6.43037 30.2404C6.04567 30.487 5.53749 30.3732 5.29053 29.989C5.04356 29.6047 5.15754 29.0972 5.54224 28.8505L9.71216 26.1846C10.0969 25.938 10.605 26.0518 10.852 26.436Z" fill="white"/>
<path d="M5.9896 31.0799C5.48142 31.0799 4.98749 30.8285 4.69303 30.3731C4.46981 30.0268 4.39857 29.6141 4.48406 29.2157C4.5743 28.8172 4.81176 28.4709 5.15847 28.2527L9.32839 25.5868C10.0455 25.1315 10.9954 25.3402 11.4513 26.0517C11.9073 26.7632 11.6983 27.7167 10.9859 28.1721L6.81599 30.838C6.55952 31.004 6.27456 31.0799 5.9896 31.0799ZM10.1548 26.768C10.1548 26.768 10.112 26.7727 10.093 26.787L5.92311 29.4528C5.88986 29.4718 5.88037 29.505 5.87562 29.524C5.87562 29.543 5.87087 29.5762 5.88986 29.6094C5.92311 29.6616 5.99435 29.6758 6.04659 29.6426L10.2165 26.9767C10.2688 26.9435 10.283 26.8723 10.2498 26.8202C10.2308 26.787 10.1928 26.768 10.1548 26.768Z" fill="#251E00"/>
<path d="M15.2991 33.376C15.5461 33.7602 15.4321 34.2678 15.0474 34.5144L10.8775 37.1803C10.4928 37.427 9.98464 37.3131 9.73767 36.9289C9.4907 36.5447 9.60469 36.0371 9.98939 35.7905L14.1593 33.1246C14.544 32.8779 15.0522 32.9918 15.2991 33.376Z" fill="white"/>
<path d="M10.44 38.0197C9.93182 38.0197 9.43789 37.7683 9.14343 37.3129C8.68749 36.5966 8.89646 35.6479 9.60886 35.1925L13.7788 32.5267C14.1255 32.3085 14.5339 32.2326 14.9376 32.318C15.3366 32.4081 15.6833 32.6453 15.9017 32.9915C16.125 33.3378 16.1962 33.7458 16.1107 34.149C16.0252 34.5474 15.783 34.8937 15.4363 35.1119L11.2664 37.7778C11.0099 37.9391 10.725 38.0197 10.44 38.0197ZM14.6052 33.7078C14.6052 33.7078 14.5672 33.7078 14.5434 33.7268L10.3735 36.3927C10.3213 36.4259 10.307 36.497 10.3403 36.5492C10.3735 36.6014 10.4447 36.6156 10.497 36.5824L14.6669 33.9165C14.7002 33.8976 14.7097 33.8691 14.7144 33.8454C14.7144 33.8264 14.7192 33.7932 14.7002 33.76C14.6812 33.7268 14.6527 33.7173 14.6289 33.7126C14.6242 33.7126 14.6147 33.7126 14.6052 33.7126V33.7078Z" fill="#251E00"/>
<path d="M19.7484 40.3106C19.9954 40.6948 19.8814 41.2023 19.4967 41.449L15.3268 44.1149C14.9421 44.3616 14.4339 44.2477 14.187 43.8635C13.94 43.4793 14.054 42.9717 14.4387 42.725L18.6086 40.0592C18.9933 39.8125 19.5015 39.9263 19.7484 40.3106Z" fill="white"/>
<path d="M14.8854 44.9547C14.3772 44.9547 13.8833 44.7033 13.5888 44.2479C13.1329 43.5364 13.3418 42.5829 14.0542 42.1276L18.2242 39.4617C18.5709 39.2387 18.9841 39.1676 19.383 39.2577C19.7819 39.3478 20.1286 39.585 20.3471 39.9313C20.803 40.6428 20.5941 41.5963 19.8817 42.0517L15.7118 44.7175C15.4553 44.8788 15.1703 44.9595 14.8854 44.9595V44.9547ZM19.0505 40.6428C19.0505 40.6428 19.0125 40.6428 18.9888 40.6618L14.8189 43.3277C14.7666 43.3609 14.7524 43.432 14.7856 43.4842C14.8189 43.5364 14.8901 43.5506 14.9424 43.5174L19.1123 40.8515C19.1645 40.8183 19.1788 40.7472 19.1455 40.695C19.1265 40.6618 19.0933 40.6523 19.0743 40.6476C19.0695 40.6476 19.06 40.6476 19.0505 40.6476V40.6428Z" fill="#251E00"/>
<path d="M21.104 8.94732L10.7423 15.5684L13.9749 20.615L24.3366 13.994L21.104 8.94732Z" fill="white"/>
<path d="M13.9782 21.3268C13.7455 21.3268 13.5128 21.2129 13.3798 20.9995L10.1455 15.9523C10.0458 15.7958 10.0078 15.6013 10.0505 15.4163C10.0885 15.2313 10.2025 15.07 10.364 14.9704L20.7271 8.34842C21.0595 8.13496 21.4965 8.23458 21.7102 8.56662L24.9445 13.6138C25.0442 13.7703 25.0822 13.9648 25.0395 14.1498C25.0015 14.3348 24.8875 14.4961 24.726 14.5957L14.3629 21.2177C14.2442 21.2936 14.1112 21.3315 13.9782 21.3315V21.3268ZM11.7271 15.7816L14.192 19.6286L23.3534 13.775L20.8885 9.92802L11.7271 15.7816Z" fill="#251E00"/>
</g>
<defs>
<clipPath id="clip0_1_3838">
<rect width="45" height="48" fill="white"/>
</clipPath>
</defs>
</svg>
