<svg width="262" height="107" viewBox="0 0 262 107" fill="none" xmlns="http://www.w3.org/2000/svg">
<path d="M6.64665 19.113L12.8581 4.79245H13.8699L20.0252 19.113L23.7071 2.47913H25.6464L21.1494 21.7568H19.2944L13.3078 7.73918L7.3493 21.7568H5.49429L0.997314 2.47913H2.93664L6.64665 19.113Z" fill="#111111"/>
<path d="M3.46629 1.81757L6.84928 16.9859L12.4253 4.13104H14.3049L19.8232 16.97L23.1774 1.81757H26.4792L21.6736 22.4183H18.8589L13.3096 9.42391L7.78606 22.4183H4.97099L0.165405 1.81757H3.46629ZM20.2635 21.0951H20.6259L24.8141 3.14078H24.2372L20.2635 21.0951ZM6.5075 21.0951H6.91334L13.3066 6.05427L19.7304 21.0951H20.1586L13.436 5.45426H13.2911L6.5075 21.0951ZM6.01869 21.0951H6.41249L2.40784 3.14078H1.83046L6.01869 21.0951Z" fill="#111111"/>
<path d="M30.2835 1.10315V10.5768C31.0424 8.70406 33.0379 7.21693 36.1296 7.21693C39.8396 7.21693 42.2286 9.25486 42.2286 13.2756V21.7578H40.5423V13.6612C40.5423 9.97088 38.7435 8.70406 35.7923 8.70406C32.3915 8.70406 30.2835 11.1826 30.2835 14.0192V21.7578H28.5972V1.10315H30.2835Z" fill="#111111"/>
<path d="M29.6234 14.0192C29.6235 12.837 29.9516 11.7098 30.5576 10.7594L29.6234 10.5768V1.76481H29.2576V21.0962H29.6234V14.0192ZM41.5682 13.2758C41.5682 11.3983 41.014 10.0753 40.1151 9.21781C39.2107 8.35518 37.8686 7.87867 36.1298 7.87865C34.4986 7.87865 33.2369 8.31984 32.3341 8.9921C33.2814 8.39477 34.4492 8.04235 35.7923 8.04233C37.3462 8.04233 38.7343 8.37372 39.7286 9.3186C40.7293 10.2697 41.2028 11.719 41.2028 13.6613V21.0962H41.5682V13.2758ZM42.8889 22.4194H39.8821V13.6613C39.8821 11.9132 39.4562 10.8836 38.8197 10.2787C38.1768 9.66765 37.1895 9.36555 35.7923 9.36555C32.7693 9.36561 30.9442 11.5349 30.9441 14.0192V22.4194H27.9369V0.441589H30.9441V8.44292C32.1208 7.29512 33.884 6.55544 36.1298 6.55544C38.1008 6.55545 39.808 7.09796 41.0256 8.25942C42.2487 9.42612 42.8889 11.1325 42.8889 13.2758V22.4194Z" fill="#111111"/>
<path d="M53.5267 7.21576C58.5015 7.21576 60.8062 10.5205 60.4127 15.1471H47.5682C47.7369 18.204 49.8167 20.6275 53.7797 20.6275C56.1406 20.6275 57.7989 19.8839 58.9793 18.9201L59.963 20.1043C58.5015 21.316 56.4498 22.1422 53.6392 22.1422C48.299 22.1422 45.7413 18.8925 45.7413 14.7341C45.7413 10.5756 48.5519 7.21576 53.5267 7.21576ZM53.5267 8.75797C50.154 8.75797 48.046 10.7133 47.6525 13.66H58.5577C58.4734 10.0248 56.2249 8.75797 53.5267 8.75797Z" fill="#111111"/>
<path d="M53.5267 6.55426C56.1659 6.55426 58.1927 7.43694 59.4935 9.02711C60.7832 10.6039 61.2773 12.7762 61.0709 15.2034L61.0193 15.809H48.3058C48.4906 16.9015 48.9647 17.8474 49.7065 18.5545C50.5993 19.4056 51.9369 19.966 53.7799 19.966C55.9881 19.966 57.4992 19.2753 58.5623 18.4072L59.0687 17.9937L60.8942 20.1909L60.3843 20.6143C58.7926 21.934 56.5876 22.8037 53.6394 22.8037C50.8327 22.8037 48.6738 21.9465 47.2169 20.4614C45.7637 18.9801 45.0811 16.9478 45.0811 14.7343C45.0811 12.5055 45.8359 10.4523 47.296 8.95345C48.7601 7.45039 50.8847 6.55428 53.5267 6.55426ZM53.5267 8.09629C54.9677 8.09629 56.3785 8.43369 57.4488 9.34068C58.536 10.262 59.1725 11.686 59.2179 13.6446L59.2338 14.3217H46.8979L46.998 13.5722C47.2132 11.961 47.9052 10.579 49.0427 9.60171C50.1799 8.62482 51.7109 8.09631 53.5267 8.09629ZM53.5267 9.41951C51.9701 9.41952 50.7609 9.86891 49.9025 10.6062C49.2117 11.1997 48.7146 12.0087 48.4542 12.9985H57.8508C57.7025 11.7149 57.2242 10.8837 56.5959 10.3512C55.8464 9.71606 54.7838 9.41951 53.5267 9.41951ZM46.4018 14.7343C46.4018 16.6792 46.9982 18.3509 48.1588 19.534C49.3158 20.7133 51.1059 21.4805 53.6394 21.4805C55.9764 21.4805 57.7213 20.8825 59.0129 19.9945L58.8723 19.8256C57.6245 20.6832 55.9716 21.2892 53.7799 21.2893C51.6601 21.2893 49.976 20.6378 48.7959 19.5129C47.6189 18.3909 47.0011 16.8524 46.909 15.1836L46.8704 14.4858H59.7906C59.8511 12.5617 59.3859 10.983 58.472 9.86575C57.4751 8.64707 55.8621 7.87748 53.5267 7.87748C51.1941 7.8775 49.4262 8.66141 48.2414 9.87781C47.0524 11.0984 46.4018 12.8048 46.4018 14.7343Z" fill="#111111"/>
<path d="M65.587 7.62885V10.6582C66.2616 8.64782 68.3133 7.21576 71.405 7.21576C75.115 7.21576 77.504 9.25369 77.504 13.2745V21.7566H75.8177V13.66C75.8177 9.96971 73.9627 8.70289 71.1239 8.70289C67.6107 8.70289 65.6714 11.1815 65.6714 14.018V21.7566H63.985V7.62885H65.587Z" fill="#111111"/>
<path d="M65.0113 14.018C65.0113 12.8705 65.2987 11.7604 65.8659 10.8121L64.9266 10.6583V8.29055H64.6454V21.095H65.0113V14.018ZM76.8438 13.2746C76.8438 11.3972 76.2895 10.0741 75.3907 9.21663C74.4863 8.35399 73.1438 7.87748 71.4049 7.87748C69.5878 7.8775 68.224 8.40022 67.3225 9.20457C68.3176 8.47028 69.602 8.04159 71.1242 8.04159C72.6276 8.04162 73.9985 8.37557 74.99 9.31785C75.9878 10.2663 76.4779 11.7124 76.4779 13.6601V21.095H76.8438V13.2746ZM78.1645 22.4182H75.1572V13.6601C75.1572 11.9176 74.72 10.8851 74.0807 10.2775C73.4351 9.66402 72.4592 9.36483 71.1242 9.3648C69.5314 9.3648 68.3469 9.92182 67.5589 10.7526C66.7647 11.5901 66.332 12.7494 66.332 14.018V22.4182H63.3247V6.96733H66.2473V8.39823C67.424 7.243 69.2057 6.55429 71.4049 6.55426C73.3761 6.55426 75.0836 7.09673 76.3012 8.25825C77.5243 9.42494 78.1645 11.1313 78.1645 13.2746V22.4182Z" fill="#111111"/>
<path d="M90.7125 1.10315V21.7578H89.0261V1.10315H90.7125Z" fill="#111111"/>
<path d="M91.3731 0.441589V22.4194H88.3658V0.441589H91.3731ZM89.6865 21.0962H90.0524V1.76481H89.6865V21.0962Z" fill="#111111"/>
<path d="M97.738 1.10315V5.39932H96.0516V1.10315H97.738ZM97.738 7.63002V21.7578H96.0516V7.63002H97.738Z" fill="#111111"/>
<path d="M98.3985 6.96851V22.4194H95.3912V6.96851H98.3985ZM96.7119 21.0962H97.0778V8.29173H96.7119V21.0962ZM98.3985 0.441589V6.06095H95.3912V0.441589H98.3985ZM96.7119 4.73774H97.0778V1.76481H96.7119V4.73774Z" fill="#111111"/>
<path d="M103.752 7.62907V5.94915C103.752 2.64441 105.691 0.66156 108.951 0.66156C110.076 0.66156 111.284 0.881876 112.099 1.23989L112.324 2.7821C111.312 2.39655 110.132 2.1487 109.148 2.1487C106.59 2.1487 105.438 3.36044 105.438 6.03177V7.62907H111.453V9.1162H105.438V21.7569H103.752V9.1162H100.857V7.62907H103.752Z" fill="#111111"/>
<path d="M103.092 5.94931C103.092 4.16808 103.616 2.66344 104.658 1.60233C105.701 0.539835 107.186 2.93356e-05 108.951 0C110.142 0 111.446 0.230624 112.364 0.634041L112.7 0.781353L113.14 3.8008L112.089 3.40065C111.137 3.03785 110.037 2.81055 109.148 2.81054C107.962 2.81054 107.244 3.09183 106.811 3.54581C106.372 4.00621 106.098 4.77495 106.098 6.03201V6.96756H112.113V9.77767H106.098V22.4184H103.092V9.77767H100.197V6.96756H103.092V5.94931ZM104.412 8.29078H101.517V8.45446H104.412V21.0952H104.778V8.45446H110.793V8.29078H104.778V6.03201C104.778 4.61784 105.081 3.44466 105.857 2.63136C106.639 1.81163 107.777 1.48733 109.148 1.48733C109.892 1.48733 110.722 1.61454 111.517 1.82761L111.502 1.71734C110.802 1.47723 109.856 1.32322 108.951 1.32322C107.456 1.32325 106.341 1.77508 105.6 2.53013C104.857 3.28663 104.412 4.4259 104.412 5.94931V8.29078Z" fill="#111111"/>
<path d="M120.248 7.21576C125.223 7.21576 127.528 10.5205 127.134 15.1471H114.29C114.458 18.204 116.538 20.6275 120.501 20.6275C122.862 20.6275 124.52 19.8839 125.701 18.9201L126.685 20.1043C125.223 21.316 123.171 22.1422 120.361 22.1422C115.021 22.1422 112.463 18.8925 112.463 14.7341C112.463 10.5756 115.273 7.21576 120.248 7.21576ZM120.248 8.75797C116.876 8.75797 114.768 10.7133 114.374 13.66H125.279C125.195 10.0248 122.946 8.75797 120.248 8.75797Z" fill="#111111"/>
<path d="M120.248 6.55426C122.887 6.55426 124.914 7.43694 126.215 9.02711C127.505 10.6039 127.999 12.7762 127.792 15.2034L127.741 15.809H115.027C115.212 16.9015 115.686 17.8474 116.428 18.5545C117.321 19.4056 118.658 19.966 120.501 19.966C122.71 19.966 124.221 19.2753 125.284 18.4072L125.79 17.9937L127.616 20.1909L127.106 20.6143C125.514 21.934 123.309 22.8037 120.361 22.8037C117.554 22.8037 115.395 21.9465 113.938 20.4614C112.485 18.9801 111.803 16.9478 111.803 14.7343C111.803 12.5055 112.558 10.4523 114.018 8.95345C115.482 7.45039 117.606 6.55428 120.248 6.55426ZM120.248 8.09629C121.689 8.09629 123.1 8.43368 124.17 9.34068C125.258 10.262 125.894 11.686 125.939 13.6446L125.955 14.3217H113.619L113.72 13.5722C113.935 11.961 114.627 10.579 115.764 9.60171C116.901 8.62482 118.432 8.09631 120.248 8.09629ZM120.248 9.41951C118.692 9.41952 117.482 9.86881 116.624 10.6062C115.933 11.1997 115.436 12.0087 115.176 12.9985H124.572C124.424 11.7149 123.946 10.8837 123.317 10.3512C122.568 9.71605 121.505 9.41951 120.248 9.41951ZM113.123 14.7343C113.123 16.6792 113.72 18.3509 114.88 19.534C116.037 20.7133 117.827 21.4805 120.361 21.4805C122.698 21.4805 124.443 20.8825 125.734 19.9945L125.594 19.8256C124.346 20.6832 122.693 21.2892 120.501 21.2893C118.382 21.2893 116.698 20.6378 115.518 19.5129C114.34 18.3909 113.723 16.8524 113.631 15.1836L113.592 14.4858H126.512C126.573 12.5617 126.107 10.983 125.194 9.86575C124.197 8.64707 122.584 7.87748 120.248 7.87748C117.916 7.87749 116.148 8.66141 114.963 9.87781C113.774 11.0984 113.123 12.8048 113.123 14.7343Z" fill="#111111"/>
<path d="M138.519 20.5172C137.592 20.1592 136.833 19.4983 136.833 18.4518C136.833 17.1849 137.957 16.2761 139.166 15.6703C137.395 14.8992 136.608 13.5222 136.608 11.98C136.608 9.14339 139.222 7.21562 143.213 7.21562C144.674 7.21562 145.883 7.4084 146.867 7.76641C147.71 6.0865 148.778 5.28786 151.054 5.34294L151.757 6.71991C149.593 6.66483 148.722 7.16055 148.019 8.34475C149.256 9.14339 149.874 10.3276 149.874 11.7046C149.874 14.3208 147.85 16.3588 143.129 16.3588C142.173 16.3588 141.358 16.2761 140.627 16.1384C139.222 16.7168 138.519 17.2951 138.519 18.1488C138.519 19.2779 139.7 19.333 141.302 19.333H145.799C149.228 19.333 151.335 20.4346 151.335 23.1335C151.335 26.0251 149.171 28.008 142.847 28.008C136.524 28.008 135.484 26.273 135.484 24.3452C135.484 22.5552 136.72 21.4536 138.519 20.5172ZM142.819 26.5759C147.654 26.5759 149.649 25.5019 149.649 23.2436C149.649 21.2057 147.71 20.8202 145.18 20.8202H140.402C138.463 21.8116 137.282 22.7204 137.282 24.0698C137.282 25.9425 139.025 26.5759 142.819 26.5759ZM143.157 14.9267C146.642 14.9267 148.047 13.5773 148.047 11.7321C148.047 9.88696 146.529 8.64768 143.213 8.64768C140.262 8.64768 138.435 9.99712 138.435 11.9524C138.435 13.6048 139.756 14.9267 143.157 14.9267Z" fill="#111111"/>
<path d="M148.989 23.2437C148.989 22.8433 148.895 22.5734 148.762 22.3797C148.627 22.1829 148.416 22.0132 148.099 21.874C147.435 21.5829 146.44 21.4816 145.18 21.4816H140.564C139.676 21.9431 139.015 22.3602 138.574 22.7867C138.128 23.2178 137.943 23.6206 137.943 24.0699C137.943 24.4314 138.025 24.684 138.157 24.8753C138.292 25.0702 138.516 25.2561 138.889 25.4172C139.665 25.7518 140.93 25.9143 142.819 25.9143C145.214 25.9143 146.792 25.6438 147.753 25.1644C148.22 24.9312 148.517 24.6596 148.703 24.3645C148.887 24.0705 148.989 23.7077 148.989 23.2437ZM147.387 11.7319C147.387 11.0192 147.108 10.4572 146.502 10.0451C145.862 9.60934 144.805 9.30944 143.213 9.30944C141.829 9.30946 140.78 9.62698 140.097 10.108C139.432 10.5764 139.095 11.2079 139.095 11.9524C139.095 12.5793 139.334 13.115 139.903 13.5194C140.502 13.9457 141.527 14.265 143.157 14.265C144.83 14.265 145.894 13.9386 146.523 13.4845C147.12 13.0539 147.387 12.465 147.387 11.7319ZM150.65 6.00398C149.802 6.02543 149.215 6.19422 148.768 6.46831C148.353 6.72225 148.008 7.0984 147.684 7.64551C148.037 7.14541 148.468 6.74062 149.064 6.46616C149.528 6.25284 150.063 6.13258 150.69 6.08237L150.65 6.00398ZM150.31 23.2437C150.31 23.9086 150.161 24.5267 149.821 25.0692C149.481 25.6106 148.978 26.0312 148.342 26.3489C147.095 26.971 145.259 27.2375 142.819 27.2375C140.915 27.2375 139.411 27.083 138.367 26.6327C137.831 26.4014 137.382 26.078 137.071 25.6274C136.758 25.1733 136.622 24.6446 136.622 24.0699C136.622 23.1697 137.027 22.4432 137.656 21.8348C137.695 21.7972 137.735 21.7593 137.776 21.7223C136.702 22.4565 136.144 23.2618 136.144 24.3451C136.144 24.7706 136.202 25.1385 136.347 25.4577C136.487 25.7678 136.726 26.0696 137.15 26.3424C138.035 26.9102 139.714 27.3465 142.848 27.3465C145.963 27.3464 147.933 26.8538 149.106 26.0986C150.225 25.378 150.675 24.3831 150.675 23.1334C150.675 21.9889 150.246 21.2586 149.497 20.7782C148.698 20.2657 147.464 19.9947 145.799 19.9947H141.302C140.529 19.9947 139.724 19.9866 139.113 19.7957C138.792 19.6954 138.465 19.5278 138.221 19.2323C137.968 18.9269 137.859 18.553 137.859 18.149C137.859 17.8007 137.94 17.4867 138.089 17.2044C138.068 17.225 138.047 17.245 138.028 17.266C137.675 17.6424 137.493 18.0321 137.493 18.4518C137.493 19.0986 137.942 19.5855 138.757 19.8999L139.894 20.3388C139.963 20.3029 140.032 20.2665 140.102 20.2307L140.244 20.1584H145.18C146.45 20.1584 147.69 20.2503 148.628 20.6614C149.111 20.8733 149.543 21.182 149.851 21.6306C150.161 22.0823 150.31 22.6252 150.31 23.2437ZM149.214 11.7043C149.214 10.5524 148.71 9.57754 147.661 8.90067L147.158 8.57589L146.641 8.38809C145.748 8.06289 144.619 7.87724 143.213 7.87724C141.315 7.87727 139.812 8.33654 138.801 9.06995C137.807 9.79179 137.268 10.7899 137.268 11.98C137.268 13.2546 137.896 14.3959 139.429 15.0636L140.435 15.5017L140.557 15.4521L140.749 15.4883C141.438 15.6181 142.212 15.6972 143.128 15.6972C145.406 15.6972 146.931 15.204 147.872 14.4864C148.79 13.786 149.214 12.8247 149.214 11.7043ZM148.707 11.7319C148.707 12.8438 148.272 13.8526 147.295 14.5579C146.35 15.2399 144.969 15.5882 143.157 15.5883C141.386 15.5883 140.05 15.2466 139.138 14.5989C138.197 13.9293 137.774 12.9778 137.774 11.9524C137.774 10.7417 138.351 9.7207 139.337 9.02558C140.306 8.34317 141.646 7.98625 143.213 7.98622C144.937 7.98622 146.297 8.30556 147.245 8.95063C148.227 9.6194 148.707 10.5996 148.707 11.7319ZM150.535 11.7043C150.535 13.2002 149.947 14.5666 148.672 15.5392C147.42 16.4946 145.572 17.0204 143.128 17.0204C142.219 17.0204 141.425 16.9473 140.705 16.8236C140.121 17.0751 139.734 17.3055 139.493 17.5274C139.253 17.7486 139.18 17.9386 139.18 18.149C139.18 18.3093 139.218 18.3656 139.237 18.388C139.264 18.4204 139.332 18.4782 139.506 18.5328C139.887 18.6516 140.473 18.6715 141.302 18.6715H145.799C147.563 18.6715 149.097 18.9509 150.209 19.6639C151.371 20.409 151.996 21.5792 151.996 23.1334C151.996 24.7754 151.364 26.2179 149.82 27.2116C148.33 28.1707 146.056 28.6696 142.848 28.6697C139.658 28.6697 137.655 28.2379 136.438 27.4563C135.812 27.0545 135.396 26.5611 135.144 26.0039C134.896 25.4555 134.823 24.8835 134.823 24.3451C134.823 22.5783 135.835 21.4099 137.195 20.5206C136.609 20.0492 136.172 19.3754 136.172 18.4518C136.172 17.6046 136.553 16.9063 137.065 16.3601C137.299 16.11 137.567 15.8865 137.85 15.6856C136.562 14.7664 135.948 13.4373 135.948 11.98C135.948 10.3335 136.716 8.94946 138.026 7.99828C139.321 7.05872 141.119 6.55406 143.213 6.55403C144.482 6.55403 145.591 6.69421 146.549 6.96882C146.948 6.29479 147.431 5.73676 148.078 5.33978C148.88 4.84837 149.856 4.65226 151.07 4.68162L151.464 4.6911L152.851 7.40946L151.74 7.38147C150.698 7.35494 150.057 7.46545 149.615 7.66877C149.35 7.7909 149.131 7.95854 148.927 8.19685C149.99 9.09837 150.535 10.3237 150.535 11.7043Z" fill="#111111"/>
<path d="M156.113 1.10315V5.39932H154.427V1.10315H156.113ZM156.113 7.63002V21.7578H154.427V7.63002H156.113Z" fill="#111111"/>
<path d="M156.774 6.96851V22.4194H153.767V6.96851H156.774ZM155.088 21.0962H155.453V8.29173H155.088V21.0962ZM156.774 0.441589V6.06095H153.767V0.441589H156.774ZM155.088 4.73774H155.453V1.76481H155.088V4.73774Z" fill="#111111"/>
<path d="M166.512 19.5538L171.937 7.62921H173.82L167.131 21.757H165.838L158.952 7.62921H160.891L166.512 19.5538Z" fill="#111111"/>
<path d="M161.31 6.96771L166.502 17.9816L171.513 6.96771H174.865L167.549 22.4186H165.426L157.895 6.96771H161.31ZM166.537 21.0954H166.714L172.776 8.29093H172.362L166.537 21.0954ZM166.251 21.0954H166.509L160.473 8.29093H160.01L166.251 21.0954Z" fill="#111111"/>
<path d="M182.866 7.21576C187.841 7.21576 190.146 10.5205 189.752 15.1471H176.908C177.076 18.204 179.156 20.6275 183.119 20.6275C185.48 20.6275 187.138 19.8839 188.319 18.9201L189.303 20.1043C187.841 21.316 185.789 22.1422 182.979 22.1422C177.638 22.1422 175.081 18.8925 175.081 14.7341C175.081 10.5756 177.891 7.21576 182.866 7.21576ZM182.866 8.75797C179.493 8.75797 177.386 10.7133 176.992 13.66H187.897C187.813 10.0248 185.564 8.75797 182.866 8.75797Z" fill="#111111"/>
<path d="M182.866 6.55426C185.505 6.55426 187.532 7.43694 188.833 9.02711C190.123 10.6039 190.617 12.7762 190.41 15.2034L190.359 15.809H177.645C177.83 16.9015 178.304 17.8474 179.046 18.5545C179.939 19.4056 181.276 19.966 183.119 19.966C185.327 19.966 186.839 19.2753 187.902 18.4072L188.408 17.9937L190.234 20.1909L189.724 20.6143C188.132 21.934 185.927 22.8037 182.979 22.8037C180.172 22.8037 178.013 21.9465 176.556 20.4614C175.103 18.9801 174.42 16.9478 174.42 14.7343C174.42 12.5055 175.175 10.4523 176.635 8.95345C178.099 7.45039 180.224 6.55428 182.866 6.55426ZM182.866 8.09629C184.307 8.09629 185.718 8.43368 186.788 9.34068C187.875 10.262 188.512 11.686 188.557 13.6446L188.573 14.3217H176.237L176.337 13.5722C176.553 11.961 177.245 10.579 178.382 9.60171C179.519 8.62482 181.05 8.09631 182.866 8.09629ZM182.866 9.41951C181.309 9.41952 180.1 9.86881 179.241 10.6062C178.551 11.1997 178.054 12.0087 177.794 12.9985H187.19C187.042 11.7149 186.564 10.8837 185.935 10.3512C185.186 9.71605 184.123 9.41951 182.866 9.41951ZM175.741 14.7343C175.741 16.6792 176.338 18.3509 177.498 19.534C178.655 20.7133 180.445 21.4805 182.979 21.4805C185.316 21.4805 187.061 20.8825 188.352 19.9945L188.212 19.8256C186.964 20.6832 185.311 21.2892 183.119 21.2893C180.999 21.2893 179.315 20.6378 178.135 19.5129C176.958 18.3909 176.34 16.8524 176.248 15.1836L176.21 14.4858H189.13C189.19 12.5617 188.725 10.983 187.811 9.86575C186.814 8.64706 185.201 7.87748 182.866 7.87748C180.533 7.87749 178.766 8.66141 177.581 9.87781C176.392 11.0984 175.741 12.8048 175.741 14.7343Z" fill="#111111"/>
<path d="M197.849 20.7377C200.238 20.7377 201.811 19.9941 201.811 17.846C201.811 15.6979 199.647 15.2848 197.399 14.8718C194.982 14.4311 192.424 13.9079 192.424 11.1815C192.424 8.45504 194.701 7.21576 197.905 7.21576C200.266 7.21576 202.121 7.87671 203.273 8.62028L202.683 9.88709C201.559 9.19861 200.238 8.59274 197.905 8.59274C195.347 8.59274 194.167 9.44646 194.167 11.0438C194.167 12.8338 196.106 13.1918 198.214 13.5774C200.772 14.0456 203.582 14.5964 203.582 17.7359C203.582 20.3246 201.868 22.1422 197.961 22.1422C195.797 22.1422 193.352 21.5363 191.75 20.4072L192.424 19.0578C193.886 19.9666 195.797 20.7377 197.849 20.7377Z" fill="#111111"/>
<path d="M202.922 17.7361C202.922 17.0541 202.771 16.5535 202.539 16.1713C202.306 15.7869 201.966 15.481 201.528 15.2288C200.623 14.7074 199.4 14.4671 198.095 14.2282C197.071 14.0408 195.959 13.8421 195.113 13.4335C194.678 13.2233 194.27 12.9386 193.971 12.5337C193.666 12.119 193.506 11.6204 193.506 11.0438C193.506 10.0556 193.887 9.22225 194.709 8.67003C195.483 8.14969 196.574 7.93134 197.905 7.93132C199.961 7.93132 201.301 8.38153 202.387 8.95647L202.418 8.88927C201.362 8.33716 199.82 7.87748 197.905 7.87748C196.372 7.8775 195.15 8.1764 194.33 8.72602C193.547 9.25149 193.085 10.0349 193.085 11.1816C193.085 11.7544 193.217 12.1722 193.419 12.4924C193.624 12.8164 193.927 13.0821 194.327 13.306C195.155 13.7695 196.285 13.9963 197.517 14.2209H197.518C198.614 14.4222 199.824 14.6426 200.75 15.1199C201.227 15.3655 201.666 15.696 201.983 16.1588C202.305 16.6283 202.472 17.1908 202.472 17.846C202.472 19.1089 201.993 20.0566 201.088 20.6509C200.235 21.2108 199.089 21.3995 197.849 21.3995C195.925 21.3995 194.138 20.7724 192.699 19.9837L192.606 20.1694C194.062 21.0094 196.104 21.4805 197.961 21.4805C199.822 21.4805 201.054 21.0467 201.81 20.405C202.55 19.7768 202.922 18.8765 202.922 17.7361ZM194.827 11.0438C194.827 11.3622 194.91 11.5797 195.034 11.7476C195.165 11.9254 195.374 12.09 195.687 12.2413C196.337 12.5555 197.249 12.7284 198.332 12.9265C199.585 13.1558 201.047 13.4255 202.186 14.0813C202.771 14.4179 203.294 14.8678 203.668 15.4843C204.043 16.1029 204.243 16.8486 204.243 17.7361C204.242 19.1843 203.757 20.4869 202.663 21.4146C201.586 22.3288 200.006 22.8037 197.961 22.8037C195.703 22.8037 193.113 22.1774 191.37 20.9486L190.904 20.6208L192.158 18.1135L192.772 18.4955C194.166 19.3623 195.957 20.0763 197.849 20.0763C198.998 20.0763 199.833 19.8928 200.364 19.5439C200.843 19.2294 201.151 18.731 201.151 17.846C201.151 17.4274 201.048 17.1328 200.894 16.9078C200.735 16.6761 200.492 16.4744 200.147 16.2966C199.429 15.9271 198.433 15.7344 197.28 15.5226C196.095 15.3066 194.738 15.0514 193.683 14.4617C193.142 14.159 192.654 13.7546 192.304 13.2001C191.951 12.6417 191.764 11.9718 191.764 11.1816C191.764 9.60194 192.439 8.40256 193.596 7.62679C194.716 6.87521 196.233 6.55428 197.905 6.55426C200.385 6.55426 202.366 7.24767 203.631 8.06399L204.115 8.3767L202.969 10.8379L202.338 10.4515C201.296 9.81299 200.092 9.25454 197.905 9.25454C196.678 9.25456 195.899 9.46302 195.444 9.76883C195.037 10.0428 194.827 10.4349 194.827 11.0438Z" fill="#111111"/>
<path d="M219.18 19.5263L224.604 7.62921H226.431L217.156 27.4577H215.329L218.28 21.2888L211.591 7.62921H213.502L219.18 19.5263Z" fill="#111111"/>
<path d="M213.92 6.96771L219.167 17.9639L224.181 6.96771H227.472L217.578 28.1194H214.282L217.548 21.2918L210.533 6.96771H213.92ZM219.016 21.2858L216.38 26.7961H216.738L225.394 8.29093H225.03L219.195 21.0889L213.088 8.29093H212.652L219.016 21.2858Z" fill="#111111"/>
<path d="M236.188 7.21576C241.613 7.21576 244.564 10.5205 244.564 14.5688C244.564 18.6171 241.472 22.1422 235.992 22.1422C230.511 22.1422 227.7 19.0578 227.7 14.7891C227.7 10.5205 230.623 7.21576 236.188 7.21576ZM236.104 20.6551C239.983 20.6551 242.737 18.3417 242.737 14.6514C242.737 10.9611 239.842 8.70289 236.188 8.70289C232.535 8.70289 229.527 11.0162 229.527 14.7891C229.527 18.5621 232.394 20.6551 236.104 20.6551Z" fill="#111111"/>
<path d="M243.904 14.5689C243.904 12.7102 243.229 11.0525 241.958 9.8567C240.687 8.66027 238.765 7.87751 236.189 7.87748C233.537 7.87748 231.591 8.66255 230.313 9.88126C229.035 11.0989 228.361 12.8095 228.361 14.789C228.361 16.7744 229.011 18.4258 230.242 19.584C231.478 20.7455 233.373 21.4805 235.992 21.4805C238.587 21.4805 240.56 20.6488 241.879 19.394C243.199 18.1379 243.904 16.421 243.904 14.5689ZM242.077 14.6516C242.077 12.9935 241.433 11.6902 240.4 10.7931C239.359 9.88792 237.883 9.36484 236.189 9.3648C234.497 9.3648 232.992 9.89985 231.92 10.831C230.858 11.7542 230.187 13.0929 230.187 14.789C230.187 16.4926 230.827 17.7694 231.849 18.6308C232.885 19.5035 234.367 19.9936 236.104 19.9936C237.915 19.9936 239.408 19.4543 240.438 18.5416C241.46 17.6363 242.077 16.3207 242.077 14.6516ZM243.397 14.6516C243.397 16.6727 242.638 18.3588 241.313 19.5327C239.996 20.6993 238.172 21.3168 236.104 21.3168C234.131 21.3168 232.325 20.7602 231 19.6434C229.661 18.5151 228.867 16.8584 228.867 14.789C228.867 12.7125 229.701 11.0079 231.055 9.83129C232.4 8.66266 234.226 8.04159 236.189 8.04159C238.148 8.04162 239.946 8.64739 241.265 9.79382C242.594 10.9484 243.397 12.6195 243.397 14.6516ZM245.225 14.5689C245.225 16.7652 244.384 18.8348 242.788 20.3533C241.19 21.8732 238.877 22.8037 235.992 22.8037C233.13 22.8037 230.879 21.9967 229.339 20.5488C227.795 19.0977 227.04 17.0722 227.04 14.789C227.04 12.5002 227.827 10.4243 229.402 8.92244C230.977 7.42166 233.275 6.55426 236.189 6.55426C239.036 6.5543 241.303 7.42391 242.863 8.89186C244.423 10.3605 245.225 12.3794 245.225 14.5689Z" fill="#111111"/>
<path d="M249.623 7.62921V15.7258C249.623 19.4161 251.197 20.6554 254.288 20.6554C257.549 20.6554 259.488 18.2044 259.488 15.3678V7.62921H261.174V21.757H259.572V18.7276C258.898 20.8207 256.79 22.1425 253.839 22.1425C249.988 22.1425 247.936 20.1322 247.936 16.1114V7.62921H249.623Z" fill="#111111"/>
<path d="M248.963 8.29099H248.597V16.1114L248.603 16.4616C248.659 18.1784 249.134 19.382 249.913 20.1694C250.743 21.0081 252.022 21.4809 253.839 21.4809C255.55 21.4809 256.884 21.0127 257.785 20.2447C256.858 20.915 255.68 21.3173 254.289 21.3173C252.675 21.3173 251.295 20.9976 250.333 20.0457C249.369 19.0932 248.963 17.6454 248.963 15.7259V8.29099ZM250.283 15.7259C250.283 17.4967 250.664 18.5141 251.26 19.1037C251.857 19.694 252.81 19.994 254.289 19.994C257.136 19.994 258.828 17.8892 258.828 15.368V6.96777H261.835V22.4187H258.912V21.0084C257.725 22.1656 255.94 22.8042 253.839 22.8042C251.805 22.8042 250.134 22.2722 248.975 21.1006C247.889 20.0032 247.346 18.4384 247.283 16.5034L247.276 16.1114V6.96777H250.283V15.7259ZM260.149 15.368C260.149 16.5271 259.852 17.6378 259.295 18.5795L260.233 18.7277V21.0954H260.514V8.29099H260.149V15.368Z" fill="#111111"/>
<path d="M56.3868 51.7798C58.8286 51.7798 60.4564 52.5636 61.3265 53.6272V51.9478C61.3265 48.645 59.7828 47.2454 56.6955 47.2454C55.0116 47.2454 53.6363 47.4694 52.1769 47.9452L52.4014 46.4057C53.4399 45.9859 55.0396 45.706 56.9201 45.706C61.5229 45.706 63.0104 48.421 63.0104 51.4999V60.4848H61.3265V58.7494C60.4003 60.0089 58.7724 60.8766 56.0781 60.8766C52.8505 60.8766 50.4368 59.4211 50.4368 56.3702C50.4368 53.0954 53.1031 51.7798 56.3868 51.7798ZM56.6394 59.3652C59.5583 59.3652 61.3545 58.1896 61.3545 56.3982V56.0623C61.3545 54.6628 59.6706 53.1514 56.6394 53.1514C54.0012 53.1514 52.2611 54.159 52.2611 56.3142C52.2611 58.5814 54.1976 59.3652 56.6394 59.3652Z" fill="#111111"/>
<path d="M51.6006 56.3142C51.6006 55.0289 52.1349 54.0281 53.0894 53.3775C54.0072 52.7519 55.2527 52.4897 56.6396 52.4897C57.3087 52.4898 57.9256 52.5597 58.4853 52.6857C57.8896 52.5316 57.1928 52.4415 56.3868 52.4415C54.8175 52.4415 53.4793 52.7583 52.5533 53.393C51.6629 54.0033 51.0972 54.943 51.0972 56.3702C51.0972 57.6971 51.6101 58.6216 52.4394 59.2355C53.2956 59.8692 54.5512 60.215 56.0782 60.215C57.2406 60.215 58.1642 60.045 58.8984 59.7614C58.2232 59.9371 57.4633 60.0267 56.6396 60.0267C55.3681 60.0267 54.132 59.8261 53.1926 59.2557C52.2044 58.6556 51.6006 57.6775 51.6006 56.3142ZM52.9213 56.3142C52.9213 57.2181 53.2865 57.7656 53.877 58.1242C54.5164 58.5124 55.4695 58.7035 56.6396 58.7035C58.0223 58.7035 59.0642 58.4234 59.7376 57.995C60.3887 57.5807 60.6942 57.0361 60.6942 56.3982V56.0623C60.6941 55.6385 60.4338 55.0932 59.7587 54.6266C59.0903 54.1648 58.0495 53.813 56.6396 53.813C55.3883 53.813 54.4441 54.0545 53.8323 54.4716C53.2573 54.8635 52.9213 55.4445 52.9213 56.3142ZM61.9869 55.4782L61.9237 55.4006C61.9827 55.6161 62.0148 55.8373 62.0149 56.0623V56.3982C62.0149 56.5444 62.0055 56.6873 61.9869 56.8264V59.8234H62.3502V51.4999C62.3502 50.056 62.0005 48.7893 61.1989 47.8891C60.4098 47.003 59.089 46.3677 56.9199 46.3677C55.3046 46.3677 53.9387 46.5815 52.9978 46.8919L52.9785 47.0246C54.1541 46.7266 55.3316 46.5839 56.6955 46.5839C58.3248 46.5839 59.6863 46.9521 60.6327 47.8873C61.5805 48.8242 61.9869 50.2059 61.9869 51.9479V55.4782ZM63.6709 61.1466H60.6662V60.3102C59.571 61.0855 58.0671 61.5382 56.0782 61.5382C54.3775 61.5382 52.8124 61.1566 51.6548 60.2998C50.4704 59.4232 49.7765 58.0942 49.7765 56.3702C49.7765 54.5228 50.5438 53.1672 51.8074 52.3011C53.0355 51.4593 54.6726 51.1183 56.3868 51.1183C58.1752 51.1183 59.6106 51.5181 60.6662 52.1844V51.9479C60.6662 50.3872 60.3006 49.418 59.7049 48.8294C59.1076 48.2391 58.1535 47.9072 56.6955 47.9072C55.0791 47.9072 53.7729 48.1207 52.3813 48.5744L51.3698 48.9043L51.8027 45.9344L52.1543 45.7922C53.2966 45.3304 54.9873 45.0445 56.9199 45.0445C59.3538 45.0445 61.0788 45.767 62.1842 47.0082C63.2768 48.2351 63.6709 49.8652 63.6709 51.4999V61.1466Z" fill="#111111"/>
<path d="M75.4718 46.1265V41.984L77.1558 41.4242V46.1265H83.1058V47.638H77.1558V55.7551C77.1558 58.2742 77.8013 59.5338 80.187 59.5338C81.7867 59.5338 82.6849 59.03 83.6672 58.4142L84.3688 59.6737C83.3585 60.4855 81.8148 61.0453 80.1028 61.0453C76.1735 61.0453 75.4718 58.5821 75.4718 56.035V47.638H72.132V46.1265H75.4718Z" fill="#111111"/>
<path d="M76.4957 55.7555V46.9767H82.4457V46.7885H76.4957V42.3407L76.1324 42.4613V46.7885H72.7924V46.9767H76.1324V56.0355C76.1324 57.2747 76.3091 58.3511 76.8512 59.1109C77.3597 59.8235 78.2851 60.3841 80.1026 60.3842C81.4326 60.3842 82.6307 60.0148 83.502 59.4758L83.4229 59.3336C82.5738 59.8168 81.6277 60.196 80.1869 60.196C78.8824 60.1959 77.8763 59.8468 77.2437 58.98C76.6511 58.168 76.4957 57.035 76.4957 55.7555ZM77.8164 55.7555C77.8164 56.9951 77.9833 57.7516 78.3099 58.1991C78.5965 58.5917 79.106 58.8727 80.1869 58.8727C81.6032 58.8727 82.3741 58.4448 83.3171 57.8536L83.9057 57.4849L85.2178 59.8402L84.7818 60.1904C83.6418 61.1062 81.948 61.7074 80.1026 61.7074C77.9912 61.7074 76.6014 61.0359 75.7768 59.8802C74.9859 58.7717 74.8117 57.3433 74.8117 56.0355V48.2999H71.4717V45.4653H74.8117V41.5068L77.8164 40.5079V45.4653H83.7664V48.2999H77.8164V55.7555Z" fill="#111111"/>
<path d="M92.1444 51.7798C94.5861 51.7798 96.214 52.5636 97.084 53.6272V51.9478C97.084 48.645 95.5404 47.2454 92.4531 47.2454C90.7691 47.2454 89.3939 47.4694 87.9344 47.9452L88.159 46.4057C89.1974 45.9859 90.7972 45.706 92.6776 45.706C97.2805 45.706 98.768 48.421 98.768 51.4999V60.4848H97.084V58.7494C96.1578 60.0089 94.53 60.8766 91.8356 60.8766C88.608 60.8766 86.1943 59.4211 86.1943 56.3702C86.1943 53.0954 88.8606 51.7798 92.1444 51.7798ZM92.397 59.3652C95.3159 59.3652 97.1121 58.1896 97.1121 56.3982V56.0623C97.1121 54.6628 95.4281 53.1514 92.397 53.1514C89.7587 53.1514 88.0186 54.159 88.0186 56.3142C88.0186 58.5814 89.9552 59.3652 92.397 59.3652Z" fill="#111111"/>
<path d="M87.3582 56.3142C87.3582 55.0289 87.8924 54.0281 88.847 53.3775C89.7648 52.7519 91.0103 52.4897 92.3972 52.4897C93.0662 52.4898 93.6832 52.5597 94.2428 52.6857C93.6472 52.5316 92.9504 52.4415 92.1444 52.4415C90.575 52.4415 89.2369 52.7583 88.3109 53.393C87.4205 54.0033 86.8548 54.943 86.8548 56.3702C86.8548 57.6971 87.3676 58.6216 88.1969 59.2355C89.0531 59.8692 90.3088 60.215 91.8357 60.215C92.9981 60.215 93.9218 60.045 94.656 59.7614C93.9808 59.9371 93.2209 60.0267 92.3972 60.0267C91.1257 60.0267 89.8895 59.8261 88.9502 59.2557C87.9619 58.6556 87.3582 57.6775 87.3582 56.3142ZM88.6789 56.3142C88.6789 57.2181 89.0441 57.7656 89.6346 58.1242C90.2739 58.5124 91.2271 58.7035 92.3972 58.7035C93.7798 58.7035 94.8218 58.4234 95.4952 57.995C96.1463 57.5807 96.4517 57.0361 96.4517 56.3982V56.0623C96.4517 55.6385 96.1914 55.0932 95.5162 54.6266C94.8479 54.1648 93.807 53.813 92.3972 53.813C91.1459 53.813 90.2017 54.0545 89.5899 54.4716C89.0149 54.8635 88.6789 55.4445 88.6789 56.3142ZM97.7445 55.4782L97.6813 55.4006C97.7402 55.6161 97.7724 55.8373 97.7724 56.0623V56.3982C97.7724 56.5444 97.7631 56.6873 97.7445 56.8264V59.8234H98.1078V51.4999C98.1077 50.0559 97.7578 48.7893 96.956 47.8891C96.1669 47.0031 94.8465 46.3677 92.6775 46.3677C91.0622 46.3677 89.6962 46.5815 88.7554 46.8919L88.7361 47.0246C89.9117 46.7266 91.0892 46.5839 92.4531 46.5839C94.0824 46.5839 95.4439 46.9521 96.3903 47.8873C97.3381 48.8242 97.7445 50.2059 97.7445 51.9479V55.4782ZM99.4285 61.1466H96.4238V60.3102C95.3286 61.0855 93.8246 61.5382 91.8357 61.5382C90.1351 61.5382 88.5699 61.1566 87.4124 60.2998C86.228 59.4232 85.5341 58.0942 85.5341 56.3702C85.5341 54.5228 86.3014 53.1672 87.565 52.3011C88.793 51.4593 90.4301 51.1183 92.1444 51.1183C93.9327 51.1183 95.3682 51.5181 96.4238 52.1844V51.9479C96.4238 50.3872 96.0581 49.418 95.4625 48.8294C94.8652 48.2391 93.9111 47.9072 92.4531 47.9072C90.8367 47.9072 89.5305 48.1207 88.1389 48.5744L87.1273 48.9043L87.5602 45.9344L87.9119 45.7922C89.0542 45.3304 90.7449 45.0445 92.6775 45.0445C95.1113 45.0445 96.8364 45.767 97.9418 47.0082C99.0344 48.2351 99.4284 49.8652 99.4285 51.4999V61.1466Z" fill="#111111"/>
<path d="M105.278 46.1258V49.2048C105.952 47.1615 108.001 45.706 111.088 45.706C114.793 45.706 117.179 47.7773 117.179 51.8638V60.4848H115.495V52.2557C115.495 48.505 113.642 47.2175 110.808 47.2175C107.299 47.2175 105.363 49.7366 105.363 52.6196V60.4848H103.679V46.1258H105.278Z" fill="#111111"/>
<path d="M104.702 52.6198C104.702 51.4521 104.991 50.3218 105.562 49.357L104.618 49.205V46.7877H104.339V59.8234H104.702V52.6198ZM116.518 51.8639C116.518 49.9501 115.963 48.6008 115.063 47.7275C114.16 46.8506 112.821 46.3677 111.088 46.3677C109.214 46.3677 107.82 46.9356 106.921 47.8042C107.926 47.0181 109.24 46.5559 110.807 46.5559C112.312 46.5559 113.683 46.8964 114.673 47.8542C115.667 48.8159 116.155 50.2809 116.155 52.2559V59.8234H116.518V51.8639ZM117.839 61.1466H114.834V52.2559C114.834 50.4802 114.396 49.4259 113.755 48.8061C113.111 48.1825 112.138 47.8792 110.807 47.8792C109.221 47.8792 108.04 48.4437 107.252 49.289C106.457 50.1418 106.023 51.3246 106.023 52.6198V61.1466H103.018V45.4645H105.939V46.9139C107.113 45.7442 108.89 45.0445 111.088 45.0445C113.06 45.0445 114.766 45.5971 115.982 46.7773C117.201 47.9613 117.839 49.6911 117.839 51.8639V61.1466Z" fill="#111111"/>
<path d="M123.438 59.226C122.512 58.8622 121.754 58.1904 121.754 57.1268C121.754 55.8392 122.877 54.9156 124.084 54.2998C122.315 53.5161 121.53 52.1166 121.53 50.5491C121.53 47.6661 124.14 45.7068 128.125 45.7068C129.585 45.7068 130.791 45.9027 131.774 46.2666C132.616 44.5592 133.682 43.7475 135.956 43.8035L136.657 45.203C134.496 45.147 133.626 45.6508 132.924 46.8544C134.159 47.6661 134.777 48.8697 134.777 50.2692C134.777 52.9283 132.756 54.9995 128.041 54.9995C127.087 54.9995 126.273 54.9156 125.543 54.7756C124.14 55.3634 123.438 55.9512 123.438 56.8189C123.438 57.9665 124.617 58.0225 126.217 58.0225H130.707C134.131 58.0225 136.236 59.1421 136.236 61.8851C136.236 64.8241 134.075 66.8393 127.76 66.8393C121.445 66.8393 120.407 65.076 120.407 63.1167C120.407 61.2973 121.642 60.1777 123.438 59.226ZM127.732 65.3839C132.56 65.3839 134.552 64.2922 134.552 61.9971C134.552 59.9258 132.616 59.5339 130.09 59.5339H125.318C123.382 60.5416 122.203 61.4652 122.203 62.8368C122.203 64.7401 123.943 65.3839 127.732 65.3839ZM128.069 53.544C131.549 53.544 132.952 52.1725 132.952 50.2972C132.952 48.4219 131.437 47.1623 128.125 47.1623C125.178 47.1623 123.354 48.5338 123.354 50.5211C123.354 52.2005 124.673 53.544 128.069 53.544Z" fill="#111111"/>
<path d="M133.892 61.9972C133.892 61.5862 133.797 61.3081 133.663 61.1086C133.527 60.9067 133.315 60.734 133 60.593C132.338 60.2981 131.348 60.1955 130.09 60.1955H125.483C124.597 60.6639 123.938 61.0875 123.498 61.5208C123.052 61.9591 122.863 62.3722 122.863 62.8367C122.863 63.2082 122.947 63.4688 123.081 63.6659C123.216 63.8658 123.44 64.0549 123.812 64.2181C124.585 64.5573 125.846 64.7225 127.732 64.7225C130.123 64.7225 131.697 64.4477 132.654 63.9614C133.119 63.725 133.417 63.4488 133.604 63.1469C133.79 62.8453 133.892 62.4726 133.892 61.9972ZM132.292 50.2972C132.292 49.5643 132.01 48.9896 131.405 48.5708C130.767 48.1286 129.713 47.8239 128.125 47.8239C126.745 47.8239 125.7 48.1462 125.019 48.6345C124.355 49.1103 124.014 49.7556 124.014 50.5212C124.014 51.1664 124.256 51.7148 124.825 52.1261C125.422 52.5586 126.443 52.8824 128.069 52.8824C129.738 52.8824 130.798 52.551 131.425 52.0903C132.021 51.6523 132.292 51.0502 132.292 50.2972ZM135.548 44.465C134.705 44.4873 134.122 44.658 133.677 44.9354C133.247 45.2038 132.89 45.6072 132.555 46.2017C132.912 45.6732 133.349 45.2448 133.964 44.9569C134.43 44.7387 134.968 44.6161 135.598 44.5654L135.548 44.465ZM135.213 61.9972C135.213 62.6693 135.066 63.2939 134.727 63.8425C134.389 64.3907 133.887 64.8178 133.251 65.1412C132.005 65.7743 130.169 66.0457 127.732 66.0457C125.83 66.0457 124.326 65.8886 123.282 65.4302C122.745 65.1945 122.297 64.8654 121.988 64.4093C121.677 63.9504 121.543 63.4169 121.543 62.8367C121.543 61.9298 121.944 61.1954 122.572 60.5771C122.637 60.5135 122.704 60.4507 122.774 60.3889C121.655 61.148 121.067 61.9814 121.067 63.1167C121.067 63.5512 121.125 63.9281 121.271 64.2556C121.413 64.5739 121.653 64.8818 122.076 65.1588C122.958 65.735 124.632 66.1779 127.76 66.1779C130.87 66.1779 132.835 65.6774 134.005 64.9107C135.123 64.1784 135.576 63.1635 135.576 61.8852C135.576 60.7135 135.143 59.9677 134.395 59.4796C133.599 58.9595 132.368 58.684 130.707 58.684H126.217C125.445 58.684 124.639 58.6762 124.028 58.4816C123.706 58.379 123.379 58.2083 123.135 57.9091C122.885 57.6011 122.778 57.2249 122.778 56.8189C122.778 56.4579 122.863 56.1328 123.02 55.8407C122.997 55.864 122.973 55.8865 122.952 55.9101C122.599 56.293 122.415 56.693 122.415 57.1269C122.415 57.7976 122.871 58.2929 123.679 58.6104L124.811 59.0544C124.878 59.0186 124.946 58.9824 125.014 58.9468L125.157 58.8722H130.09C131.358 58.8722 132.598 58.9656 133.537 59.3844C134.021 59.6003 134.451 59.9141 134.757 60.3682C135.065 60.8247 135.213 61.3726 135.213 61.9972ZM134.116 50.2692C134.116 49.0895 133.608 48.0954 132.562 47.4078L132.062 47.0787L131.545 46.887C130.654 46.557 129.528 46.3684 128.125 46.3684C126.233 46.3684 124.733 46.8343 123.725 47.5792C122.732 48.3127 122.19 49.3309 122.19 50.5492C122.19 51.8557 122.823 53.0174 124.351 53.6948L125.352 54.1385L125.472 54.0885L125.667 54.126C126.354 54.2577 127.127 54.3379 128.041 54.3379C130.313 54.3379 131.834 53.8374 132.773 53.1086C133.69 52.3962 134.116 51.4154 134.116 50.2692ZM133.613 50.2972C133.613 51.4195 133.182 52.4411 132.206 53.1577C131.262 53.8515 129.88 54.2057 128.069 54.2057C126.299 54.2056 124.962 53.8576 124.051 53.1986C123.111 52.5182 122.694 51.5553 122.694 50.5212C122.694 49.2995 123.265 48.2653 124.25 47.5586C125.218 46.8643 126.558 46.5007 128.125 46.5007C129.849 46.5007 131.209 46.826 132.156 47.4823C133.138 48.1621 133.613 49.1548 133.613 50.2972ZM135.437 50.2692C135.437 51.782 134.854 53.1664 133.582 54.1544C132.331 55.126 130.484 55.6611 128.041 55.6611C127.133 55.6611 126.341 55.5872 125.622 55.4617C125.042 55.7166 124.656 55.95 124.415 56.1754C124.175 56.4006 124.099 56.5973 124.099 56.8189C124.099 56.9865 124.139 57.0478 124.159 57.0731C124.187 57.1071 124.255 57.1654 124.427 57.2204C124.805 57.3406 125.388 57.3608 126.217 57.3608H130.707C132.47 57.3608 134.004 57.6454 135.116 58.3709C136.277 59.1283 136.897 60.314 136.897 61.8852C136.897 63.5458 136.269 65.0081 134.728 66.0181C133.239 66.9938 130.965 67.5011 127.76 67.5011C124.574 67.5011 122.572 67.0624 121.355 66.2671C120.73 65.8584 120.315 65.3577 120.065 64.7944C119.818 64.2402 119.747 63.6618 119.747 63.1167C119.747 61.3236 120.76 60.1367 122.127 59.231C121.534 58.752 121.094 58.066 121.094 57.1269C121.094 56.2734 121.47 55.5676 121.981 55.0129C122.219 54.7539 122.492 54.5227 122.781 54.3155C121.484 53.3809 120.869 52.0278 120.869 50.5492C120.869 48.8844 121.632 47.4814 122.941 46.5145C124.234 45.559 126.032 45.0452 128.125 45.0452C129.391 45.0452 130.497 45.1874 131.453 45.4656C131.851 44.7821 132.332 44.2154 132.979 43.812C133.73 43.3431 134.636 43.1384 135.747 43.1392L135.972 43.1422L136.368 43.1517L136.545 43.5066L137.742 45.8929L136.64 45.8645C135.601 45.8376 134.963 45.9499 134.523 46.1557C134.254 46.2817 134.032 46.4563 133.825 46.7061C134.893 47.6227 135.437 48.8686 135.437 50.2692Z" fill="#111111"/>
<path d="M145.555 45.706C150.523 45.706 152.824 49.0648 152.431 53.7671H139.605C139.773 56.874 141.85 59.3372 145.808 59.3372C148.165 59.3372 149.821 58.5814 151 57.6018L151.982 58.8054C150.523 60.0369 148.474 60.8766 145.667 60.8766C140.335 60.8766 137.781 57.5738 137.781 53.3473C137.781 49.1208 140.587 45.706 145.555 45.706ZM145.555 47.2734C142.187 47.2734 140.082 49.2607 139.689 52.2557H150.579C150.495 48.561 148.249 47.2734 145.555 47.2734Z" fill="#111111"/>
<path d="M145.555 45.0445C148.195 45.0445 150.22 45.9435 151.518 47.5583C152.803 49.1576 153.295 51.3602 153.089 53.8224L153.039 54.4289H140.341C140.524 55.5496 141 56.519 141.745 57.242C142.637 58.1074 143.971 58.6755 145.808 58.6755C148.009 58.6755 149.517 57.975 150.578 57.0926L151.09 56.6674L152.905 58.8913L152.408 59.3117C150.818 60.653 148.615 61.5381 145.667 61.5382C142.861 61.5382 140.703 60.6655 139.249 59.1567C137.8 57.653 137.12 55.5917 137.12 53.3473C137.12 51.0879 137.872 49.0055 139.328 47.4837C140.79 45.9569 142.913 45.0445 145.555 45.0445ZM145.555 46.6119C146.996 46.6119 148.407 46.9556 149.476 47.8779C150.561 48.813 151.194 50.2561 151.239 52.2408L151.255 52.9175H138.936L139.034 52.1697C139.248 50.5373 139.937 49.1357 141.072 48.1432C142.208 47.1503 143.738 46.612 145.555 46.6119ZM145.555 47.9352C144.003 47.9352 142.798 48.3905 141.94 49.1399C141.246 49.7471 140.747 50.5771 140.487 51.5942H149.873C149.726 50.2771 149.246 49.4248 148.615 48.8806C147.867 48.2354 146.807 47.9352 145.555 47.9352ZM138.441 53.3473C138.441 55.3295 139.038 57.0331 140.199 58.2375C141.355 59.4366 143.141 60.215 145.667 60.215C148.006 60.2149 149.75 59.6041 151.04 58.6971L150.892 58.5144C149.646 59.384 147.996 59.9987 145.808 59.9987C143.687 59.9987 142.004 59.3356 140.826 58.1927C139.652 57.0536 139.037 55.4936 138.946 53.8031L138.908 53.1057H151.808C151.871 51.1412 151.405 49.5287 150.489 48.3883C149.492 47.1481 147.883 46.3677 145.555 46.3677C143.229 46.3678 141.465 47.1629 140.281 48.3999C139.093 49.6422 138.441 51.3804 138.441 53.3473Z" fill="#111111"/>
<path d="M157.596 46.1276V49.3465C158.269 47.0793 160.318 45.7358 163.406 45.7358C164.051 45.7358 164.669 45.7918 165.23 46.0157L165.426 47.7231C164.753 47.4152 163.939 47.3032 163.013 47.3032C159.757 47.3032 157.68 49.8783 157.68 52.7613V60.4866H155.996V46.1276H157.596Z" fill="#111111"/>
<path d="M157.02 52.7599C157.02 51.5885 157.332 50.454 157.907 49.4867L156.936 49.345V46.7878H156.657V59.8235H157.02V52.7599ZM163.406 46.3958C161.188 46.3958 159.657 47.1224 158.81 48.3242C159.84 47.2949 161.276 46.64 163.013 46.64C163.581 46.64 164.134 46.6801 164.654 46.7865L164.622 46.5138C164.264 46.4262 163.861 46.3958 163.406 46.3958ZM158.34 61.1467H155.336V45.4645H158.256V46.9247C159.435 45.7187 161.217 45.0726 163.406 45.0726C164.081 45.0726 164.797 45.1294 165.474 45.3995L165.841 45.5455L166.217 48.8096L165.152 48.3233C164.602 48.0716 163.896 47.9632 163.013 47.9632C160.17 47.9632 158.34 50.1922 158.34 52.7599V61.1467Z" fill="#111111"/>
<path d="M170.196 39.4925V43.8589H168.512V39.4925H170.196ZM170.196 46.1261V60.4851H168.512V46.1261H170.196Z" fill="#111111"/>
<path d="M170.856 45.4647V61.1469H167.851V45.4647H170.856ZM169.172 59.8236H169.535V46.7879H169.172V59.8236ZM170.856 38.8309V44.5205H167.851V38.8309H170.856ZM169.172 43.1973H169.535V40.1541H169.172V43.1973Z" fill="#111111"/>
<path d="M177.015 46.1258V49.2048C177.688 47.1615 179.737 45.706 182.825 45.706C186.529 45.706 188.915 47.7773 188.915 51.8638V60.4848H187.231V52.2557C187.231 48.505 185.379 47.2175 182.544 47.2175C179.036 47.2175 177.099 49.7366 177.099 52.6196V60.4848H175.415V46.1258H177.015Z" fill="#111111"/>
<path d="M176.439 52.6198C176.439 51.4521 176.728 50.3218 177.299 49.357L176.354 49.205V46.7877H176.075V59.8234H176.439V52.6198ZM188.254 51.8639C188.254 49.9501 187.699 48.6008 186.8 47.7275C185.896 46.8506 184.558 46.3677 182.825 46.3677C180.95 46.3677 179.557 46.9356 178.658 47.8042C179.663 47.0181 180.977 46.5559 182.544 46.5559C184.048 46.5559 185.419 46.8964 186.409 47.8542C187.403 48.8159 187.891 50.2809 187.891 52.2559V59.8234H188.254V51.8639ZM189.575 61.1466H186.571V52.2559C186.571 50.4802 186.133 49.4259 185.492 48.8061C184.847 48.1825 183.874 47.8792 182.544 47.8792C180.957 47.8792 179.776 48.4437 178.989 49.289C178.194 50.1418 177.759 51.3246 177.759 52.6198V61.1466H174.755V45.4645H177.675V46.9139C178.849 45.7442 180.627 45.0445 182.825 45.0445C184.796 45.0445 186.503 45.5971 187.718 46.7773C188.938 47.9613 189.575 49.6911 189.575 51.8639V61.1466Z" fill="#111111"/>
<path d="M200.195 45.706C205.163 45.706 207.464 49.0648 207.071 53.7671H194.245C194.413 56.874 196.49 59.3372 200.447 59.3372C202.805 59.3372 204.461 58.5814 205.64 57.6018L206.622 58.8054C205.163 60.0369 203.114 60.8766 200.307 60.8766C194.975 60.8766 192.421 57.5738 192.421 53.3473C192.421 49.1208 195.227 45.706 200.195 45.706ZM200.195 47.2734C196.827 47.2734 194.722 49.2607 194.329 52.2557H205.219C205.135 48.561 202.889 47.2734 200.195 47.2734Z" fill="#111111"/>
<path d="M200.195 45.0445C202.835 45.0445 204.86 45.9435 206.158 47.5583C207.443 49.1576 207.935 51.3602 207.729 53.8224L207.679 54.4289H194.981C195.164 55.5496 195.64 56.519 196.385 57.242C197.277 58.1074 198.611 58.6755 200.448 58.6755C202.649 58.6755 204.157 57.975 205.218 57.0926L205.73 56.6674L207.545 58.8913L207.048 59.3117C205.458 60.653 203.255 61.5382 200.307 61.5382C197.501 61.5382 195.344 60.6655 193.889 59.1567C192.44 57.653 191.76 55.5917 191.76 53.3473C191.76 51.0879 192.512 49.0055 193.968 47.4837C195.43 45.9569 197.553 45.0445 200.195 45.0445ZM200.195 46.6119C201.636 46.6119 203.047 46.9556 204.116 47.8779C205.201 48.813 205.834 50.2561 205.879 52.2408L205.895 52.9175H193.576L193.674 52.1697C193.888 50.5373 194.577 49.1357 195.712 48.1432C196.848 47.1503 198.378 46.612 200.195 46.6119ZM200.195 47.9352C198.643 47.9352 197.438 48.3905 196.58 49.1399C195.886 49.7471 195.387 50.5771 195.127 51.5942H204.513C204.366 50.2771 203.886 49.4248 203.255 48.8806C202.507 48.2354 201.447 47.9352 200.195 47.9352ZM193.081 53.3473C193.081 55.3295 193.678 57.0331 194.839 58.2375C195.995 59.4366 197.781 60.215 200.307 60.215C202.646 60.2149 204.39 59.6041 205.68 58.6971L205.532 58.5144C204.286 59.384 202.636 59.9987 200.448 59.9987C198.327 59.9987 196.644 59.3356 195.466 58.1927C194.292 57.0536 193.677 55.4936 193.586 53.8031L193.548 53.1057H206.448C206.511 51.1412 206.045 49.5287 205.129 48.3883C204.132 47.1481 202.523 46.3677 200.195 46.3677C197.869 46.3678 196.105 47.1629 194.921 48.3999C193.733 49.6422 193.081 51.3804 193.081 53.3473Z" fill="#111111"/>
<path d="M209.43 60.4857V56.2032H211.563V60.2338L210.412 64.3483H209.205L210.216 60.4857H209.43Z" fill="#111111"/>
<path d="M212.223 55.5415V60.3248L210.913 65.0099H208.35L209.36 61.1471H208.769V55.5415H212.223ZM210.09 59.8239H210.903V56.8647H210.09V59.8239Z" fill="#111111"/>
<path d="M57.496 79.7231V81.4025H50.4769V99.3162H48.6519V81.4025H41.6328V79.7231H57.496Z" fill="#111111"/>
<path d="M58.1562 79.0616V82.0643H51.1374V99.9781H47.9917V82.0643H40.9725V79.0616H58.1562ZM42.2932 80.7411H49.3124V98.6549H49.8167V80.7411H56.8355V80.3849H42.2932V80.7411Z" fill="#111111"/>
<path d="M64.9933 90.6114C67.436 90.6114 69.0644 91.3951 69.9348 92.4587V90.7793C69.9348 87.4765 68.3906 86.077 65.3022 86.077C63.6176 86.077 62.2418 86.3009 60.7819 86.7767L61.0065 85.2373C62.0453 84.8174 63.6457 84.5375 65.5268 84.5375C70.1313 84.5375 71.6194 87.2526 71.6194 90.3315V99.3163H69.9348V97.5809C69.0083 98.8405 67.3798 99.7082 64.6845 99.7082C61.4557 99.7082 59.0411 98.2527 59.0411 95.2018C59.0411 91.9269 61.7084 90.6114 64.9933 90.6114ZM65.246 98.1967C68.166 98.1967 69.9629 97.0211 69.9629 95.2298V94.8939C69.9629 93.4944 68.2783 91.9829 65.246 91.9829C62.6068 91.9829 60.8661 92.9906 60.8661 95.1458C60.8661 97.413 62.8034 98.1967 65.246 98.1967Z" fill="#111111"/>
<path d="M60.2058 95.1457C60.2059 93.8602 60.7402 92.8596 61.6951 92.209C62.6131 91.5834 63.8588 91.3212 65.2462 91.3212C65.9155 91.3212 66.5328 91.3911 67.0926 91.5172C66.4967 91.3631 65.7997 91.273 64.9934 91.273C63.4233 91.273 62.0845 91.5897 61.1581 92.2245C60.2673 92.8348 59.7016 93.7746 59.7016 95.2017C59.7016 96.5285 60.2145 97.4531 61.0442 98.067C61.9007 98.7007 63.1571 99.0464 64.6847 99.0464C65.8483 99.0464 66.7728 98.8764 67.5075 98.5925C66.8317 98.7684 66.0709 98.8582 65.2462 98.8582C63.9742 98.8582 62.7375 98.6576 61.7978 98.0872C60.8094 97.4872 60.2058 96.5091 60.2058 95.1457ZM61.5265 95.1457C61.5265 96.0495 61.8915 96.597 62.4822 96.9557C63.1219 97.3439 64.0755 97.535 65.2462 97.535C66.6293 97.535 67.6717 97.2549 68.3454 96.8264C68.9968 96.4122 69.3024 95.8675 69.3024 95.2297V94.8937C69.3023 94.4701 69.0424 93.9248 68.3669 93.4581C67.6982 92.9961 66.6567 92.6445 65.2462 92.6444C63.9943 92.6444 63.0501 92.8864 62.438 93.3035C61.8627 93.6954 61.5266 94.2761 61.5265 95.1457ZM70.5952 94.3092L70.5315 94.2317C70.5906 94.4474 70.6231 94.6686 70.6231 94.8937V95.2297C70.6231 95.3759 70.6138 95.5188 70.5952 95.6579V98.6549H70.9593V90.3314C70.9593 88.8875 70.6091 87.6208 69.8071 86.7205C69.0177 85.8345 67.6968 85.1992 65.5269 85.1992C63.9106 85.1992 62.5439 85.4133 61.6026 85.7238L61.5833 85.8561C62.7594 85.558 63.9375 85.4154 65.302 85.4154C66.9318 85.4154 68.2938 85.7832 69.2405 86.7184C70.1888 87.6552 70.5951 89.0372 70.5952 90.7794V94.3092ZM72.28 99.9781H69.2745V99.1416C68.1789 99.9171 66.6743 100.37 64.6847 100.37C62.9836 100.37 61.4179 99.988 60.26 99.1313C59.0753 98.2547 58.3809 96.9258 58.3809 95.2017C58.3809 93.3542 59.1486 91.9987 60.4126 91.1326C61.6411 90.2909 63.2785 89.9498 64.9934 89.9498C66.7824 89.9498 68.2185 90.3495 69.2745 91.0158V90.7794C69.2745 89.2188 68.909 88.2495 68.3132 87.6608C67.7156 87.0705 66.7607 86.7386 65.302 86.7386C63.685 86.7387 62.3783 86.9521 60.9861 87.4058L59.9746 87.7358L60.4079 84.7659L60.7596 84.6237C61.9022 84.1619 63.5936 83.876 65.5269 83.876C67.9614 83.876 69.6867 84.5981 70.7925 85.8393C71.8856 87.0662 72.28 88.6965 72.28 90.3314V99.9781Z" fill="#111111"/>
<path d="M78.357 78.324V99.3166H76.6724V78.324H78.357Z" fill="#111111"/>
<path d="M79.0172 77.6625V99.9784H76.0121V77.6625H79.0172ZM77.3328 98.6552H77.6965V78.9857H77.3328V98.6552Z" fill="#111111"/>
<path d="M85.2354 78.324V90.6957L88.5203 90.2758L93.6302 84.9577H95.7079L89.8399 91.0875L96.9152 99.3166H94.8375L88.2957 91.8153L85.2354 92.1791V99.3166H83.5508V78.324H85.2354Z" fill="#111111"/>
<path d="M85.8956 77.6625V89.9444L88.2055 89.649L93.3495 84.2962H97.2561L90.7321 91.1109L98.3558 99.9784H94.5377L88.0275 92.5133L85.8956 92.767V99.9784H82.8905V77.6625H85.8956ZM84.2112 98.6552H84.5749V91.5916L88.5637 91.1173L95.1375 98.6552H95.4749L88.948 91.0635L94.1594 85.6194H93.9114L88.8349 90.9028L84.5749 91.4473V78.9857H84.2112V98.6552Z" fill="#111111"/>
<path d="M108.007 79.7231V88.3161H119.855V79.7231H121.68V99.3162H119.855V89.9395H108.007V99.3162H106.182V79.7231H108.007Z" fill="#111111"/>
<path d="M108.667 79.0616V87.6548H119.195V79.0616H122.34V99.9781H119.195V90.6015H108.667V99.9781H105.522V79.0616H108.667ZM106.842 98.6549H107.347V89.2782H120.515V98.6549H121.02V80.3849H120.515V88.978H107.347V80.3849H106.842V98.6549Z" fill="#111111"/>
<path d="M131.702 90.6114C134.144 90.6114 135.773 91.3951 136.643 92.4587V90.7793C136.643 87.4765 135.099 86.077 132.011 86.077C130.326 86.077 128.95 86.3009 127.49 86.7767L127.715 85.2373C128.754 84.8174 130.354 84.5375 132.235 84.5375C136.84 84.5375 138.328 87.2526 138.328 90.3315V99.3163H136.643V97.5809C135.717 98.8405 134.088 99.7082 131.393 99.7082C128.164 99.7082 125.75 98.2527 125.75 95.2018C125.75 91.9269 128.417 90.6114 131.702 90.6114ZM131.954 98.1967C134.874 98.1967 136.671 97.0211 136.671 95.2298V94.8939C136.671 93.4944 134.987 91.9829 131.954 91.9829C129.315 91.9829 127.574 92.9906 127.574 95.1458C127.574 97.413 129.512 98.1967 131.954 98.1967Z" fill="#111111"/>
<path d="M126.914 95.1457C126.914 93.8602 127.448 92.8596 128.403 92.209C129.321 91.5834 130.567 91.3212 131.954 91.3212C132.624 91.3212 133.241 91.3911 133.801 91.5172C133.205 91.3631 132.508 91.273 131.702 91.273C130.132 91.273 128.793 91.5897 127.866 92.2245C126.976 92.8348 126.41 93.7746 126.41 95.2017C126.41 96.5285 126.923 97.4531 127.752 98.067C128.609 98.7007 129.865 99.0464 131.393 99.0464C132.557 99.0464 133.481 98.8764 134.216 98.5925C133.54 98.7684 132.779 98.8582 131.954 98.8582C130.682 98.8582 129.446 98.6576 128.506 98.0872C127.518 97.4872 126.914 96.5091 126.914 95.1457ZM128.235 95.1457C128.235 96.0495 128.6 96.597 129.19 96.9557C129.83 97.3439 130.784 97.535 131.954 97.535C133.338 97.535 134.38 97.2549 135.054 96.8264C135.705 96.4122 136.011 95.8675 136.011 95.2297V94.8937C136.011 94.4701 135.751 93.9248 135.075 93.4581C134.406 92.9961 133.365 92.6445 131.954 92.6444C130.703 92.6444 129.758 92.8864 129.146 93.3035C128.571 93.6955 128.235 94.2761 128.235 95.1457ZM137.303 94.3092L137.24 94.2317C137.299 94.4474 137.331 94.6686 137.331 94.8937V95.2297C137.331 95.3759 137.322 95.5188 137.303 95.6579V98.6549H137.668V90.3314C137.668 88.8875 137.317 87.6208 136.515 86.7205C135.726 85.8345 134.405 85.1992 132.235 85.1992C130.619 85.1992 129.252 85.4133 128.311 85.7238L128.292 85.8561C129.468 85.558 130.646 85.4154 132.01 85.4154C133.64 85.4154 135.002 85.7832 135.949 86.7184C136.897 87.6552 137.303 89.0372 137.303 90.7794V94.3092ZM138.988 99.9781H135.983V99.1416C134.887 99.9171 133.383 100.37 131.393 100.37C129.692 100.37 128.126 99.988 126.968 99.1313C125.784 98.2547 125.089 96.9258 125.089 95.2017C125.089 93.3542 125.857 91.9987 127.121 91.1326C128.349 90.2909 129.987 89.9498 131.702 89.9498C133.491 89.9498 134.927 90.3495 135.983 91.0158V90.7794C135.983 89.2188 135.617 88.2495 135.021 87.6608C134.424 87.0705 133.469 86.7386 132.01 86.7386C130.393 86.7387 129.087 86.9521 127.694 87.4058L126.683 87.7358L127.116 84.7659L127.468 84.6237C128.61 84.1619 130.302 83.876 132.235 83.876C134.67 83.876 136.395 84.5981 137.501 85.8393C138.594 87.0662 138.988 88.6965 138.988 90.3314V99.9781Z" fill="#111111"/>
<path d="M144.842 84.9574V88.0363C145.516 85.993 147.566 84.5375 150.654 84.5375C154.36 84.5375 156.747 86.6088 156.747 90.6954V99.3163H155.062V91.0872C155.062 87.3365 153.209 86.049 150.373 86.049C146.864 86.049 144.927 88.5681 144.927 91.4511V99.3163H143.242V84.9574H144.842Z" fill="#111111"/>
<path d="M144.266 91.4513C144.266 90.2836 144.556 89.1533 145.126 88.1885L144.182 88.0364V85.6192H143.902V98.6549H144.266V91.4513ZM156.087 90.6954C156.087 88.7818 155.531 87.4328 154.631 86.5595C153.727 85.6825 152.388 85.1992 150.654 85.1992C148.778 85.1992 147.383 85.768 146.483 86.6378C147.489 85.8505 148.805 85.3874 150.374 85.3874C151.878 85.3874 153.249 85.7279 154.24 86.6857C155.234 87.6473 155.723 89.1123 155.723 91.0873V98.6549H156.087V90.6954ZM157.407 99.9781H154.402V91.0873C154.402 89.3117 153.964 88.2573 153.323 87.6376C152.678 87.0139 151.705 86.7106 150.374 86.7106C148.786 86.7106 147.604 87.2751 146.816 88.1204C146.021 88.9733 145.587 90.1561 145.587 91.4513V99.9781H142.582V84.2959H145.503V85.7454C146.677 84.5757 148.456 83.876 150.654 83.876C152.626 83.876 154.334 84.4285 155.55 85.6088C156.77 86.7928 157.407 88.5225 157.407 90.6954V99.9781Z" fill="#111111"/>
<path d="M163.008 98.0575C162.081 97.6936 161.323 97.0218 161.323 95.9582C161.323 94.6707 162.446 93.747 163.653 93.1312C161.885 92.3475 161.099 90.948 161.099 89.3805C161.099 86.4975 163.71 84.5382 167.696 84.5382C169.156 84.5382 170.364 84.7342 171.346 85.098C172.189 83.3906 173.256 82.5789 175.53 82.6349L176.232 84.0344C174.07 83.9784 173.199 84.4823 172.498 85.6858C173.733 86.4975 174.351 87.7011 174.351 89.1006C174.351 91.7597 172.329 93.831 167.612 93.831C166.658 93.831 165.843 93.747 165.113 93.607C163.71 94.1948 163.008 94.7826 163.008 95.6503C163.008 96.7979 164.187 96.8539 165.787 96.8539H170.28C173.705 96.8539 175.811 97.9735 175.811 100.717C175.811 103.655 173.649 105.671 167.331 105.671C161.014 105.671 159.975 103.907 159.975 101.948C159.975 100.129 161.211 99.0091 163.008 98.0575ZM167.303 104.215C172.133 104.215 174.126 103.124 174.126 100.828C174.126 98.7572 172.189 98.3654 169.662 98.3654H164.889C162.952 99.373 161.772 100.297 161.772 101.668C161.772 103.572 163.513 104.215 167.303 104.215ZM167.64 92.3755C171.122 92.3755 172.526 91.004 172.526 89.1286C172.526 87.2533 171.01 85.9937 167.696 85.9937C164.748 85.9937 162.923 87.3652 162.923 89.3525C162.923 91.0319 164.243 92.3755 167.64 92.3755Z" fill="#111111"/>
<path d="M173.466 100.829C173.466 100.418 173.371 100.14 173.236 99.9402C173.1 99.7383 172.889 99.566 172.573 99.425C171.911 99.13 170.92 99.027 169.662 99.027H165.053C164.167 99.4955 163.507 99.919 163.067 100.352C162.621 100.791 162.433 101.204 162.433 101.668C162.433 102.04 162.516 102.3 162.65 102.497C162.785 102.697 163.009 102.886 163.381 103.05C164.154 103.389 165.416 103.554 167.303 103.554C169.694 103.554 171.269 103.279 172.227 102.792C172.692 102.556 172.991 102.28 173.177 101.978C173.363 101.677 173.466 101.304 173.466 100.829ZM171.865 89.1287C171.865 88.396 171.582 87.8212 170.978 87.4023C170.339 86.9601 169.285 86.6554 167.696 86.6554C166.316 86.6555 165.27 86.9777 164.589 87.4661C163.925 87.9419 163.584 88.5872 163.584 89.3527C163.584 89.9979 163.826 90.5463 164.394 90.9576C164.992 91.3902 166.014 91.714 167.64 91.714C169.31 91.714 170.37 91.3826 170.998 90.9219C171.594 90.4838 171.865 89.8816 171.865 89.1287ZM175.122 83.2961C174.279 83.3183 173.695 83.4895 173.25 83.7669C172.819 84.0356 172.463 84.4397 172.126 85.035C172.484 84.5056 172.922 84.0767 173.537 83.7885C174.004 83.5702 174.542 83.4476 175.173 83.3969L175.122 83.2961ZM174.786 100.829C174.786 101.501 174.639 102.125 174.3 102.674C173.962 103.222 173.461 103.649 172.824 103.973C171.578 104.606 169.741 104.877 167.303 104.877C165.4 104.877 163.896 104.72 162.851 104.262C162.314 104.026 161.867 103.697 161.557 103.241C161.246 102.782 161.112 102.248 161.112 101.668C161.112 100.761 161.513 100.027 162.141 99.4086C162.206 99.3446 162.274 99.2814 162.345 99.2191C161.224 99.9787 160.636 100.812 160.636 101.948C160.636 102.383 160.694 102.76 160.839 103.087C160.981 103.405 161.221 103.713 161.645 103.99C162.527 104.567 164.202 105.009 167.331 105.009C170.442 105.009 172.408 104.509 173.579 103.742C174.697 103.01 175.15 101.995 175.15 100.717C175.15 99.5451 174.717 98.7993 173.969 98.3111C173.172 97.7911 171.941 97.5156 170.279 97.5156H165.787C165.016 97.5156 164.209 97.5077 163.597 97.3131C163.275 97.2106 162.948 97.0399 162.705 96.7407C162.454 96.4326 162.347 96.0565 162.347 95.6505C162.347 95.2897 162.432 94.9646 162.588 94.6727C162.566 94.6958 162.542 94.7181 162.521 94.7416C162.168 95.1246 161.983 95.5245 161.983 95.9584C161.983 96.6291 162.44 97.124 163.249 97.4415L164.381 97.886C164.448 97.8502 164.516 97.814 164.584 97.7783L164.728 97.7038H169.662C170.93 97.7038 172.171 97.7972 173.11 98.2159C173.594 98.4318 174.025 98.7457 174.331 99.1997C174.639 99.6562 174.786 100.204 174.786 100.829ZM173.69 89.1007C173.69 87.9211 173.182 86.927 172.135 86.2393L171.635 85.9103L171.117 85.7186C170.226 85.3885 169.1 85.2 167.696 85.2C165.803 85.2 164.303 85.6659 163.294 86.4108C162.301 87.1443 161.759 88.1626 161.759 89.3807C161.759 90.6871 162.391 91.8489 163.92 92.5264L164.922 92.97L165.042 92.92L165.237 92.9575C165.925 93.0893 166.698 93.1694 167.612 93.1694C169.885 93.1694 171.407 92.669 172.346 91.9401C173.263 91.2277 173.69 90.2469 173.69 89.1007ZM173.186 89.1287C173.186 90.2512 172.754 91.2727 171.779 91.9892C170.834 92.6829 169.452 93.0372 167.64 93.0372C165.869 93.0372 164.532 92.6895 163.621 92.0306C162.681 91.3502 162.263 90.3869 162.263 89.3527C162.263 88.1309 162.834 87.0968 163.82 86.3901C164.788 85.696 166.129 85.3322 167.696 85.3322C169.421 85.3322 170.781 85.6575 171.729 86.3139C172.71 86.9936 173.186 87.9862 173.186 89.1287ZM175.011 89.1007C175.011 90.6135 174.427 91.998 173.155 92.9859C171.904 93.9575 170.056 94.4926 167.612 94.4927C166.704 94.4927 165.911 94.4187 165.192 94.2932C164.612 94.5481 164.226 94.7816 163.985 95.007C163.745 95.2321 163.668 95.4289 163.668 95.6505C163.668 95.8179 163.708 95.8793 163.728 95.9046C163.756 95.9387 163.824 95.997 163.997 96.0519C164.375 96.1722 164.959 96.1923 165.787 96.1923H170.279C172.043 96.1924 173.578 96.477 174.69 97.2024C175.85 97.9598 176.471 99.1454 176.471 100.717C176.471 102.377 175.843 103.84 174.301 104.85C172.812 105.825 170.537 106.333 167.331 106.333C164.143 106.333 162.141 105.894 160.924 105.099C160.298 104.69 159.884 104.189 159.633 103.626C159.387 103.072 159.315 102.493 159.315 101.948C159.315 100.155 160.329 98.9683 161.696 98.0626C161.103 97.5835 160.663 96.8976 160.663 95.9584C160.663 95.1048 161.039 94.3991 161.55 93.8444C161.788 93.5856 162.061 93.3541 162.35 93.147C161.052 92.2125 160.438 90.8592 160.438 89.3807C160.438 87.7159 161.201 86.3129 162.51 85.346C163.804 84.3906 165.603 83.8768 167.696 83.8768C168.962 83.8768 170.07 84.0189 171.026 84.2972C171.424 83.6136 171.905 83.047 172.552 82.6436C173.304 82.1747 174.209 81.9699 175.321 81.9708L175.546 81.9738L175.942 81.9833L177.317 84.7245L176.214 84.696C175.174 84.6691 174.536 84.7813 174.096 84.9872C173.827 85.1133 173.605 85.2879 173.398 85.5377C174.466 86.4542 175.011 87.7001 175.011 89.1007Z" fill="#111111"/>
<path d="M184.515 97.0494L189.934 84.9576H191.759L182.494 105.111H180.669L183.617 98.8407L176.935 84.9576H178.844L184.515 97.0494Z" fill="#111111"/>
<path d="M179.263 84.2961L184.502 95.4646L189.507 84.2961H192.79L182.916 105.772H179.628L182.885 98.8437L175.883 84.2961H179.263ZM184.348 98.8373L181.71 104.449H182.071L190.728 85.6193H190.361L184.529 98.6344L178.425 85.6193H177.986L184.348 98.8373Z" fill="#111111"/>
<path d="M195.828 84.9576V93.1867C195.828 96.9374 197.4 98.197 200.488 98.197C203.745 98.197 205.682 95.7058 205.682 92.8229V84.9576H207.367V99.3166H205.767V96.2377C205.093 98.3649 202.987 99.7084 200.039 99.7084C196.193 99.7084 194.143 97.6652 194.143 93.5786V84.9576H195.828Z" fill="#111111"/>
<path d="M195.167 85.6193H194.804V93.5788C194.804 95.5191 195.29 96.8585 196.122 97.7143C196.951 98.5672 198.228 99.047 200.039 99.047C201.813 99.047 203.183 98.5328 204.084 97.6941C203.144 98.4196 201.932 98.8588 200.488 98.8588C198.875 98.8588 197.494 98.5327 196.532 97.5653C195.573 96.5999 195.167 95.134 195.167 93.1869V85.6193ZM196.488 93.1869C196.488 94.9902 196.869 96.0295 197.468 96.6315C198.064 97.2314 199.014 97.5356 200.488 97.5356C203.322 97.5356 205.022 95.4017 205.022 92.8229V84.2961H208.028V99.9783H205.106V98.5491C203.921 99.7208 202.14 100.37 200.039 100.37C198.004 100.37 196.333 99.8281 195.176 98.6378C194.022 97.4505 193.483 95.7249 193.483 93.5788V84.2961H196.488V93.1869ZM206.343 92.8229C206.343 94.001 206.045 95.1325 205.485 96.0913L206.427 96.2378V98.6551H206.707V85.6193H206.343V92.8229Z" fill="#111111"/>
<path d="M214.246 78.324V99.3166H212.562V78.324H214.246Z" fill="#111111"/>
<path d="M214.906 77.6625V99.9784H211.901V77.6625H214.906ZM213.222 98.6552H213.586V78.9857H213.222V98.6552Z" fill="#111111"/>
<path d="M220.367 95.0329V99.3154H218.318V95.0329H220.367Z" fill="#111111"/>
<path d="M221.028 94.3713V99.9769H217.657V94.3713H221.028ZM218.978 98.6537H219.707V95.6946H218.978V98.6537Z" fill="#111111"/>
</svg>
