<svg width="46" height="51" viewBox="0 0 46 51" fill="none" xmlns="http://www.w3.org/2000/svg">
<g clip-path="url(#clip0_1_3818)">
<path d="M36.8335 35.6941C35.7002 34.4326 33.7618 34.3244 32.4981 35.4553L31.5066 36.3472C30.2429 37.4781 30.1385 39.4225 31.268 40.684L39.0925 49.421C40.2257 50.6825 42.1641 50.7907 43.4278 49.6599L44.4194 48.7716C45.6831 47.6408 45.7874 45.6963 44.6579 44.4348L36.8335 35.6978V35.6941Z" fill="white"/>
<path d="M41.3816 50.9998C40.3863 50.9998 39.3947 50.593 38.679 49.7943L30.8508 41.0573C30.2059 40.3332 29.8779 39.4039 29.9301 38.4336C29.9823 37.4632 30.411 36.575 31.1304 35.9293L32.122 35.0373C33.6093 33.7012 35.9093 33.8281 37.2439 35.3172L45.0683 44.0542C45.7132 44.7782 46.0413 45.7076 45.9891 46.6779C45.9369 47.6483 45.5082 48.5365 44.7887 49.1859L43.7972 50.0742C43.1075 50.6937 42.239 50.9998 41.3779 50.9998H41.3816ZM34.545 35.2314C33.9486 35.2314 33.3484 35.4441 32.8712 35.8733L31.8797 36.7653C31.3802 37.2132 31.0857 37.829 31.0484 38.497C31.0111 39.1651 31.2385 39.8107 31.6858 40.3109L39.5103 49.0478C40.4348 50.0779 42.0228 50.1675 43.0554 49.2419L44.0469 48.3537C44.5464 47.9058 44.8409 47.29 44.8782 46.6182C44.9155 45.9501 44.6881 45.3045 44.2408 44.8044L36.4163 36.0674C35.9205 35.515 35.2346 35.2314 34.545 35.2314Z" fill="#281000"/>
<path d="M9.40711 5.01368L3.8045 10.0396L37.1775 47.3311L42.7801 42.3052L9.40711 5.01368Z" fill="#FFCE00"/>
<path d="M37.1805 47.8833C37.0276 47.8833 36.8748 47.8198 36.763 47.6967L3.37757 10.4198C3.27692 10.3079 3.22846 10.1623 3.23592 10.0167C3.24337 9.86746 3.31047 9.72937 3.4223 9.6286L9.02506 4.60511C9.25617 4.39984 9.61031 4.4185 9.81533 4.6499L43.2007 41.9267C43.3014 42.0387 43.3499 42.1842 43.3424 42.3298C43.3349 42.4791 43.2678 42.6172 43.156 42.718L37.5533 47.7414C37.4452 47.8385 37.3147 47.8833 37.1805 47.8833ZM4.58535 10.0877L37.2252 46.5322L41.993 42.2552L9.35309 5.8106L4.58535 10.0877Z" fill="#281000"/>
<path d="M9.7933 8.48668L6.86705 7.60589L6.71421 7.74398L7.40011 10.7969C7.40011 10.7969 4.11227 10.0206 3.94825 10.2259L0.559753 0.55957L9.55846 5.18745L9.78957 8.48668H9.7933Z" fill="#FFD4CA"/>
<path d="M7.40013 11.3531C7.35913 11.3531 7.31439 11.3494 7.27339 11.3382C6.03579 11.0471 4.53725 10.7485 4.14584 10.7485C4.05264 10.7821 3.952 10.7933 3.85135 10.7746C3.65378 10.741 3.48603 10.5992 3.41893 10.4089L0.0341674 0.746317C-0.0441146 0.529852 0.0192565 0.287261 0.190731 0.137975C0.365934 -0.011312 0.611963 -0.0411693 0.816988 0.0633313L9.81569 4.69121C9.99089 4.78079 10.1027 4.9562 10.1176 5.15027L10.3488 8.4495C10.3637 8.63238 10.2854 8.81152 10.14 8.92722C9.99462 9.04291 9.80824 9.08024 9.62931 9.02425L7.4225 8.35993L7.94065 10.6739C7.98166 10.8605 7.92574 11.0583 7.78781 11.1964C7.68344 11.3009 7.54179 11.3569 7.3964 11.3569L7.40013 11.3531ZM4.33222 9.64006C4.77209 9.66992 5.48036 9.78561 6.65832 10.0506L6.16626 7.86355C6.12153 7.66575 6.18863 7.46048 6.33773 7.32612L6.49057 7.18803C6.63595 7.0574 6.83725 7.01262 7.02363 7.0686L9.17453 7.718L9.02169 5.54588L1.55135 1.69802L4.33222 9.64006Z" fill="#281000"/>
<path d="M1.77465 4.05661L3.85472 2.19053L0.559418 0.55957L1.77465 4.05661Z" fill="#303030"/>
<path d="M1.77443 4.61668C1.7297 4.61668 1.68124 4.60922 1.63278 4.59802C1.45012 4.54951 1.30474 4.41515 1.2451 4.23974L0.0298643 0.7427C-0.04469 0.529966 0.0186812 0.291108 0.190156 0.141821C0.361631 -0.0111972 0.603932 -0.0410545 0.808957 0.0597139L4.10053 1.69067C4.26828 1.77278 4.38011 1.93326 4.4062 2.11614C4.4323 2.29901 4.3652 2.48562 4.22354 2.60878L2.14348 4.47486C2.0391 4.56817 1.9049 4.61668 1.77071 4.61668H1.77443ZM1.53586 1.66828L2.02419 3.07903L2.86293 2.32514L1.53586 1.66828Z" fill="#281000"/>
<path d="M38.8316 46.2192C38.6788 46.2192 38.5259 46.1557 38.4141 46.0325L6.83291 10.8308C6.62789 10.5994 6.64653 10.2486 6.87392 10.0396C7.10504 9.8343 7.45544 9.85296 7.66419 10.0806L39.2491 45.2824C39.4542 45.5138 39.4355 45.8646 39.2081 46.0736C39.1 46.1706 38.9695 46.2154 38.8354 46.2154L38.8316 46.2192Z" fill="#281000"/>
<path d="M9.9788 8.06856L9.1366 8.80518L40.3099 44.5321L41.1521 43.7955L9.9788 8.06856Z" fill="#281000"/>
</g>
<defs>
<clipPath id="clip0_1_3818">
<rect width="46" height="51" fill="white"/>
</clipPath>
</defs>
</svg>
