<svg width="20" height="14" viewBox="0 0 20 14" fill="none" xmlns="http://www.w3.org/2000/svg">
<g clip-path="url(#clip0_1_6746)">
<path d="M0 0H20V14H0V0Z" fill="#D80027"/>
<path d="M8.84208 9.7916L8.46392 9.153L7.76606 9.33312L8.23 8.75593L7.85183 8.11733L8.5185 8.39979L8.97854 7.82259L8.92785 8.57581L9.59452 8.85826L8.89666 9.03838L8.84208 9.7916ZM11.3294 3.35651L10.9357 3.98692L11.3879 4.5723L10.6978 4.37581L10.3041 5.01031L10.2651 4.25709L9.57503 4.0606L10.2456 3.79043L10.2066 3.03721L10.6588 3.62259L11.3294 3.35651ZM9.20856 1.03955L9.13058 1.78867L9.78555 2.09978L9.0838 2.25534L9.00583 3.00446L8.64715 2.34949L7.9493 2.50505L8.42883 1.94423L8.07015 1.29335L8.72512 1.60037L9.20856 1.03955ZM11.4152 6.62318L10.8343 7.06938L11.0604 7.78575L10.4795 7.34364L9.89861 7.79394L10.1169 7.07347L9.53604 6.63546L10.2534 6.63136L10.4717 5.9109L10.6978 6.62727L11.4152 6.62318ZM4.48341 1.89511L5.15787 4.08516H7.34891L5.57893 5.43195L6.25339 7.62201L4.48341 6.27113L2.70953 7.62201L3.38789 5.43195L1.61401 4.08516H3.80895L4.48341 1.89511Z" fill="#FFDA44"/>
</g>
<defs>
<clipPath id="clip0_1_6746">
<rect width="20" height="14" fill="white"/>
</clipPath>
</defs>
</svg>
