<svg width="20" height="13" viewBox="0 0 20 13" fill="none" xmlns="http://www.w3.org/2000/svg">
<g clip-path="url(#clip0_1_6738)">
<path d="M0 0H20V13H0V0Z" fill="#055E1C"/>
<path d="M7.16984 7.7712C7.16984 8.23947 7.54996 8.61903 8.01891 8.61903H10.5661C10.5661 9.00918 10.8829 9.32556 11.2737 9.32556H12.1227C12.5135 9.32556 12.8303 9.00922 12.8303 8.61903V7.7712H7.16984ZM12.9009 3.67334V5.6516C12.9009 5.96326 12.647 6.2168 12.3349 6.2168V7.06463C13.1152 7.06463 13.75 6.43076 13.75 5.6516V3.67334H12.9009ZM6.81605 5.65164C6.81605 5.9633 6.56215 6.21684 6.25 6.21684V7.06467C7.03031 7.06467 7.66508 6.4308 7.66508 5.65164V3.67338H6.81602V5.65164H6.81605Z" fill="white"/>
<path d="M11.6274 3.67334H12.4765V5.6516H11.6274V3.67334ZM10.3538 4.80392C10.3538 4.88185 10.2903 4.94522 10.2123 4.94522C10.1342 4.94522 10.0708 4.88185 10.0708 4.80392V3.67345H9.22171V4.80392C9.22171 4.88185 9.15823 4.94522 9.08019 4.94522C9.00214 4.94522 8.93866 4.88185 8.93866 4.80392V3.67345H8.0896V4.80392C8.0896 5.34931 8.53397 5.79305 9.08015 5.79305C9.2905 5.79305 9.48562 5.72705 9.6462 5.61492C9.80675 5.72705 10.0019 5.79305 10.2123 5.79305C10.2546 5.79305 10.2962 5.79008 10.3373 5.78486C10.2771 6.03239 10.0539 6.21695 9.78772 6.21695V7.06478C10.568 7.06478 11.2028 6.43092 11.2028 5.65175V3.67345H10.3537L10.3538 4.80392Z" fill="white"/>
<path d="M8.0896 6.2168H9.36308V7.06463H8.0896V6.2168Z" fill="white"/>
</g>
<defs>
<clipPath id="clip0_1_6738">
<rect width="20" height="13" fill="white"/>
</clipPath>
</defs>
</svg>
