<svg width="20" height="13" viewBox="0 0 20 13" fill="none" xmlns="http://www.w3.org/2000/svg">
<g clip-path="url(#clip0_1_6734)">
<path d="M0 0H20V13H0V0Z" fill="white"/>
<path d="M0 0H20V0.999708H0V0ZM0 1.99942H20V2.99912H0V1.99942ZM0 3.99883H20V4.99854H0V3.99883ZM0 5.99825H20V6.99795H0V5.99825ZM0 8.00146H20V9.00117H0V8.00146ZM0 10.0009H20V11.0006H0V10.0009ZM0 12.0003H20V13H0V12.0003Z" fill="#D80027"/>
<path d="M0 0H10V6.99795H0V0Z" fill="#2E52B2"/>
<path d="M1.86353 5.2799L1.70758 4.79335L1.53604 5.2799H1.02142L1.43858 5.57259L1.28263 6.05914L1.70758 5.75885L2.12084 6.05914L1.96099 5.57259L2.38595 5.2799H1.86353ZM4.05846 5.2799L3.89862 4.79335L3.73487 5.2799H3.22025L3.63741 5.57259L3.48146 6.05914L3.89862 5.75885L4.31967 6.05914L4.16372 5.57259L4.58088 5.2799H4.05846ZM6.26119 5.2799L6.09355 4.79335L5.9376 5.2799H5.41129L5.84014 5.57259L5.67639 6.05914L6.09355 5.75885L6.5224 6.05914L6.35866 5.57259L6.77581 5.2799H6.26119ZM8.45222 5.2799L8.29628 4.79335L8.13253 5.2799H7.61402L8.03507 5.57259L7.87912 6.05914L8.29628 5.75885L8.71733 6.05914L8.54969 5.57259L8.97854 5.2799H8.45222ZM3.89862 2.86236L3.73487 3.34891H3.22025L3.63741 3.6492L3.48146 4.12815L3.89862 3.83166L4.31967 4.12815L4.16372 3.6492L4.58088 3.34891H4.05846L3.89862 2.86236ZM1.70758 2.86236L1.53604 3.34891H1.02142L1.43858 3.6492L1.28263 4.12815L1.70758 3.83166L2.12084 4.12815L1.96099 3.6492L2.38595 3.34891H1.86353L1.70758 2.86236ZM6.09355 2.86236L5.9376 3.34891H5.41129L5.84014 3.6492L5.67639 4.12815L6.09355 3.83166L6.5224 4.12815L6.35866 3.6492L6.77581 3.34891H6.26119L6.09355 2.86236ZM8.29628 2.86236L8.13253 3.34891H7.61402L8.03507 3.6492L7.87912 4.12815L8.29628 3.83166L8.71733 4.12815L8.54969 3.6492L8.97854 3.34891H8.45222L8.29628 2.86236ZM1.70758 0.938965L1.53604 1.41791H1.02142L1.43858 1.7182L1.28263 2.20095L1.70758 1.90066L2.12084 2.20095L1.96099 1.7182L2.38595 1.41791H1.86353L1.70758 0.938965ZM3.89862 0.938965L3.73487 1.41791H3.22025L3.63741 1.7182L3.48146 2.20095L3.89862 1.90066L4.31967 2.20095L4.16372 1.7182L4.58088 1.41791H4.05846L3.89862 0.938965ZM6.09355 0.938965L5.9376 1.41791H5.41129L5.84014 1.7182L5.67639 2.20095L6.09355 1.90066L6.5224 2.20095L6.35866 1.7182L6.77581 1.41791H6.26119L6.09355 0.938965ZM8.29628 0.938965L8.13253 1.41791H7.61402L8.03507 1.7182L7.87912 2.20095L8.29628 1.90066L8.71733 2.20095L8.54969 1.7182L8.97854 1.41791H8.45222L8.29628 0.938965Z" fill="white"/>
</g>
<defs>
<clipPath id="clip0_1_6734">
<rect width="20" height="13" fill="white"/>
</clipPath>
</defs>
</svg>
