<svg width="16" height="19" viewBox="0 0 16 19" fill="none" xmlns="http://www.w3.org/2000/svg">
<path d="M13.3773 10.0404C13.3688 8.48369 14.0744 7.30869 15.5027 6.44336C14.7035 5.3023 13.4963 4.67451 11.9022 4.5515C10.3932 4.43273 8.74389 5.42956 8.14028 5.42956C7.50266 5.42956 6.04038 4.59392 4.89267 4.59392C2.52072 4.63209 0 6.48154 0 10.2441C0 11.3554 0.204038 12.5035 0.612115 13.6884C1.15622 15.2452 3.12009 19.0628 5.16897 18.9992C6.24017 18.9738 6.99681 18.2399 8.39107 18.2399C9.74283 18.2399 10.4442 18.9992 11.6387 18.9992C13.7046 18.9695 15.4814 15.4997 16 13.9387C13.2285 12.6364 13.3773 10.121 13.3773 10.0404ZM10.9713 3.07534C12.1318 1.70098 12.0255 0.449635 11.9915 0C10.9671 0.0593858 9.78108 0.695662 9.10521 1.4804C8.36132 2.32029 7.92349 3.35954 8.017 4.53029C9.12646 4.61513 10.1382 4.04672 10.9713 3.07534Z" fill="black"/>
</svg>
