<svg width="48" height="50" viewBox="0 0 48 50" fill="none" xmlns="http://www.w3.org/2000/svg">
<g clip-path="url(#clip0_1_3859)">
<path d="M25.1459 46.3793C22.4667 49.6505 17.5978 50.164 14.273 47.5332L3.69065 39.1487C0.365839 36.5127 -0.161398 31.7223 2.51782 28.4511L22.8541 3.62573C25.5333 0.354506 30.4021 -0.158939 33.727 2.4718L44.3093 10.8563C47.6342 13.4923 48.1614 18.2827 45.4822 21.554L25.1459 46.3793Z" fill="white"/>
<path d="M19.115 50C17.232 50 15.3383 49.3913 13.7673 48.1474L3.18493 39.7629C1.40954 38.3549 0.295889 36.3487 0.0484111 34.1203C-0.199067 31.8918 0.457288 29.7004 1.88836 27.9484L22.2246 3.12833C25.1782 -0.476369 30.5635 -1.04804 34.2327 1.85795L44.8151 10.2425C46.5904 11.6505 47.7041 13.6566 47.9516 15.8851C48.1937 18.1135 47.5427 20.3049 46.1116 22.0517L25.7754 46.877C24.0915 48.9361 21.6113 50.0053 19.115 50.0053V50ZM28.885 1.588C26.8568 1.588 24.85 2.45609 23.4835 4.12346L3.14727 28.9488C1.9852 30.3674 1.45796 32.1406 1.65702 33.9509C1.85608 35.7612 2.75991 37.3862 4.19636 38.5296L14.7787 46.9141C17.7539 49.2696 22.1224 48.809 24.5165 45.8819L44.8527 21.0566C46.0148 19.638 46.542 17.8647 46.343 16.0544C46.1439 14.2441 45.2401 12.6191 43.8036 11.4758L33.2212 3.09128C31.9408 2.08027 30.4075 1.588 28.8796 1.588H28.885Z" fill="#281000"/>
<path d="M16.8822 9.62737L0.973694 29.0669L24.876 48.0022L40.7846 28.5626L16.8822 9.62737Z" fill="#FFCE00"/>
<path d="M24.8658 48.7933C24.6883 48.7933 24.5107 48.7351 24.3601 48.6186L0.462324 29.6794C0.295545 29.5471 0.187946 29.3565 0.166426 29.1448C0.144906 28.933 0.204086 28.7266 0.338585 28.5625L16.2579 9.13101C16.5376 8.79225 17.0434 8.73402 17.3931 9.00927L41.2962 27.9485C41.463 28.0808 41.5706 28.2714 41.5921 28.4831C41.6136 28.6949 41.5545 28.9013 41.42 29.0654L25.5007 48.4969C25.3393 48.6927 25.1079 48.7933 24.8712 48.7933H24.8658ZM2.10321 28.9436L24.7475 46.8877L39.6553 28.6896L17.0057 10.7455L2.10321 28.9436Z" fill="#281000"/>
</g>
<defs>
<clipPath id="clip0_1_3859">
<rect width="48" height="50" fill="white"/>
</clipPath>
</defs>
</svg>
