<svg width="48" height="62" viewBox="0 0 48 62" fill="none" xmlns="http://www.w3.org/2000/svg">
<g clip-path="url(#clip0_1_3866)">
<path d="M21.8168 17.3473C18.5767 19.8723 15.0727 22.0879 11.2619 23.5485C10.5992 23.8022 1.07529 27.4475 0.921875 26.8905C4.0331 38.0428 7.69048 50.2287 12.7531 60.6445C13.9313 63.0582 29.2727 54.3938 30.905 53.5026C36.9188 50.2287 42.8222 45.4818 45.559 38.8474C48.2714 32.2748 46.9336 25.2504 44.5342 18.8202C42.2637 12.7366 39.398 6.22589 35.5994 0.928223C35.0042 4.29496 31.9912 7.049 29.9047 9.68546C27.5851 12.6128 24.7439 15.0698 21.8168 17.3473Z" fill="#E5E5E5"/>
<path d="M13.7528 62.0001C13.3968 62.0001 13.133 61.9505 12.9182 61.8825C12.3414 61.6968 12.0591 61.3317 11.9302 61.0593C6.89826 50.7054 3.24088 38.6433 0.0376061 27.1444C-0.0973977 26.6493 0.184883 26.1356 0.675806 25.9995C0.859902 25.9499 1.044 25.9561 1.20968 26.0118C2.17926 25.8695 6.24165 24.4832 10.9361 22.6822C14.2866 21.3949 17.6617 19.4145 21.2516 16.6171C23.6633 14.7357 26.7438 12.1859 29.1862 9.11005C29.6525 8.52211 30.168 7.92179 30.6712 7.34004C32.4447 5.27915 34.2733 3.15018 34.6968 0.77366C34.7643 0.408518 35.0404 0.117641 35.3963 0.0309973C35.7584 -0.0494579 36.1327 0.0928859 36.3475 0.389951C39.6121 4.94495 42.4902 10.6944 45.3989 18.4986C48.4978 26.804 48.8169 33.3828 46.4114 39.2127C43.9691 45.123 38.9003 50.2103 31.3401 54.3259L30.9044 54.5672C19.6807 60.7623 15.5508 62.0062 13.7466 62.0062L13.7528 62.0001ZM13.5257 60.131C13.986 60.2362 16.729 60.2734 30.0269 52.9334L30.4687 52.692C37.6484 48.7806 42.4411 44.009 44.7116 38.5009C46.9269 33.1352 46.5955 26.9897 43.6745 19.1546C41.1463 12.3778 38.6548 7.19151 35.9179 3.02641C35.0404 5.0873 33.4756 6.90063 32.0581 8.55306C31.5487 9.14719 31.0639 9.71037 30.6221 10.2674C28.057 13.498 24.866 16.1468 22.3746 18.0901C18.6375 20.9989 15.1089 23.0721 11.5866 24.4213C6.12505 26.5131 3.46179 27.3858 2.09948 27.7076C5.19843 38.7547 8.73922 50.2598 13.5257 60.1372V60.131Z" fill="#281000"/>
<path d="M42.9071 15.2119C44.3246 19.2656 43.8828 24.619 40.207 27.2369C42.3119 29.044 43.3612 32.1075 43.6374 34.8863C43.981 38.3954 44.564 42.4738 41.8271 44.9741" fill="white"/>
<path d="M41.8268 45.9026C41.5752 45.9026 41.3236 45.7974 41.1456 45.5994C40.802 45.2219 40.8327 44.6339 41.207 44.2874C43.453 42.2388 43.1093 38.8473 42.778 35.5611L42.7166 34.9731C42.422 31.9901 41.2622 29.366 39.6054 27.9426C39.3906 27.7569 39.2679 27.4784 39.2801 27.1937C39.2924 26.909 39.4397 26.6429 39.6667 26.4758C42.9252 24.1612 43.318 19.2101 42.0293 15.5153C41.8575 15.0326 42.1091 14.5004 42.5939 14.3333C43.0725 14.16 43.6003 14.4137 43.7659 14.9026C45.1344 18.814 44.9564 24.1674 41.5813 27.3051C43.183 29.0999 44.2507 31.7673 44.5453 34.7936L44.6005 35.3754C44.9442 38.7669 45.3676 42.9815 42.4343 45.6613C42.2564 45.8222 42.0354 45.9026 41.8145 45.9026H41.8268Z" fill="#281000"/>
<path d="M16.14 49.3932C15.7596 49.3932 15.4037 49.1518 15.2748 48.7743L10.0403 33.8034C9.86851 33.3207 10.1201 32.7885 10.6049 32.6214C11.0897 32.4543 11.6113 32.7018 11.777 33.1907L17.0114 48.1616C17.1833 48.6443 16.9317 49.1766 16.4469 49.3437C16.3426 49.3808 16.2444 49.3994 16.14 49.3994V49.3932Z" fill="#281000"/>
<path d="M36.7572 36.1925C36.3768 36.1925 36.0209 35.9511 35.892 35.5736L30.6575 20.6027C30.4857 20.12 30.7373 19.5878 31.2221 19.4207C31.7007 19.2536 32.2285 19.5011 32.3942 19.99L37.6286 34.9609C37.8004 35.4436 37.5489 35.9759 37.0641 36.143C36.9597 36.1801 36.8616 36.1987 36.7572 36.1987V36.1925Z" fill="#281000"/>
<path d="M26.4976 52.3638C26.111 52.3638 25.755 52.1163 25.6262 51.7326L16.9614 25.8446C16.8018 25.3618 17.0596 24.8296 17.5382 24.6687C18.023 24.5016 18.5446 24.7677 18.7042 25.2504L27.3689 51.1384C27.5285 51.6212 27.2708 52.1534 26.7921 52.3143C26.6939 52.3452 26.5957 52.3638 26.4976 52.3638Z" fill="#281000"/>
<path d="M30.3764 49.0279C29.9898 49.0279 29.6339 48.7804 29.505 48.3967L20.8402 22.5087C20.6806 22.0197 20.9384 21.4937 21.417 21.3328C21.9018 21.1719 22.4234 21.4318 22.583 21.9145L31.2478 47.8025C31.4073 48.2915 31.1496 48.8175 30.6709 48.9784C30.5727 49.0094 30.4746 49.0279 30.3764 49.0279Z" fill="#281000"/>
<path d="M33.9096 45.816C33.523 45.816 33.1671 45.5685 33.0382 45.1848L24.3734 19.2968C24.2138 18.814 24.4716 18.2818 24.9502 18.1209C25.4289 17.96 25.9566 18.2199 26.1162 18.7026L34.781 44.5906C34.9405 45.0734 34.6828 45.6056 34.2041 45.7665C34.1059 45.7975 34.0078 45.816 33.9096 45.816Z" fill="#281000"/>
</g>
<defs>
<clipPath id="clip0_1_3866">
<rect width="48" height="62" fill="white"/>
</clipPath>
</defs>
</svg>
