<svg width="595" height="241" viewBox="0 0 595 241" fill="none" xmlns="http://www.w3.org/2000/svg">
<path d="M14.7232 43.3325L28.8327 10.8649H31.1311L45.1129 43.3325L53.4765 5.62012H57.8817L47.6667 49.3265H43.453L29.8542 17.5457L16.3193 49.3265H12.1056L1.89062 5.62012H6.29585L14.7232 43.3325Z" fill="#111111"/>
<path d="M7.49805 4.12012L15.1826 38.5098L27.8486 9.36523H32.1182L44.6533 38.4736L52.2725 4.12012H59.7725L48.8564 50.8262H42.4629L29.8574 21.3652L17.3105 50.8262H10.916L0 4.12012H7.49805ZM45.6533 47.8262H46.4766L55.9902 7.12012H54.6797L45.6533 47.8262ZM14.4062 47.8262H15.3281L29.8506 13.7256L44.4424 47.8262H45.415L30.1445 12.3652H29.8154L14.4062 47.8262ZM13.2959 47.8262H14.1904L5.09375 7.12012H3.78223L13.2959 47.8262Z" fill="#111111"/>
<path d="M68.4146 2.49902V23.9776C70.1384 19.7318 74.6713 16.3602 81.6941 16.3602C90.1215 16.3602 95.5483 20.9806 95.5483 30.0965V49.3273H91.7176V30.9706C91.7176 22.604 87.6316 19.7318 80.928 19.7318C73.2029 19.7318 68.4146 25.3512 68.4146 31.7823V49.3273H64.584V2.49902H68.4146Z" fill="#111111"/>
<path d="M66.915 31.7822C66.9151 29.102 67.6604 26.5463 69.0371 24.3916L66.915 23.9775V3.99902H66.084V47.8271H66.915V31.7822ZM94.0479 30.0967C94.0479 25.8401 92.7889 22.8405 90.7471 20.8965C88.6929 18.9407 85.6442 17.8604 81.6943 17.8604C77.9891 17.8604 75.1232 18.8606 73.0723 20.3848C75.2242 19.0305 77.8768 18.2315 80.9277 18.2314C84.4574 18.2314 87.6107 18.9828 89.8691 21.125C92.1423 23.2813 93.2178 26.5672 93.2178 30.9707V47.8271H94.0479V30.0967ZM97.0479 50.8271H90.2178V30.9707C90.2178 27.0076 89.2504 24.6732 87.8047 23.3018C86.3442 21.9164 84.1016 21.2314 80.9277 21.2314C74.0609 21.2316 69.9151 26.1497 69.915 31.7822V50.8271H63.084V0.999023H69.915V19.1396C72.5879 16.5374 76.5931 14.8604 81.6943 14.8604C86.1717 14.8604 90.0495 16.0904 92.8154 18.7236C95.5937 21.3688 97.0479 25.2374 97.0479 30.0967V50.8271Z" fill="#111111"/>
<path d="M121.214 16.3604C132.514 16.3604 137.75 23.8529 136.856 34.3424H107.679C108.062 41.273 112.787 46.7675 121.789 46.7675C127.152 46.7675 130.918 45.0817 133.6 42.8964L135.834 45.5812C132.514 48.3285 127.854 50.2016 121.469 50.2016C109.339 50.2016 103.529 42.8339 103.529 33.4058C103.529 23.9778 109.914 16.3604 121.214 16.3604ZM121.214 19.8569C113.553 19.8569 108.764 24.2899 107.871 30.9708H132.642C132.451 22.729 127.343 19.8569 121.214 19.8569Z" fill="#111111"/>
<path d="M121.214 14.8604C127.209 14.8604 131.813 16.8616 134.768 20.4668C137.697 24.0416 138.819 28.9668 138.351 34.4697L138.233 35.8428H109.354C109.774 38.3197 110.851 40.4642 112.536 42.0674C114.564 43.9968 117.602 45.2676 121.789 45.2676C126.805 45.2675 130.237 43.7015 132.652 41.7334L133.803 40.7959L137.949 45.7773L136.791 46.7373C133.175 49.7293 128.167 51.7011 121.47 51.7012C115.094 51.7012 110.19 49.7576 106.881 46.3906C103.58 43.0322 102.029 38.4247 102.029 33.4062C102.029 28.3529 103.744 23.6981 107.061 20.2998C110.386 16.8921 115.212 14.8604 121.214 14.8604ZM121.214 18.3564C124.487 18.3564 127.692 19.1214 130.123 21.1777C132.593 23.2666 134.038 26.4951 134.142 30.9355L134.178 32.4707H106.156L106.384 30.7715C106.873 27.1184 108.444 23.9851 111.028 21.7695C113.611 19.5547 117.089 18.3565 121.214 18.3564ZM121.214 21.3564C117.678 21.3565 114.931 22.3753 112.981 24.0469C111.412 25.3925 110.283 27.2266 109.691 29.4707H131.036C130.699 26.5606 129.613 24.676 128.186 23.4688C126.483 22.0288 124.069 21.3564 121.214 21.3564ZM105.029 33.4062C105.029 37.8156 106.384 41.6058 109.021 44.2881C111.649 46.9618 115.715 48.7012 121.47 48.7012C126.778 48.7011 130.742 47.3454 133.676 45.332L133.356 44.9492C130.522 46.8934 126.767 48.2675 121.789 48.2676C116.974 48.2676 113.148 46.7905 110.468 44.2402C107.794 41.6963 106.391 38.2082 106.182 34.4248L106.094 32.8428H135.442C135.58 28.4804 134.523 24.9012 132.447 22.3682C130.183 19.6052 126.519 17.8604 121.214 17.8604C115.915 17.8604 111.899 19.6377 109.208 22.3955C106.507 25.1629 105.029 29.0315 105.029 33.4062Z" fill="#111111"/>
<path d="M148.606 17.2969V24.1651C150.138 19.6071 154.799 16.3604 161.822 16.3604C170.249 16.3604 175.676 20.9807 175.676 30.0967V49.3275H171.845V30.9708C171.845 22.6041 167.631 19.732 161.183 19.732C153.203 19.732 148.797 25.3514 148.797 31.7825V49.3275H144.967V17.2969H148.606Z" fill="#111111"/>
<path d="M147.298 31.7822C147.298 29.1806 147.951 26.6638 149.239 24.5137L147.105 24.165V18.7969H146.467V47.8271H147.298V31.7822ZM174.176 30.0967C174.176 25.8402 172.917 22.8405 170.875 20.8965C168.821 18.9407 165.771 17.8604 161.821 17.8604C157.694 17.8604 154.596 19.0455 152.548 20.8691C154.808 19.2044 157.726 18.2324 161.184 18.2324C164.599 18.2325 167.713 18.9896 169.965 21.126C172.231 23.2762 173.345 26.5548 173.345 30.9707V47.8271H174.176V30.0967ZM177.176 50.8271H170.345V30.9707C170.345 27.0202 169.352 24.6793 167.899 23.3018C166.433 21.9108 164.216 21.2325 161.184 21.2324C157.565 21.2324 154.875 22.4953 153.085 24.3789C151.281 26.2775 150.298 28.9059 150.298 31.7822V50.8271H143.467V15.7969H150.105V19.041C152.778 16.4219 156.826 14.8604 161.821 14.8604C166.299 14.8604 170.177 16.0902 172.943 18.7236C175.722 21.3688 177.176 25.2374 177.176 30.0967V50.8271Z" fill="#111111"/>
<path d="M205.68 2.49902V49.3273H201.85V2.49902H205.68Z" fill="#111111"/>
<path d="M207.181 0.999023V50.8271H200.35V0.999023H207.181ZM203.35 47.8271H204.181V3.99902H203.35V47.8271Z" fill="#111111"/>
<path d="M221.641 2.49902V12.2393H217.811V2.49902H221.641ZM221.641 17.2968V49.3273H217.811V17.2968H221.641Z" fill="#111111"/>
<path d="M223.142 15.7969V50.8271H216.311V15.7969H223.142ZM219.311 47.8271H220.142V18.7969H219.311V47.8271ZM223.142 0.999023V13.7393H216.311V0.999023H223.142ZM219.311 10.7393H220.142V3.99902H219.311V10.7393Z" fill="#111111"/>
<path d="M235.299 17.2967V13.488C235.299 5.99552 239.704 1.5 247.11 1.5C249.663 1.5 252.409 1.9995 254.26 2.81119L254.771 6.3077C252.473 5.43358 249.791 4.87164 247.557 4.87164C241.747 4.87164 239.129 7.6189 239.129 13.6754V17.2967H252.792V20.6684H239.129V49.3273H235.299V20.6684H228.723V17.2967H235.299Z" fill="#111111"/>
<path d="M233.799 13.4883C233.799 9.44988 234.991 6.03855 237.357 3.63281C239.727 1.22392 243.101 6.65097e-05 247.109 0C249.815 0 252.776 0.522872 254.862 1.4375L255.624 1.77148L256.624 8.61719L254.237 7.70996C252.074 6.88742 249.575 6.37208 247.557 6.37207C244.861 6.37207 243.232 7.00981 242.248 8.03906C241.25 9.0829 240.629 10.8258 240.629 13.6758V15.7969H254.292V22.168H240.629V50.8271H233.799V22.168H227.223V15.7969H233.799V13.4883ZM236.799 18.7969H230.223V19.168H236.799V47.8271H237.629V19.168H251.292V18.7969H237.629V13.6758C237.629 10.4696 238.317 7.80975 240.08 5.96582C241.857 4.10733 244.442 3.37207 247.557 3.37207C249.246 3.37207 251.132 3.66048 252.938 4.14355L252.902 3.89355C251.312 3.34917 249.164 3 247.109 3C243.713 3.00007 241.18 4.02446 239.496 5.73633C237.809 7.45146 236.799 10.0344 236.799 13.4883V18.7969Z" fill="#111111"/>
<path d="M272.773 16.3604C284.073 16.3604 289.308 23.8529 288.414 34.3424H259.238C259.621 41.273 264.345 46.7675 273.347 46.7675C278.71 46.7675 282.477 45.0817 285.158 42.8964L287.393 45.5812C284.073 48.3285 279.412 50.2016 273.028 50.2016C260.898 50.2016 255.088 42.8339 255.088 33.4058C255.088 23.9778 261.472 16.3604 272.773 16.3604ZM272.773 19.8569C265.111 19.8569 260.323 24.2899 259.429 30.9708H284.201C284.009 22.729 278.902 19.8569 272.773 19.8569Z" fill="#111111"/>
<path d="M272.772 14.8604C278.768 14.8604 283.371 16.8616 286.326 20.4668C289.256 24.0416 290.378 28.9668 289.909 34.4697L289.792 35.8428H260.913C261.333 38.3197 262.41 40.4642 264.095 42.0674C266.123 43.9968 269.161 45.2676 273.348 45.2676C278.363 45.2675 281.796 43.7015 284.211 41.7334L285.361 40.7959L289.508 45.7773L288.35 46.7373C284.734 49.7293 279.725 51.7011 273.028 51.7012C266.653 51.7012 261.749 49.7576 258.439 46.3906C255.139 43.0322 253.588 38.4247 253.588 33.4062C253.588 28.3529 255.303 23.6981 258.619 20.2998C261.945 16.8921 266.771 14.8604 272.772 14.8604ZM272.772 18.3564C276.046 18.3564 279.25 19.1214 281.682 21.1777C284.151 23.2666 285.597 26.4951 285.7 30.9355L285.736 32.4707H257.715L257.942 30.7715C258.431 27.1184 260.003 23.9851 262.587 21.7695C265.17 19.5547 268.648 18.3565 272.772 18.3564ZM272.772 21.3564C269.236 21.3565 266.489 22.3751 264.539 24.0469C262.97 25.3925 261.842 27.2267 261.25 29.4707H282.595C282.258 26.5606 281.171 24.676 279.744 23.4688C278.042 22.0288 275.628 21.3564 272.772 21.3564ZM256.588 33.4062C256.588 37.8156 257.943 41.6058 260.579 44.2881C263.207 46.9618 267.274 48.7012 273.028 48.7012C278.337 48.7011 282.301 47.3454 285.234 45.332L284.915 44.9492C282.081 46.8934 278.326 48.2675 273.348 48.2676C268.532 48.2676 264.707 46.7905 262.026 44.2402C259.353 41.6963 257.949 38.2082 257.74 34.4248L257.652 32.8428H287.001C287.139 28.4804 286.082 24.9012 284.006 22.3682C281.741 19.6052 278.077 17.8604 272.772 17.8604C267.474 17.8604 263.458 19.6377 260.767 22.3955C258.066 25.1629 256.588 29.0315 256.588 33.4062Z" fill="#111111"/>
<path d="M314.274 46.5166C312.167 45.705 310.443 44.2065 310.443 41.8338C310.443 38.9617 312.997 36.9012 315.742 35.5276C311.72 33.7794 309.933 30.6575 309.933 27.161C309.933 20.7299 315.87 16.3592 324.936 16.3592C328.256 16.3592 331.001 16.7963 333.236 17.608C335.151 13.7993 337.577 11.9886 342.748 12.1135L344.345 15.2353C339.429 15.1105 337.449 16.2344 335.853 18.9192C338.662 20.7299 340.067 23.4147 340.067 26.5366C340.067 32.4682 335.47 37.0886 324.744 37.0886C322.574 37.0886 320.722 36.9012 319.062 36.5891C315.87 37.9002 314.274 39.2114 314.274 41.147C314.274 43.7069 316.955 43.8318 320.595 43.8318H330.81C338.599 43.8318 343.387 46.3293 343.387 52.4482C343.387 59.0042 338.471 63.4997 324.106 63.4997C309.741 63.4997 307.379 59.5661 307.379 55.1955C307.379 51.137 310.188 48.6395 314.274 46.5166ZM324.042 60.2529C335.023 60.2529 339.556 57.8179 339.556 52.698C339.556 48.0776 335.151 47.2035 329.405 47.2035H318.552C314.146 49.4512 311.465 51.5117 311.465 54.5711C311.465 58.8169 315.423 60.2529 324.042 60.2529ZM324.808 33.8418C332.725 33.8418 335.917 30.7823 335.917 26.599C335.917 22.4157 332.47 19.606 324.936 19.606C318.232 19.606 314.083 22.6654 314.083 27.0985C314.083 30.8448 317.083 33.8418 324.808 33.8418Z" fill="#111111"/>
<path d="M338.057 52.6979C338.057 51.7901 337.844 51.1781 337.542 50.7389C337.235 50.2927 336.756 49.9081 336.034 49.5924C334.526 48.9325 332.268 48.7028 329.405 48.7027H318.92C316.902 49.749 315.4 50.6948 314.398 51.6617C313.386 52.6392 312.965 53.5524 312.965 54.5709C312.965 55.3906 313.152 55.9634 313.452 56.3971C313.758 56.8388 314.266 57.2604 315.114 57.6256C316.877 58.3842 319.75 58.7525 324.042 58.7526C329.481 58.7526 333.067 58.1393 335.248 57.0524C336.309 56.5238 336.985 55.9079 337.406 55.2389C337.825 54.5724 338.057 53.7499 338.057 52.6979ZM334.417 26.5983C334.417 24.9824 333.783 23.7083 332.408 22.774C330.954 21.786 328.552 21.1061 324.936 21.1061C321.791 21.1061 319.409 21.826 317.858 22.9166C316.348 23.9786 315.582 25.4102 315.582 27.0983C315.582 28.5196 316.125 29.7341 317.417 30.651C318.779 31.6174 321.106 32.3414 324.809 32.3414C328.609 32.3414 331.026 31.6012 332.455 30.5719C333.81 29.5956 334.417 28.2605 334.417 26.5983ZM341.83 13.6119C339.904 13.6606 338.569 14.0433 337.554 14.6647C336.613 15.2404 335.829 16.0932 335.093 17.3336C335.894 16.1998 336.872 15.2821 338.228 14.6598C339.281 14.1762 340.496 13.9035 341.921 13.7897L341.83 13.6119ZM341.057 52.6979C341.057 54.2054 340.72 55.6066 339.946 56.8365C339.174 58.0641 338.031 59.0177 336.586 59.7379C333.755 61.1484 329.584 61.7526 324.042 61.7526C319.715 61.7525 316.3 61.4022 313.929 60.3815C312.71 59.857 311.69 59.1237 310.984 58.1022C310.273 57.0726 309.965 55.8739 309.965 54.5709C309.965 52.53 310.885 50.8831 312.314 49.5035C312.403 49.4183 312.492 49.3324 312.585 49.2486C310.147 50.913 308.879 52.7389 308.879 55.1949C308.879 56.1596 309.011 56.9939 309.339 57.7174C309.658 58.4205 310.2 59.1047 311.165 59.7233C313.173 61.0106 316.988 61.9996 324.106 61.9996C331.183 61.9996 335.657 60.8827 338.322 59.1705C340.865 57.5369 341.887 55.281 341.887 52.4479C341.887 49.853 340.913 48.1972 339.211 47.108C337.395 45.946 334.592 45.3317 330.81 45.3317H320.595C318.839 45.3317 317.01 45.3133 315.623 44.8805C314.894 44.653 314.151 44.2731 313.596 43.6031C313.022 42.9108 312.774 42.0631 312.774 41.1471C312.774 40.3575 312.96 39.6455 313.296 39.0055C313.249 39.0523 313.202 39.0977 313.157 39.1451C312.356 39.9985 311.943 40.8821 311.943 41.8336C311.943 43.3002 312.963 44.4039 314.813 45.1168L317.397 46.1119C317.554 46.0304 317.711 45.948 317.87 45.8668L318.191 45.7027H329.405C332.289 45.7028 335.106 45.9112 337.236 46.8434C338.334 47.3237 339.316 48.0236 340.015 49.0406C340.718 50.0647 341.057 51.2956 341.057 52.6979ZM338.567 26.5358C338.567 23.9242 337.422 21.7139 335.041 20.1793L333.898 19.443L332.724 19.0172C330.694 18.2799 328.13 17.859 324.936 17.859C320.625 17.8591 317.21 18.9003 314.915 20.5631C312.656 22.1997 311.433 24.4626 311.433 27.1608C311.433 30.0507 312.858 32.6381 316.341 34.152L318.627 35.1451L318.903 35.0328L319.34 35.1149C320.904 35.4091 322.663 35.5885 324.744 35.5885C329.918 35.5885 333.383 34.4702 335.519 32.8434C337.603 31.2553 338.567 29.0758 338.567 26.5358ZM337.417 26.5983C337.417 29.1193 336.428 31.4062 334.208 33.0055C332.062 34.5516 328.924 35.3414 324.809 35.3414C320.786 35.3414 317.75 34.5667 315.681 33.0983C313.541 31.5801 312.582 29.4231 312.582 27.0983C312.582 24.3533 313.892 22.0385 316.133 20.4625C318.333 18.9154 321.377 18.1061 324.936 18.1061C328.853 18.1061 331.942 18.8301 334.095 20.2926C336.326 21.8088 337.417 24.0312 337.417 26.5983ZM341.567 26.5358C341.567 29.9273 340.232 33.025 337.337 35.2301C334.493 37.3962 330.296 38.5885 324.744 38.5885C322.677 38.5885 320.874 38.4228 319.238 38.1422C317.914 38.7124 317.034 39.2347 316.486 39.7379C315.941 40.2395 315.774 40.6701 315.774 41.1471C315.774 41.5105 315.862 41.6382 315.904 41.6891C315.965 41.7626 316.12 41.8935 316.517 42.0172C317.38 42.2867 318.711 42.3317 320.595 42.3317H330.81C334.816 42.3317 338.302 42.9651 340.828 44.5817C343.468 46.271 344.887 48.924 344.887 52.4479C344.887 56.1706 343.451 59.4409 339.944 61.694C336.56 63.8684 331.394 64.9996 324.106 64.9996C316.86 64.9996 312.31 64.0207 309.546 62.2486C308.125 61.3376 307.179 60.2191 306.606 58.9557C306.043 57.7125 305.879 56.4155 305.879 55.1949C305.879 51.1892 308.177 48.5402 311.267 46.524C309.935 45.4553 308.943 43.9276 308.943 41.8336C308.943 39.913 309.808 38.3297 310.97 37.0914C311.502 36.5244 312.11 36.0175 312.753 35.5621C309.828 33.4781 308.433 30.4647 308.433 27.1608C308.433 23.4279 310.178 20.2899 313.154 18.1334C316.094 16.0032 320.18 14.8591 324.936 14.859C327.818 14.859 330.339 15.1768 332.514 15.7994C333.421 14.2713 334.517 13.0061 335.988 12.1061C337.809 10.9919 340.025 10.5473 342.784 10.6139L343.678 10.6354L346.828 16.7985L344.307 16.735C341.939 16.6748 340.483 16.9254 339.479 17.3863C338.877 17.6633 338.378 18.0433 337.916 18.5836C340.33 20.6276 341.567 23.4056 341.567 26.5358Z" fill="#111111"/>
<path d="M354.241 2.49902V12.2393H350.41V2.49902H354.241ZM354.241 17.2968V49.3273H350.41V17.2968H354.241Z" fill="#111111"/>
<path d="M355.741 15.7969V50.8271H348.91V15.7969H355.741ZM351.91 47.8271H352.741V18.7969H351.91V47.8271ZM355.741 0.999023V13.7393H348.91V0.999023H355.741ZM351.91 10.7393H352.741V3.99902H351.91V10.7393Z" fill="#111111"/>
<path d="M377.861 44.3324L390.183 17.2969H394.461L379.266 49.3274H376.329L360.688 17.2969H365.093L377.861 44.3324Z" fill="#111111"/>
<path d="M366.044 15.7969L377.838 40.7676L389.22 15.7969H396.834L380.216 50.8271H375.394L358.287 15.7969H366.044ZM377.918 47.8271H378.319L392.09 18.7969H391.148L377.918 47.8271ZM377.267 47.8271H377.854L364.144 18.7969H363.09L377.267 47.8271Z" fill="#111111"/>
<path d="M415.011 16.3604C426.311 16.3604 431.546 23.8529 430.653 34.3424H401.476C401.859 41.273 406.584 46.7675 415.586 46.7675C420.948 46.7675 424.715 45.0817 427.397 42.8964L429.631 45.5812C426.311 48.3285 421.651 50.2016 415.266 50.2016C403.136 50.2016 397.326 42.8339 397.326 33.4058C397.326 23.9778 403.711 16.3604 415.011 16.3604ZM415.011 19.8569C407.35 19.8569 402.561 24.2899 401.668 30.9708H426.439C426.247 22.729 421.14 19.8569 415.011 19.8569Z" fill="#111111"/>
<path d="M415.011 14.8604C421.006 14.8604 425.61 16.8616 428.564 20.4668C431.494 24.0416 432.616 28.9668 432.147 34.4697L432.03 35.8428H403.151C403.571 38.3197 404.648 40.4642 406.333 42.0674C408.361 43.9968 411.399 45.2676 415.586 45.2676C420.602 45.2675 424.034 43.7015 426.449 41.7334L427.6 40.7959L431.746 45.7773L430.588 46.7373C426.972 49.7293 421.964 51.7011 415.267 51.7012C408.891 51.7012 403.987 49.7576 400.678 46.3906C397.377 43.0322 395.826 38.4247 395.826 33.4062C395.826 28.3529 397.541 23.6981 400.857 20.2998C404.183 16.8921 409.009 14.8604 415.011 14.8604ZM415.011 18.3564C418.284 18.3564 421.489 19.1214 423.92 21.1777C426.39 23.2666 427.835 26.4951 427.938 30.9355L427.975 32.4707H399.953L400.181 30.7715C400.669 27.1184 402.241 23.9851 404.825 21.7695C407.408 19.5547 410.886 18.3565 415.011 18.3564ZM415.011 21.3564C411.475 21.3565 408.727 22.3751 406.777 24.0469C405.208 25.3925 404.08 27.2267 403.488 29.4707H424.833C424.496 26.5606 423.41 24.676 421.982 23.4688C420.28 22.0288 417.866 21.3564 415.011 21.3564ZM398.826 33.4062C398.826 37.8156 400.181 41.6058 402.817 44.2881C405.445 46.9618 409.512 48.7012 415.267 48.7012C420.575 48.7011 424.539 47.3454 427.473 45.332L427.153 44.9492C424.319 46.8934 420.564 48.2675 415.586 48.2676C410.771 48.2676 406.945 46.7905 404.265 44.2402C401.591 41.6963 400.188 38.2082 399.979 34.4248L399.891 32.8428H429.239C429.377 28.4804 428.32 24.9012 426.244 22.3682C423.98 19.6052 420.316 17.8604 415.011 17.8604C409.712 17.8604 405.696 19.6377 403.005 22.3955C400.304 25.1629 398.826 29.0315 398.826 33.4062Z" fill="#111111"/>
<path d="M449.042 47.0173C454.468 47.0173 458.044 45.3314 458.044 40.4613C458.044 35.5912 453.128 34.6546 448.02 33.718C442.53 32.719 436.72 31.5327 436.72 25.3514C436.72 19.17 441.891 16.3604 449.169 16.3604C454.532 16.3604 458.746 17.8589 461.363 19.5447L460.023 22.4168C457.469 20.8559 454.468 19.4822 449.169 19.4822C443.36 19.4822 440.678 21.4178 440.678 25.0392C440.678 29.0976 445.083 29.9093 449.872 30.7835C455.681 31.8449 462.066 33.0937 462.066 40.2116C462.066 46.0807 458.171 50.2016 449.297 50.2016C444.381 50.2016 438.827 48.828 435.188 46.268L436.72 43.2086C440.04 45.269 444.381 47.0173 449.042 47.0173Z" fill="#111111"/>
<path d="M460.567 40.2119C460.567 38.6656 460.224 37.5307 459.697 36.6641C459.168 35.7926 458.397 35.099 457.402 34.5273C455.345 33.3452 452.568 32.8004 449.604 32.2588C447.276 31.8339 444.752 31.3832 442.83 30.457C441.841 29.9803 440.914 29.335 440.236 28.417C439.542 27.4768 439.18 26.3463 439.18 25.0391C439.18 22.7986 440.044 20.9092 441.911 19.6572C443.67 18.4775 446.148 17.9825 449.171 17.9824C453.842 17.9824 456.886 19.0031 459.353 20.3066L459.424 20.1543C457.024 18.9025 453.522 17.8604 449.171 17.8604C445.69 17.8604 442.912 18.5381 441.052 19.7842C439.273 20.9755 438.222 22.7517 438.222 25.3516C438.222 26.6502 438.523 27.5972 438.982 28.3232C439.447 29.058 440.135 29.6602 441.044 30.168C442.926 31.2187 445.492 31.733 448.291 32.2422H448.293C450.782 32.6985 453.53 33.1983 455.635 34.2803C456.718 34.8372 457.714 35.5866 458.435 36.6357C459.165 37.7001 459.546 38.9754 459.546 40.4609C459.546 43.3242 458.458 45.4729 456.401 46.8203C454.464 48.0896 451.86 48.5175 449.044 48.5176C444.674 48.5176 440.615 47.0957 437.347 45.3076L437.136 45.7285C440.441 47.6331 445.08 48.7011 449.299 48.7012C453.527 48.7012 456.324 47.7177 458.042 46.2627C459.724 44.8385 460.567 42.7973 460.567 40.2119ZM442.18 25.0391C442.18 25.7608 442.368 26.254 442.649 26.6348C442.947 27.0377 443.422 27.4111 444.133 27.7539C445.611 28.4664 447.682 28.8584 450.143 29.3076C452.988 29.8274 456.309 30.4388 458.896 31.9258C460.224 32.6887 461.413 33.7089 462.262 35.1064C463.114 36.5089 463.567 38.1997 463.567 40.2119C463.567 43.4952 462.464 46.4484 459.98 48.5518C457.533 50.6245 453.945 51.7012 449.299 51.7012C444.17 51.7011 438.287 50.2811 434.326 47.4951L433.27 46.752L436.116 41.0674L437.513 41.9336C440.679 43.8988 444.748 45.5176 449.044 45.5176C451.654 45.5175 453.551 45.1015 454.758 44.3105C455.846 43.5975 456.546 42.4676 456.546 40.4609C456.546 39.5119 456.311 38.844 455.961 38.334C455.6 37.8086 455.048 37.3512 454.264 36.9482C452.634 36.1104 450.37 35.6735 447.752 35.1934C445.061 34.7037 441.977 34.1251 439.582 32.7881C438.353 32.1018 437.244 31.1851 436.448 29.9277C435.647 28.6617 435.222 27.1431 435.222 25.3516C435.222 21.7701 436.756 19.0508 439.383 17.292C441.927 15.588 445.374 14.8604 449.171 14.8604C454.805 14.8604 459.304 16.4325 462.178 18.2832L463.278 18.9922L460.674 24.5723L459.242 23.6963C456.874 22.2485 454.14 20.9824 449.171 20.9824C446.385 20.9825 444.616 21.4551 443.582 22.1484C442.656 22.7695 442.18 23.6585 442.18 25.0391Z" fill="#111111"/>
<path d="M497.5 44.27L509.821 17.2969H513.971L492.903 62.252H488.753L495.457 48.266L480.262 17.2969H484.603L497.5 44.27Z" fill="#111111"/>
<path d="M485.55 15.7969L497.469 40.7275L508.858 15.7969H516.332L493.857 63.752H486.372L493.79 48.2725L477.855 15.7969H485.55ZM497.125 48.2588L491.137 60.752H491.95L511.613 18.7969H510.786L497.531 47.8125L483.658 18.7969H482.67L497.125 48.2588Z" fill="#111111"/>
<path d="M536.132 16.3604C548.454 16.3604 555.158 23.8529 555.158 33.0312C555.158 42.2096 548.135 50.2016 535.685 50.2016C523.236 50.2016 516.852 43.2086 516.852 33.5307C516.852 23.8529 523.491 16.3604 536.132 16.3604ZM535.941 46.83C544.751 46.83 551.008 41.5852 551.008 33.2185C551.008 24.8519 544.432 19.732 536.132 19.732C527.833 19.732 521.001 24.9768 521.001 33.5307C521.001 42.0847 527.514 46.83 535.941 46.83Z" fill="#111111"/>
<path d="M553.658 33.0312C553.658 28.8171 552.126 25.0587 549.239 22.3477C546.351 19.6351 541.986 17.8604 536.133 17.8604C530.11 17.8604 525.689 19.6403 522.785 22.4033C519.884 25.1639 518.352 29.0422 518.352 33.5303C518.352 38.0314 519.828 41.7755 522.626 44.4014C525.432 47.0347 529.737 48.7012 535.686 48.7012C541.581 48.7012 546.062 46.8154 549.058 43.9707C552.056 41.1228 553.658 37.2302 553.658 33.0312ZM549.508 33.2188C549.508 29.4594 548.045 26.5045 545.7 24.4707C543.334 22.4184 539.982 21.2325 536.133 21.2324C532.291 21.2324 528.872 22.4455 526.438 24.5566C524.024 26.6497 522.501 29.6847 522.501 33.5303C522.501 37.3925 523.955 40.2872 526.276 42.2402C528.629 44.219 531.995 45.33 535.94 45.3301C540.054 45.3301 543.445 44.1074 545.785 42.0381C548.106 39.9856 549.508 37.0028 549.508 33.2188ZM552.508 33.2188C552.508 37.8009 550.782 41.6237 547.772 44.2852C544.782 46.9299 540.637 48.3301 535.94 48.3301C531.459 48.33 527.356 47.0682 524.346 44.5361C521.305 41.978 519.501 38.222 519.501 33.5303C519.501 28.8223 521.395 24.9577 524.472 22.29C527.527 19.6405 531.675 18.2324 536.133 18.2324C540.583 18.2325 544.668 19.6059 547.665 22.2051C550.683 24.8229 552.508 28.6115 552.508 33.2188ZM556.658 33.0312C556.658 38.0105 554.748 42.7028 551.123 46.1455C547.495 49.5914 542.239 51.7012 535.686 51.7012C529.184 51.7012 524.072 49.8715 520.573 46.5889C517.067 43.2988 515.352 38.7067 515.352 33.5303C515.352 28.341 517.139 23.6344 520.718 20.2295C524.294 16.8269 529.514 14.8604 536.133 14.8604C542.601 14.8604 547.749 16.832 551.293 20.1602C554.838 23.4899 556.658 28.0672 556.658 33.0312Z" fill="#111111"/>
<path d="M566.651 17.2969V35.6536C566.651 44.0202 570.226 46.8299 577.249 46.8299C584.655 46.8299 589.06 41.273 589.06 34.8419V17.2969H592.891V49.3274H589.252V42.4593C587.719 47.2045 582.931 50.2015 576.228 50.2015C567.481 50.2015 562.82 45.6436 562.82 36.5277V17.2969H566.651Z" fill="#111111"/>
<path d="M565.151 18.7969H564.32V36.5273L564.333 37.3213C564.461 41.2137 565.541 43.9424 567.31 45.7275C569.194 47.6292 572.101 48.7012 576.228 48.7012C580.114 48.7012 583.144 47.6396 585.191 45.8984C583.086 47.4181 580.41 48.3301 577.249 48.3301C573.585 48.3301 570.45 47.6053 568.263 45.4473C566.074 43.2876 565.151 40.0053 565.151 35.6533V18.7969ZM568.151 35.6533C568.151 39.668 569.015 41.9747 570.37 43.3115C571.726 44.6499 573.89 45.3301 577.249 45.3301C583.717 45.3301 587.561 40.5579 587.561 34.8418V15.7969H594.391V50.8271H587.752V47.6299C585.054 50.2534 581 51.7012 576.228 51.7012C571.607 51.7012 567.811 50.495 565.179 47.8389C562.713 45.3508 561.479 41.803 561.335 37.416L561.32 36.5273V15.7969H568.151V35.6533ZM590.561 34.8418C590.561 37.4698 589.887 39.988 588.622 42.123L590.752 42.459V47.8271H591.391V18.7969H590.561V34.8418Z" fill="#111111"/>
<path d="M15.4063 117.359C20.9528 117.359 24.6505 119.135 26.6269 121.547V117.739C26.6269 110.251 23.1204 107.078 16.1076 107.078C12.2824 107.078 9.1585 107.586 5.84333 108.665L6.35338 105.174C8.71225 104.222 12.3462 103.588 16.6176 103.588C27.0732 103.588 30.4521 109.743 30.4521 116.724V137.094H26.6269V133.16C24.523 136.016 20.8253 137.983 14.705 137.983C7.37342 137.983 1.89062 134.683 1.89062 127.766C1.89062 120.341 7.94719 117.359 15.4063 117.359ZM15.9801 134.556C22.6104 134.556 26.6906 131.891 26.6906 127.829V127.068C26.6906 123.895 22.8654 120.468 15.9801 120.468C9.98729 120.468 6.03461 122.753 6.03461 127.639C6.03461 132.779 10.4336 134.556 15.9801 134.556Z" fill="#111111"/>
<path d="M4.53418 127.639C4.53425 124.724 5.74773 122.456 7.91602 120.98C10.0008 119.562 12.8301 118.968 15.9805 118.968C17.5002 118.968 18.9016 119.126 20.1729 119.412C18.8198 119.063 17.2371 118.858 15.4062 118.858C11.8413 118.858 8.80172 119.577 6.69824 121.016C4.67572 122.399 3.39069 124.53 3.39062 127.766C3.39062 130.774 4.55562 132.87 6.43945 134.262C8.38429 135.698 11.2365 136.482 14.7051 136.482C17.3455 136.482 19.4436 136.097 21.1113 135.454C19.5777 135.852 17.8515 136.056 15.9805 136.056C13.0921 136.056 10.2842 135.601 8.15039 134.308C5.9056 132.947 4.53418 130.73 4.53418 127.639ZM7.53418 127.639C7.53418 129.688 8.36376 130.929 9.70508 131.742C11.1574 132.622 13.3225 133.056 15.9805 133.056C19.1212 133.056 21.488 132.42 23.0176 131.449C24.4966 130.51 25.1904 129.275 25.1904 127.829V127.067C25.1903 126.107 24.5991 124.87 23.0654 123.812C21.5472 122.765 19.183 121.968 15.9805 121.968C13.1381 121.968 10.9933 122.515 9.60352 123.461C8.2974 124.35 7.53425 125.667 7.53418 127.639ZM28.127 125.743L27.9834 125.567C28.1173 126.056 28.1904 126.557 28.1904 127.067V127.829C28.1904 128.161 28.1692 128.484 28.127 128.8V135.595H28.9521V116.724C28.9521 113.45 28.1579 110.578 26.3369 108.537C24.5445 106.528 21.5442 105.088 16.6172 105.088C12.9479 105.088 9.84513 105.573 7.70801 106.276L7.66406 106.577C10.3345 105.901 13.0093 105.578 16.1074 105.578C19.8084 105.578 22.9011 106.413 25.0508 108.533C27.2039 110.657 28.1269 113.79 28.127 117.739V125.743ZM31.9521 138.595H25.127V136.698C22.6392 138.456 19.2229 139.482 14.7051 139.482C10.842 139.482 7.28668 138.617 4.65723 136.675C1.96688 134.687 0.390625 131.674 0.390625 127.766C0.39069 123.577 2.13368 120.504 5.00391 118.54C7.79346 116.632 11.5122 115.858 15.4062 115.858C19.4684 115.858 22.7291 116.765 25.127 118.275V117.739C25.1269 114.201 24.2964 112.003 22.9434 110.669C21.5866 109.331 19.4193 108.578 16.1074 108.578C12.4356 108.578 9.46868 109.062 6.30762 110.091L4.00977 110.839L4.99316 104.105L5.79199 103.783C8.38668 102.736 12.2272 102.088 16.6172 102.088C22.1457 102.088 26.0642 103.726 28.5752 106.54C31.0569 109.322 31.9521 113.017 31.9521 116.724V138.595Z" fill="#111111"/>
<path d="M58.7585 104.54V95.1481L62.5837 93.8789V104.54H76.0994V107.967H62.5837V126.37C62.5837 132.081 64.05 134.937 69.469 134.937C73.103 134.937 75.1431 133.795 77.3745 132.399L78.9683 135.254C76.6732 137.095 73.1667 138.364 69.2778 138.364C60.3523 138.364 58.7585 132.779 58.7585 127.005V107.967H51.1719V104.54H58.7585Z" fill="#111111"/>
<path d="M61.084 126.37V106.467H74.5996V106.04H61.084V95.9561L60.2588 96.2295V106.04H52.6719V106.467H60.2588V127.005C60.2588 129.814 60.6601 132.255 61.8916 133.978C63.0467 135.593 65.1488 136.864 69.2773 136.864C72.2984 136.864 75.0199 136.027 76.999 134.805L76.8193 134.482C74.8906 135.578 72.7415 136.438 69.4688 136.438C66.5055 136.437 64.2201 135.646 62.7832 133.681C61.4372 131.84 61.084 129.271 61.084 126.37ZM64.084 126.37C64.084 129.18 64.4633 130.896 65.2051 131.91C65.856 132.8 67.0135 133.437 69.4688 133.438C72.6859 133.438 74.437 132.467 76.5791 131.127L77.916 130.291L80.8965 135.631L79.9062 136.425C77.3166 138.501 73.4691 139.864 69.2773 139.864C64.4812 139.864 61.3243 138.342 59.4512 135.722C57.6546 133.209 57.2588 129.97 57.2588 127.005V109.467H49.6719V103.04H57.2588V94.0654L64.084 91.8008V103.04H77.5996V109.467H64.084V126.37Z" fill="#111111"/>
<path d="M96.629 117.359C102.175 117.359 105.873 119.135 107.85 121.547V117.739C107.85 110.251 104.343 107.078 97.3302 107.078C93.5051 107.078 90.3812 107.586 87.066 108.665L87.576 105.174C89.9349 104.222 93.5688 103.588 97.8402 103.588C108.296 103.588 111.675 109.743 111.675 116.724V137.094H107.85V133.16C105.746 136.016 102.048 137.983 95.9276 137.983C88.596 137.983 83.1133 134.683 83.1133 127.766C83.1133 120.341 89.1698 117.359 96.629 117.359ZM97.2027 134.556C103.833 134.556 107.913 131.891 107.913 127.829V127.068C107.913 123.895 104.088 120.468 97.2027 120.468C91.2099 120.468 87.2572 122.753 87.2572 127.639C87.2572 132.779 91.6562 134.556 97.2027 134.556Z" fill="#111111"/>
<path d="M85.7568 127.639C85.7569 124.724 86.9704 122.456 89.1387 120.98C91.2235 119.562 94.0527 118.968 97.2031 118.968C98.7228 118.968 100.124 119.126 101.396 119.412C100.042 119.063 98.4597 118.858 96.6289 118.858C93.064 118.858 90.0244 119.577 87.9209 121.016C85.8984 122.399 84.6133 124.53 84.6133 127.766C84.6133 130.774 85.7783 132.87 87.6621 134.262C89.6069 135.698 92.4592 136.482 95.9277 136.482C98.5681 136.482 100.666 136.097 102.334 135.454C100.8 135.852 99.0742 136.056 97.2031 136.056C94.3148 136.056 91.5068 135.601 89.373 134.308C87.1282 132.947 85.7568 130.73 85.7568 127.639ZM88.7568 127.639C88.7568 129.688 89.5864 130.929 90.9277 131.742C92.38 132.622 94.5451 133.056 97.2031 133.056C100.344 133.056 102.711 132.42 104.24 131.449C105.719 130.51 106.413 129.275 106.413 127.829V127.067C106.413 126.107 105.822 124.87 104.288 123.812C102.77 122.765 100.406 121.968 97.2031 121.968C94.3607 121.968 92.2159 122.515 90.8262 123.461C89.52 124.35 88.7569 125.667 88.7568 127.639ZM109.35 125.743L109.206 125.567C109.34 126.056 109.413 126.557 109.413 127.067V127.829C109.413 128.161 109.392 128.484 109.35 128.8V135.595H110.175V116.724C110.175 113.45 109.38 110.578 107.559 108.537C105.766 106.528 102.767 105.088 97.8398 105.088C94.1706 105.088 91.0678 105.573 88.9307 106.276L88.8867 106.577C91.5571 105.901 94.2319 105.578 97.3301 105.578C101.031 105.578 104.124 106.413 106.273 108.533C108.427 110.657 109.35 113.79 109.35 117.739V125.743ZM113.175 138.595H106.35V136.698C103.862 138.456 100.446 139.482 95.9277 139.482C92.0647 139.482 88.5093 138.617 85.8799 136.675C83.1895 134.687 81.6133 131.674 81.6133 127.766C81.6133 123.577 83.3563 120.504 86.2266 118.54C89.0161 116.632 92.7348 115.858 96.6289 115.858C100.691 115.858 103.952 116.765 106.35 118.275V117.739C106.35 114.201 105.519 112.003 104.166 110.669C102.809 109.331 100.642 108.578 97.3301 108.578C93.6583 108.578 90.6913 109.062 87.5303 110.091L85.2324 110.839L86.2158 104.105L87.0146 103.783C89.6093 102.736 93.4499 102.088 97.8398 102.088C103.368 102.088 107.287 103.726 109.798 106.54C112.28 109.322 113.175 113.017 113.175 116.724V138.595Z" fill="#111111"/>
<path d="M126.464 104.54V111.52C127.994 106.888 132.648 103.588 139.661 103.588C148.076 103.588 153.495 108.284 153.495 117.549V137.094H149.67V118.437C149.67 109.934 145.463 107.015 139.023 107.015C131.054 107.015 126.655 112.726 126.655 119.262V137.094H122.83V104.54H126.464Z" fill="#111111"/>
<path d="M125.155 119.263C125.155 116.615 125.812 114.053 127.108 111.865L124.964 111.521V106.04H124.33V135.595H125.155V119.263ZM151.995 117.549C151.995 113.21 150.734 110.151 148.69 108.171C146.639 106.183 143.598 105.088 139.661 105.088C135.403 105.088 132.238 106.375 130.195 108.345C132.479 106.563 135.464 105.515 139.023 105.515C142.44 105.515 145.555 106.286 147.804 108.458C150.062 110.638 151.17 113.96 151.17 118.438V135.595H151.995V117.549ZM154.995 138.595H148.17V118.438C148.17 114.412 147.175 112.021 145.72 110.616C144.255 109.202 142.046 108.515 139.023 108.515C135.42 108.515 132.736 109.795 130.947 111.711C129.142 113.645 128.155 116.326 128.155 119.263V138.595H121.33V103.04H127.964V106.326C130.631 103.674 134.669 102.088 139.661 102.088C144.139 102.088 148.016 103.341 150.777 106.017C153.547 108.701 154.995 112.623 154.995 117.549V138.595Z" fill="#111111"/>
<path d="M167.714 134.239C165.61 133.414 163.888 131.891 163.888 129.479C163.888 126.56 166.438 124.466 169.18 123.07C165.163 121.293 163.378 118.12 163.378 114.566C163.378 108.03 169.307 103.588 178.36 103.588C181.675 103.588 184.417 104.032 186.648 104.857C188.561 100.986 190.983 99.1458 196.147 99.2727L197.741 102.446C192.832 102.319 190.856 103.461 189.262 106.19C192.067 108.03 193.47 110.759 193.47 113.932C193.47 119.96 188.88 124.656 178.169 124.656C176.001 124.656 174.153 124.466 172.495 124.149C169.307 125.481 167.714 126.814 167.714 128.781C167.714 131.383 170.391 131.51 174.025 131.51H184.226C192.003 131.51 196.785 134.048 196.785 140.267C196.785 146.931 191.876 151.5 177.532 151.5C163.187 151.5 160.828 147.502 160.828 143.06C160.828 138.935 163.633 136.396 167.714 134.239ZM177.468 148.2C188.433 148.2 192.96 145.725 192.96 140.521C192.96 135.825 188.561 134.937 182.823 134.937H171.985C167.586 137.221 164.908 139.316 164.908 142.425C164.908 146.74 168.861 148.2 177.468 148.2ZM178.233 121.357C186.138 121.357 189.326 118.247 189.326 113.995C189.326 109.744 185.883 106.888 178.36 106.888C171.666 106.888 167.522 109.997 167.522 114.503C167.522 118.311 170.519 121.357 178.233 121.357Z" fill="#111111"/>
<path d="M191.46 140.521C191.46 139.59 191.245 138.959 190.939 138.507C190.63 138.049 190.15 137.657 189.433 137.338C187.931 136.669 185.68 136.437 182.823 136.437H172.358C170.347 137.499 168.849 138.459 167.849 139.441C166.837 140.435 166.408 141.372 166.408 142.425C166.408 143.267 166.598 143.858 166.901 144.305C167.209 144.758 167.718 145.187 168.562 145.557C170.318 146.326 173.183 146.7 177.468 146.7C182.898 146.7 186.473 146.077 188.647 144.975C189.704 144.439 190.381 143.813 190.805 143.128C191.227 142.444 191.46 141.599 191.46 140.521ZM187.826 113.995C187.826 112.334 187.184 111.031 185.811 110.081C184.361 109.079 181.967 108.388 178.36 108.388C175.226 108.388 172.85 109.118 171.304 110.226C169.797 111.304 169.022 112.767 169.022 114.503C169.022 115.966 169.572 117.209 170.863 118.142C172.221 119.122 174.54 119.856 178.232 119.856C182.023 119.856 184.432 119.105 185.856 118.061C187.211 117.067 187.826 115.702 187.826 113.995ZM195.221 100.772C193.307 100.823 191.981 101.21 190.972 101.839C189.994 102.447 189.185 103.362 188.422 104.71C189.234 103.512 190.227 102.54 191.623 101.888C192.682 101.393 193.903 101.115 195.336 101L195.221 100.772ZM194.46 140.521C194.46 142.045 194.126 143.461 193.357 144.705C192.589 145.948 191.45 146.916 190.004 147.649C187.173 149.085 183.003 149.7 177.468 149.7C173.146 149.7 169.731 149.344 167.358 148.305C166.139 147.77 165.122 147.024 164.42 145.99C163.713 144.95 163.408 143.74 163.408 142.425C163.408 140.369 164.319 138.704 165.746 137.302C165.893 137.158 166.045 137.015 166.204 136.875C163.663 138.596 162.328 140.486 162.328 143.06C162.328 144.045 162.46 144.899 162.791 145.642C163.113 146.363 163.658 147.061 164.62 147.689C166.622 148.996 170.426 150 177.531 150C184.595 150 189.059 148.865 191.717 147.127C194.256 145.467 195.285 143.166 195.285 140.268C195.285 137.611 194.302 135.92 192.604 134.813C190.794 133.634 187.999 133.01 184.226 133.01H174.025C172.273 133.01 170.442 132.992 169.053 132.551C168.321 132.318 167.578 131.931 167.025 131.253C166.456 130.554 166.214 129.702 166.214 128.781C166.214 127.963 166.408 127.226 166.763 126.563C166.711 126.616 166.658 126.667 166.608 126.721C165.808 127.589 165.389 128.496 165.389 129.479C165.389 131 166.426 132.123 168.261 132.843L170.831 133.85C170.984 133.768 171.138 133.686 171.294 133.605L171.619 133.437H182.823C185.703 133.437 188.521 133.648 190.653 134.598C191.753 135.087 192.731 135.799 193.426 136.828C194.124 137.863 194.46 139.105 194.46 140.521ZM191.97 113.932C191.97 111.257 190.816 109.003 188.439 107.444L187.303 106.698L186.128 106.264C184.104 105.515 181.547 105.088 178.36 105.088C174.062 105.088 170.655 106.144 168.364 107.833C166.109 109.496 164.878 111.804 164.878 114.566C164.878 117.529 166.316 120.163 169.787 121.698L172.061 122.704L172.333 122.591L172.777 122.676C174.338 122.974 176.092 123.156 178.169 123.156C183.33 123.156 186.786 122.022 188.917 120.369C191 118.754 191.97 116.53 191.97 113.932ZM190.826 113.995C190.826 116.54 189.847 118.856 187.631 120.48C185.485 122.053 182.347 122.856 178.232 122.856C174.211 122.856 171.175 122.067 169.106 120.573C166.971 119.031 166.022 116.847 166.022 114.503C166.022 111.733 167.319 109.389 169.558 107.786C171.756 106.212 174.801 105.388 178.36 105.388C182.276 105.388 185.366 106.125 187.518 107.613C189.746 109.154 190.826 111.405 190.826 113.995ZM194.97 113.932C194.97 117.361 193.644 120.5 190.755 122.74C187.913 124.943 183.718 126.156 178.169 126.156C176.107 126.156 174.308 125.989 172.675 125.704C171.357 126.282 170.48 126.811 169.934 127.322C169.388 127.833 169.214 128.279 169.214 128.781C169.214 129.161 169.305 129.3 169.352 129.357C169.414 129.435 169.569 129.567 169.961 129.691C170.819 129.964 172.144 130.01 174.025 130.01H184.226C188.23 130.01 191.715 130.655 194.24 132.3C196.876 134.017 198.285 136.705 198.285 140.268C198.285 144.032 196.86 147.348 193.358 149.638C189.976 151.85 184.812 153 177.531 153C170.293 153 165.745 152.005 162.981 150.202C161.561 149.276 160.62 148.14 160.051 146.863C159.491 145.607 159.328 144.295 159.328 143.06C159.328 138.994 161.63 136.303 164.735 134.25C163.389 133.164 162.389 131.609 162.389 129.479C162.389 127.544 163.244 125.944 164.403 124.687C164.945 124.099 165.565 123.575 166.221 123.105C163.274 120.987 161.878 117.919 161.878 114.566C161.878 110.792 163.611 107.611 166.584 105.419C169.521 103.253 173.606 102.088 178.36 102.088C181.235 102.088 183.749 102.41 185.92 103.041C186.824 101.491 187.917 100.207 189.386 99.292C191.093 98.2289 193.149 97.7647 195.673 97.7666L196.185 97.7734L197.084 97.7949L197.487 98.5996L200.205 104.01L197.702 103.945C195.341 103.884 193.892 104.139 192.894 104.605C192.282 104.891 191.777 105.287 191.308 105.854C193.734 107.932 194.97 110.756 194.97 113.932Z" fill="#111111"/>
<path d="M217.953 103.588C229.237 103.588 234.465 111.203 233.572 121.864H204.437C204.819 128.908 209.537 134.493 218.526 134.493C223.882 134.493 227.643 132.779 230.321 130.558L232.552 133.287C229.237 136.079 224.583 137.983 218.208 137.983C206.094 137.983 200.293 130.495 200.293 120.912C200.293 111.33 206.668 103.588 217.953 103.588ZM217.953 107.142C210.302 107.142 205.521 111.647 204.628 118.437H229.364C229.173 110.061 224.073 107.142 217.953 107.142Z" fill="#111111"/>
<path d="M217.952 102.088C223.949 102.088 228.549 104.126 231.497 107.787C234.417 111.413 235.534 116.407 235.066 121.989L234.952 123.364H206.108C206.525 125.905 207.605 128.103 209.298 129.742C211.324 131.704 214.354 132.992 218.526 132.992C223.528 132.992 226.951 131.404 229.363 129.403L230.525 128.439L234.649 133.481L233.519 134.435C229.908 137.475 224.903 139.482 218.208 139.482C211.834 139.482 206.932 137.504 203.629 134.083C200.337 130.674 198.793 126 198.793 120.912C198.793 115.789 200.5 111.068 203.809 107.618C207.128 104.156 211.951 102.088 217.952 102.088ZM217.952 105.642C221.227 105.642 224.432 106.421 226.86 108.512C229.323 110.632 230.762 113.904 230.864 118.403L230.899 119.938H202.918L203.141 118.242C203.627 114.541 205.191 111.363 207.77 109.113C210.349 106.862 213.826 105.642 217.952 105.642ZM217.952 108.642C214.428 108.642 211.689 109.674 209.742 111.373C208.165 112.75 207.031 114.632 206.44 116.938H227.762C227.428 113.951 226.336 112.019 224.903 110.785C223.204 109.322 220.798 108.642 217.952 108.642ZM201.793 120.912C201.793 125.406 203.15 129.268 205.787 131.999C208.413 134.718 212.47 136.482 218.208 136.482C223.519 136.482 227.482 135.098 230.413 133.041L230.075 132.627C227.246 134.598 223.496 135.992 218.526 135.992C213.71 135.992 209.887 134.489 207.211 131.897C204.544 129.315 203.148 125.778 202.939 121.945L202.854 120.364H232.157C232.299 115.91 231.242 112.254 229.16 109.669C226.896 106.857 223.24 105.088 217.952 105.088C212.67 105.088 208.663 106.891 205.974 109.695C203.273 112.512 201.793 116.453 201.793 120.912Z" fill="#111111"/>
<path d="M245.304 104.54V111.838C246.834 106.697 251.488 103.651 258.501 103.651C259.967 103.651 261.37 103.778 262.645 104.286L263.091 108.157C261.561 107.459 259.712 107.205 257.608 107.205C250.213 107.205 245.495 113.043 245.495 119.58V137.094H241.67V104.54H245.304Z" fill="#111111"/>
<path d="M243.995 119.58C243.995 116.924 244.703 114.352 246.011 112.159L243.804 111.838V106.04H243.17V135.595H243.995V119.58ZM258.501 105.151C253.463 105.151 249.986 106.799 248.061 109.523C250.401 107.19 253.663 105.705 257.608 105.705C258.9 105.705 260.154 105.796 261.336 106.037L261.265 105.419C260.449 105.22 259.536 105.151 258.501 105.151ZM246.995 138.595H240.17V103.04H246.804V106.351C249.48 103.616 253.53 102.151 258.501 102.151C260.034 102.151 261.661 102.28 263.199 102.893L264.032 103.224L264.886 110.624L262.469 109.521C261.218 108.951 259.614 108.705 257.608 108.705C251.151 108.705 246.995 113.759 246.995 119.58V138.595Z" fill="#111111"/>
<path d="M273.927 89.5V99.3996H270.102V89.5H273.927ZM273.927 104.54V137.094H270.102V104.54H273.927Z" fill="#111111"/>
<path d="M275.427 103.04V138.595H268.602V103.04H275.427ZM271.602 135.595H272.427V106.04H271.602V135.595ZM275.427 88V100.899H268.602V88H275.427ZM271.602 97.8994H272.427V91H271.602V97.8994Z" fill="#111111"/>
<path d="M289.417 104.54V111.52C290.947 106.888 295.601 103.588 302.614 103.588C311.029 103.588 316.449 108.284 316.449 117.549V137.094H312.623V118.437C312.623 109.934 308.416 107.015 301.976 107.015C294.007 107.015 289.608 112.726 289.608 119.262V137.094H285.783V104.54H289.417Z" fill="#111111"/>
<path d="M288.108 119.263C288.108 116.615 288.765 114.053 290.062 111.865L287.917 111.521V106.04H287.283V135.595H288.108V119.263ZM314.948 117.549C314.948 113.21 313.687 110.151 311.644 108.171C309.592 106.183 306.551 105.088 302.614 105.088C298.357 105.088 295.191 106.375 293.148 108.345C295.432 106.563 298.417 105.515 301.977 105.515C305.393 105.515 308.508 106.286 310.757 108.458C313.015 110.638 314.123 113.96 314.123 118.438V135.595H314.948V117.549ZM317.948 138.595H311.123V118.438C311.123 114.412 310.128 112.021 308.673 110.616C307.208 109.202 304.999 108.515 301.977 108.515C298.373 108.515 295.69 109.795 293.9 111.711C292.095 113.645 291.108 116.326 291.108 119.263V138.595H284.283V103.04H290.917V106.326C293.584 103.674 297.622 102.088 302.614 102.088C307.092 102.088 310.969 103.341 313.73 106.017C316.501 108.701 317.948 112.623 317.948 117.549V138.595Z" fill="#111111"/>
<path d="M342.072 103.588C353.356 103.588 358.584 111.203 357.691 121.864H328.556C328.939 128.908 333.656 134.493 342.646 134.493C348.001 134.493 351.762 132.779 354.44 130.558L356.671 133.287C353.356 136.079 348.702 137.983 342.327 137.983C330.214 137.983 324.412 130.495 324.412 120.912C324.412 111.33 330.787 103.588 342.072 103.588ZM342.072 107.142C334.421 107.142 329.64 111.647 328.747 118.437H353.484C353.292 110.061 348.192 107.142 342.072 107.142Z" fill="#111111"/>
<path d="M342.071 102.088C348.068 102.088 352.668 104.126 355.616 107.787C358.536 111.413 359.653 116.407 359.186 121.989L359.071 123.364H330.228C330.644 125.905 331.724 128.103 333.417 129.742C335.443 131.704 338.473 132.992 342.646 132.992C347.647 132.992 351.071 131.404 353.482 129.403L354.645 128.439L358.769 133.481L357.638 134.435C354.027 137.475 349.022 139.482 342.327 139.482C335.953 139.482 331.052 137.504 327.748 134.083C324.456 130.674 322.912 126 322.912 120.912C322.912 115.789 324.62 111.068 327.928 107.618C331.247 104.156 336.07 102.088 342.071 102.088ZM342.071 105.642C345.346 105.642 348.551 106.421 350.979 108.512C353.442 110.632 354.881 113.904 354.983 118.403L355.019 119.938H327.037L327.26 118.242C327.746 114.541 329.311 111.363 331.889 109.113C334.468 106.862 337.945 105.642 342.071 105.642ZM342.071 108.642C338.547 108.642 335.808 109.674 333.861 111.373C332.284 112.75 331.15 114.632 330.56 116.938H351.881C351.547 113.951 350.456 112.019 349.022 110.785C347.323 109.322 344.917 108.642 342.071 108.642ZM325.912 120.912C325.912 125.406 327.269 129.268 329.906 131.999C332.532 134.718 336.589 136.482 342.327 136.482C347.638 136.482 351.601 135.098 354.532 133.041L354.194 132.627C351.365 134.598 347.616 135.992 342.646 135.992C337.829 135.992 334.006 134.489 331.33 131.897C328.663 129.315 327.267 125.778 327.059 121.945L326.973 120.364H356.276C356.418 115.91 355.361 112.254 353.279 109.669C351.015 106.857 347.359 105.088 342.071 105.088C336.789 105.088 332.782 106.891 330.093 109.695C327.392 112.512 325.912 116.453 325.912 120.912Z" fill="#111111"/>
<path d="M363.045 137.095V127.386H367.89V136.524L365.277 145.852H362.535L364.83 137.095H363.045Z" fill="#111111"/>
<path d="M369.391 125.886V136.73L366.414 147.353H360.592L362.887 138.595H361.545V125.886H369.391ZM364.545 135.595H366.391V128.886H364.545V135.595Z" fill="#111111"/>
<path d="M37.9243 180.672V184.479H21.9802V225.093H17.8347V184.479H1.89062V180.672H37.9243Z" fill="#111111"/>
<path d="M39.4238 179.172V185.979H23.4805V226.594H16.335V185.979H0.390625V179.172H39.4238ZM3.39062 182.979H19.335V223.594H20.4805V182.979H36.4238V182.172H3.39062V182.979Z" fill="#111111"/>
<path d="M54.9522 205.358C60.5008 205.358 64.1998 207.134 66.1769 209.546V205.738C66.1769 198.25 62.6692 195.077 55.6538 195.077C51.8272 195.077 48.7021 195.585 45.3858 196.664L45.896 193.173C48.2557 192.222 51.891 191.587 56.164 191.587C66.6233 191.587 70.0035 197.742 70.0035 204.723V225.093H66.1769V221.159C64.0723 224.015 60.3732 225.982 54.2507 225.982C46.9164 225.982 41.4316 222.682 41.4316 215.765C41.4316 208.34 47.4904 205.358 54.9522 205.358ZM55.5262 222.555C62.159 222.555 66.2407 219.89 66.2407 215.828V215.067C66.2407 211.894 62.4141 208.467 55.5262 208.467C49.5313 208.467 45.5771 210.752 45.5771 215.638C45.5771 220.778 49.9777 222.555 55.5262 222.555Z" fill="#111111"/>
<path d="M44.0771 215.638C44.0772 212.723 45.291 210.455 47.46 208.979C49.5454 207.561 52.375 206.967 55.5264 206.967C57.0468 206.967 58.4489 207.125 59.7207 207.411C58.3671 207.062 56.7837 206.857 54.9521 206.857C51.3857 206.857 48.3446 207.576 46.2402 209.015C44.2168 210.398 42.9317 212.529 42.9316 215.765C42.9316 218.773 44.0968 220.869 45.9814 222.261C47.9271 223.698 50.781 224.481 54.251 224.481C56.8941 224.481 58.9941 224.096 60.6631 223.452C59.1279 223.851 57.3998 224.055 55.5264 224.055C52.637 224.055 49.8278 223.6 47.6934 222.307C45.4482 220.946 44.0771 218.729 44.0771 215.638ZM47.0771 215.638C47.0771 217.687 47.9061 218.928 49.248 219.741C50.701 220.622 52.8672 221.055 55.5264 221.055C58.6683 221.055 61.036 220.42 62.5664 219.448C64.0462 218.509 64.7402 217.274 64.7402 215.828V215.066C64.7401 214.106 64.1496 212.87 62.6152 211.812C61.0963 210.764 58.7306 209.967 55.5264 209.967C52.6828 209.967 50.5379 210.515 49.1475 211.461C47.8407 212.35 47.0772 213.666 47.0771 215.638ZM67.6768 213.741L67.5322 213.565C67.6664 214.054 67.7402 214.556 67.7402 215.066V215.828C67.7402 216.16 67.7191 216.483 67.6768 216.799V223.594H68.5039V204.723C68.5039 201.449 67.7086 198.577 65.8867 196.536C64.0936 194.527 61.093 193.087 56.1641 193.087C52.4926 193.087 49.3882 193.572 47.25 194.276L47.2061 194.576C49.8777 193.9 52.5538 193.577 55.6533 193.577C59.3554 193.577 62.4493 194.411 64.5996 196.531C66.7537 198.655 67.6768 201.788 67.6768 205.738V213.741ZM71.5039 226.594H64.6768V224.697C62.1882 226.455 58.7705 227.481 54.251 227.481C50.3868 227.481 46.8304 226.616 44.2002 224.674C41.509 222.686 39.9316 219.673 39.9316 215.765C39.9317 211.576 41.6757 208.503 44.5469 206.539C47.3373 204.631 51.0568 203.857 54.9521 203.857C59.016 203.857 62.2781 204.764 64.6768 206.274V205.738C64.6768 202.2 63.8466 200.003 62.4932 198.668C61.1358 197.33 58.9666 196.577 55.6533 196.577C51.9802 196.577 49.0119 197.061 45.8496 198.09L43.5518 198.838L44.5361 192.104L45.335 191.782C47.9305 190.735 51.7725 190.087 56.1641 190.087C61.6941 190.087 65.6132 191.724 68.125 194.538C70.6079 197.32 71.5039 201.016 71.5039 204.723V226.594Z" fill="#111111"/>
<path d="M85.311 177.499V225.093H81.4844V177.499H85.311Z" fill="#111111"/>
<path d="M86.8105 175.999V226.594H79.9844V175.999H86.8105ZM82.9844 223.594H83.8105V178.999H82.9844V223.594Z" fill="#111111"/>
<path d="M100.934 177.499V205.548L108.396 204.596L120.003 192.539H124.723L111.393 206.436L127.465 225.093H122.746L107.886 208.086L100.934 208.911V225.093H97.1074V177.499H100.934Z" fill="#111111"/>
<path d="M102.434 175.999V203.845L107.681 203.175L119.365 191.039H128.239L113.42 206.489L130.737 226.594H122.064L107.276 209.669L102.434 210.244V226.594H95.6074V175.999H102.434ZM98.6074 223.594H99.4336V207.579L108.494 206.504L123.427 223.594H124.193L109.367 206.382L121.205 194.039H120.642L109.11 206.018L99.4336 207.252V178.999H98.6074V223.594Z" fill="#111111"/>
<path d="M152.659 180.672V200.154H179.573V180.672H183.718V225.093H179.573V203.834H152.659V225.093H148.514V180.672H152.659Z" fill="#111111"/>
<path d="M154.159 179.172V198.654H178.072V179.172H185.218V226.594H178.072V205.335H154.159V226.594H147.014V179.172H154.159ZM150.014 223.594H151.159V202.335H181.072V223.594H182.218V182.172H181.072V201.654H151.159V182.172H150.014V223.594Z" fill="#111111"/>
<path d="M206.485 205.358C212.034 205.358 215.733 207.134 217.71 209.546V205.738C217.71 198.25 214.202 195.077 207.187 195.077C203.36 195.077 200.235 195.585 196.919 196.664L197.429 193.173C199.789 192.222 203.424 191.587 207.697 191.587C218.157 191.587 221.537 197.742 221.537 204.723V225.093H217.71V221.159C215.605 224.015 211.906 225.982 205.784 225.982C198.45 225.982 192.965 222.682 192.965 215.765C192.965 208.34 199.024 205.358 206.485 205.358ZM207.059 222.555C213.692 222.555 217.774 219.89 217.774 215.828V215.067C217.774 211.894 213.947 208.467 207.059 208.467C201.064 208.467 197.11 210.752 197.11 215.638C197.11 220.778 201.511 222.555 207.059 222.555Z" fill="#111111"/>
<path d="M195.61 215.638C195.61 212.723 196.824 210.455 198.993 208.979C201.079 207.561 203.908 206.967 207.06 206.967C208.58 206.967 209.982 207.125 211.254 207.411C209.9 207.062 208.317 206.857 206.485 206.857C202.919 206.857 199.878 207.576 197.773 209.015C195.75 210.398 194.465 212.529 194.465 215.765C194.465 218.773 195.63 220.869 197.515 222.261C199.46 223.698 202.314 224.481 205.784 224.481C208.427 224.481 210.527 224.096 212.196 223.452C210.661 223.851 208.933 224.055 207.06 224.055C204.17 224.055 201.361 223.6 199.227 222.307C196.981 220.946 195.61 218.729 195.61 215.638ZM198.61 215.638C198.61 217.687 199.439 218.928 200.781 219.741C202.234 220.622 204.4 221.055 207.06 221.055C210.201 221.055 212.569 220.42 214.1 219.448C215.579 218.509 216.273 217.274 216.273 215.828V215.066C216.273 214.106 215.683 212.87 214.148 211.812C212.63 210.764 210.264 209.967 207.06 209.967C204.216 209.967 202.071 210.515 200.681 211.461C199.374 212.35 198.61 213.666 198.61 215.638ZM219.21 213.741L219.065 213.565C219.2 214.054 219.273 214.556 219.273 215.066V215.828C219.273 216.16 219.252 216.483 219.21 216.799V223.594H220.037V204.723C220.037 201.449 219.242 198.577 217.42 196.536C215.627 194.527 212.626 193.087 207.697 193.087C204.026 193.087 200.921 193.572 198.783 194.276L198.739 194.576C201.411 193.9 204.087 193.577 207.187 193.577C210.889 193.577 213.982 194.411 216.133 196.531C218.287 198.655 219.21 201.788 219.21 205.738V213.741ZM223.037 226.594H216.21V224.697C213.721 226.455 210.304 227.481 205.784 227.481C201.92 227.481 198.364 226.616 195.733 224.674C193.042 222.686 191.465 219.673 191.465 215.765C191.465 211.576 193.209 208.503 196.08 206.539C198.87 204.631 202.59 203.857 206.485 203.857C210.549 203.857 213.811 204.764 216.21 206.274V205.738C216.21 202.2 215.38 200.003 214.026 198.668C212.669 197.33 210.5 196.577 207.187 196.577C203.513 196.577 200.545 197.061 197.383 198.09L195.085 198.838L196.069 192.104L196.868 191.782C199.464 190.735 203.306 190.087 207.697 190.087C213.227 190.087 217.146 191.724 219.658 194.538C222.141 197.32 223.037 201.016 223.037 204.723V226.594Z" fill="#111111"/>
<path d="M236.333 192.539V199.519C237.863 194.887 242.519 191.587 249.534 191.587C257.953 191.587 263.374 196.283 263.374 205.548V225.093H259.547V206.436C259.547 197.933 255.338 195.014 248.896 195.014C240.924 195.014 236.524 200.725 236.524 207.261V225.093H232.697V192.539H236.333Z" fill="#111111"/>
<path d="M235.023 207.262C235.023 204.614 235.681 202.052 236.978 199.864L234.833 199.52V194.039H234.197V223.594H235.023V207.262ZM261.874 205.548C261.874 201.209 260.611 198.151 258.567 196.171C256.515 194.183 253.473 193.087 249.534 193.087C245.271 193.087 242.103 194.377 240.06 196.349C242.344 194.564 245.332 193.514 248.896 193.514C252.314 193.514 255.429 194.286 257.679 196.457C259.938 198.637 261.047 201.959 261.047 206.437V223.594H261.874V205.548ZM264.874 226.594H258.047V206.437C258.047 202.411 257.052 200.02 255.596 198.615C254.131 197.201 251.92 196.514 248.896 196.514C245.291 196.514 242.606 197.793 240.816 199.71C239.011 201.644 238.023 204.325 238.023 207.262V226.594H231.197V191.039H237.833V194.325C240.501 191.673 244.54 190.087 249.534 190.087C254.014 190.087 257.892 191.34 260.654 194.016C263.425 196.7 264.874 200.622 264.874 205.548V226.594Z" fill="#111111"/>
<path d="M277.595 222.239C275.49 221.414 273.768 219.891 273.768 217.479C273.768 214.56 276.319 212.466 279.062 211.07C275.044 209.293 273.258 206.12 273.258 202.566C273.258 196.03 279.189 191.588 288.246 191.588C291.562 191.588 294.304 192.032 296.536 192.857C298.45 188.986 300.873 187.146 306.039 187.273L307.634 190.446C302.723 190.319 300.746 191.461 299.151 194.19C301.957 196.03 303.361 198.759 303.361 201.932C303.361 207.96 298.769 212.656 288.054 212.656C285.886 212.656 284.036 212.466 282.378 212.149C279.189 213.481 277.595 214.814 277.595 216.781C277.595 219.383 280.273 219.51 283.909 219.51H294.113C301.894 219.51 306.677 222.048 306.677 228.267C306.677 234.931 301.766 239.5 287.416 239.5C273.067 239.5 270.707 235.502 270.707 231.06C270.707 226.935 273.513 224.396 277.595 222.239ZM287.353 236.2C298.322 236.2 302.85 233.725 302.85 228.521C302.85 223.825 298.45 222.937 292.71 222.937H281.868C277.467 225.221 274.789 227.316 274.789 230.425C274.789 234.74 278.743 236.2 287.353 236.2ZM288.118 209.357C296.026 209.357 299.215 206.247 299.215 201.995C299.215 197.744 295.771 194.888 288.246 194.888C281.549 194.888 277.404 197.997 277.404 202.503C277.404 206.311 280.401 209.357 288.118 209.357Z" fill="#111111"/>
<path d="M301.351 228.521C301.351 227.59 301.136 226.959 300.83 226.507C300.521 226.049 300.04 225.658 299.322 225.339C297.82 224.67 295.568 224.437 292.71 224.437H282.242C280.229 225.499 278.73 226.459 277.729 227.441C276.718 228.435 276.289 229.372 276.289 230.425C276.289 231.267 276.479 231.858 276.782 232.305C277.09 232.758 277.599 233.187 278.443 233.557C280.2 234.326 283.066 234.7 287.353 234.7C292.784 234.7 296.362 234.076 298.537 232.974C299.594 232.438 300.272 231.812 300.695 231.128C301.118 230.444 301.351 229.599 301.351 228.521ZM297.715 201.995C297.715 200.334 297.073 199.031 295.699 198.081C294.249 197.078 291.853 196.388 288.245 196.388C285.109 196.388 282.734 197.118 281.187 198.226C279.679 199.304 278.903 200.767 278.903 202.503C278.903 203.966 279.454 205.209 280.745 206.142C282.104 207.122 284.424 207.856 288.118 207.856C291.91 207.856 294.32 207.105 295.745 206.061C297.1 205.067 297.715 203.702 297.715 201.995ZM305.113 188.771C303.198 188.822 301.872 189.21 300.861 189.839C299.883 190.448 299.072 191.364 298.309 192.714C299.121 191.514 300.115 190.541 301.514 189.888C302.573 189.393 303.795 189.115 305.229 189L305.113 188.771ZM304.351 228.521C304.351 230.045 304.016 231.461 303.247 232.705C302.479 233.948 301.339 234.916 299.894 235.649C297.062 237.085 292.89 237.7 287.353 237.7C283.029 237.7 279.613 237.344 277.24 236.305C276.02 235.77 275.003 235.025 274.301 233.991C273.594 232.951 273.289 231.74 273.289 230.425C273.289 228.368 274.2 226.703 275.627 225.302C275.775 225.157 275.929 225.013 276.089 224.872C273.544 226.594 272.207 228.484 272.207 231.06C272.207 232.045 272.339 232.899 272.67 233.642C272.992 234.363 273.537 235.061 274.5 235.689C276.503 236.996 280.308 238 287.416 238C294.483 238 298.948 236.865 301.607 235.127C304.147 233.466 305.177 231.166 305.177 228.268C305.177 225.611 304.194 223.92 302.494 222.813C300.683 221.634 297.888 221.01 294.113 221.01H283.909C282.156 221.01 280.324 220.992 278.935 220.551C278.203 220.318 277.46 219.931 276.907 219.253C276.338 218.555 276.095 217.702 276.095 216.781C276.095 215.963 276.289 215.226 276.643 214.564C276.591 214.617 276.538 214.667 276.489 214.721C275.688 215.589 275.269 216.496 275.269 217.479C275.269 219 276.306 220.122 278.143 220.842L280.714 221.85C280.867 221.768 281.021 221.686 281.177 221.605L281.502 221.437H292.71C295.591 221.437 298.41 221.648 300.543 222.598C301.642 223.087 302.621 223.799 303.316 224.828C304.015 225.863 304.351 227.105 304.351 228.521ZM301.86 201.932C301.86 199.257 300.706 197.003 298.329 195.444L297.191 194.698L296.017 194.264C293.992 193.515 291.434 193.088 288.245 193.088C283.945 193.088 280.537 194.144 278.246 195.833C275.99 197.496 274.758 199.805 274.758 202.566C274.758 205.528 276.195 208.162 279.668 209.698L281.943 210.704L282.217 210.591L282.66 210.676C284.221 210.975 285.977 211.156 288.055 211.156C293.218 211.156 296.674 210.022 298.807 208.369C300.891 206.754 301.86 204.53 301.86 201.932ZM300.715 201.995C300.715 204.54 299.735 206.856 297.519 208.48C295.373 210.053 292.234 210.856 288.118 210.856C284.096 210.856 281.059 210.068 278.989 208.574C276.853 207.032 275.903 204.848 275.903 202.503C275.903 199.733 277.201 197.388 279.44 195.786C281.64 194.212 284.685 193.388 288.245 193.388C292.162 193.388 295.253 194.125 297.405 195.613C299.635 197.154 300.715 199.405 300.715 201.995ZM304.86 201.932C304.86 205.361 303.535 208.5 300.645 210.74C297.802 212.943 293.605 214.156 288.055 214.156C285.992 214.156 284.191 213.989 282.558 213.704C281.239 214.282 280.362 214.811 279.815 215.322C279.27 215.833 279.095 216.279 279.095 216.781C279.095 217.161 279.186 217.3 279.232 217.357C279.295 217.435 279.45 217.567 279.843 217.691C280.701 217.964 282.027 218.01 283.909 218.01H294.113C298.119 218.01 301.605 218.655 304.131 220.3C306.768 222.017 308.177 224.705 308.177 228.268C308.177 232.033 306.751 235.348 303.249 237.638C299.865 239.85 294.699 241 287.416 241C280.175 241 275.626 240.005 272.861 238.202C271.441 237.276 270.499 236.14 269.93 234.863C269.37 233.607 269.207 232.296 269.207 231.06C269.207 226.994 271.509 224.303 274.616 222.25C273.269 221.164 272.269 219.609 272.269 217.479C272.269 215.544 273.124 213.944 274.284 212.687C274.825 212.1 275.445 211.575 276.101 211.105C273.154 208.987 271.758 205.919 271.758 202.566C271.758 198.792 273.492 195.611 276.466 193.419C279.404 191.253 283.49 190.088 288.245 190.088C291.121 190.088 293.637 190.41 295.809 191.041C296.713 189.491 297.806 188.207 299.275 187.292C300.983 186.229 303.039 185.765 305.564 185.767L306.076 185.773L306.976 185.795L310.099 192.01L307.595 191.945C305.232 191.884 303.782 192.139 302.783 192.605C302.171 192.891 301.667 193.287 301.197 193.854C303.624 195.932 304.86 198.756 304.86 201.932Z" fill="#111111"/>
<path d="M326.45 219.953L338.759 192.539H342.904L321.858 238.23H317.713L324.409 224.015L309.23 192.539H313.567L326.45 219.953Z" fill="#111111"/>
<path d="M314.52 191.039L326.419 216.36L337.788 191.039H345.247L322.818 239.729H315.348L322.748 224.021L306.842 191.039H314.52ZM326.071 224.007L320.077 236.729H320.898L340.562 194.039H339.729L326.481 223.547L312.615 194.039H311.619L326.071 224.007Z" fill="#111111"/>
<path d="M352.149 192.539V211.196C352.149 219.7 355.72 222.555 362.736 222.555C370.134 222.555 374.534 216.907 374.534 210.371V192.539H378.361V225.094H374.726V218.113C373.195 222.936 368.412 225.982 361.715 225.982C352.978 225.982 348.322 221.35 348.322 212.085V192.539H352.149Z" fill="#111111"/>
<path d="M350.648 194.039H349.822V212.085C349.822 216.484 350.927 219.52 352.816 221.461C354.7 223.395 357.6 224.482 361.715 224.482C365.744 224.482 368.856 223.317 370.903 221.415C368.768 223.06 366.015 224.056 362.735 224.056C359.07 224.056 355.934 223.316 353.749 221.123C351.569 218.934 350.648 215.611 350.648 211.196V194.039ZM353.648 211.196C353.648 215.285 354.515 217.641 355.874 219.006C357.229 220.366 359.386 221.056 362.735 221.056C369.173 221.056 373.034 216.218 373.034 210.371V191.039H379.861V226.594H373.226V223.354C370.533 226.01 366.487 227.482 361.715 227.482C357.093 227.482 353.297 226.253 350.668 223.555C348.046 220.863 346.822 216.951 346.822 212.085V191.039H353.648V211.196ZM376.034 210.371C376.034 213.042 375.358 215.607 374.085 217.781L376.226 218.113V223.594H376.861V194.039H376.034V210.371Z" fill="#111111"/>
<path d="M393.987 177.499V225.093H390.16V177.499H393.987Z" fill="#111111"/>
<path d="M395.486 175.999V226.594H388.66V175.999H395.486ZM391.66 223.594H392.486V178.999H391.66V223.594Z" fill="#111111"/>
<path d="M407.89 215.384V225.093H403.234V215.384H407.89Z" fill="#111111"/>
<path d="M409.39 213.884V226.593H401.734V213.884H409.39ZM404.734 223.593H406.39V216.884H404.734V223.593Z" fill="#111111"/>
</svg>
