<svg width="10" height="161" viewBox="0 0 10 161" fill="none" xmlns="http://www.w3.org/2000/svg">
<path d="M9.18249 2.92824C9.18249 4.24866 8.30891 5.31693 7.23187 5.31693C6.15483 5.31693 5.28125 4.24595 5.28125 2.92824C5.28125 1.61053 6.15483 0.539551 7.23187 0.539551C8.30891 0.539551 9.18249 1.61053 9.18249 2.92824Z" fill="#303030"/>
<path d="M7.23186 5.86192C5.91376 5.86192 4.83893 4.54692 4.83893 2.93096C4.83893 1.315 5.91155 0 7.23186 0C8.55218 0 9.6248 1.315 9.6248 2.93096C9.6248 4.54692 8.55218 5.86192 7.23186 5.86192ZM7.23186 1.08182C6.40031 1.08182 5.72356 1.9115 5.72356 2.92825C5.72356 3.945 6.40031 4.77467 7.23186 4.77467C8.06342 4.77467 8.74017 3.945 8.74017 2.92825C8.74017 1.9115 8.06342 1.08182 7.23186 1.08182Z" fill="#281000"/>
<path d="M6.85813 2.9474C6.85813 3.64964 6.3937 4.21902 5.8209 4.21902H1.47956C0.906755 4.21902 0.442322 3.64964 0.442322 2.9474C0.442322 2.24516 0.906755 1.67578 1.47956 1.67578H5.8209C6.3937 1.67578 6.85813 2.24516 6.85813 2.9474Z" fill="#303030"/>
<path d="M5.82089 4.76107H1.47955C0.663476 4.76107 0 3.94767 0 2.94719C0 1.9467 0.663476 1.1333 1.47955 1.1333H5.82089C6.63697 1.1333 7.30044 1.9467 7.30044 2.94719C7.30044 3.94767 6.63697 4.76107 5.82089 4.76107ZM1.47955 2.21784C1.15002 2.21784 0.884634 2.54591 0.884634 2.94719C0.884634 3.34847 1.15224 3.67654 1.47955 3.67654H5.82089C6.14821 3.67654 6.41581 3.34847 6.41581 2.94719C6.41581 2.54591 6.14821 2.21784 5.82089 2.21784H1.47955Z" fill="#281000"/>
<path d="M9.18249 22.2276C9.18249 23.548 8.30891 24.6163 7.23187 24.6163C6.15483 24.6163 5.28125 23.5453 5.28125 22.2276C5.28125 20.9098 6.15483 19.8389 7.23187 19.8389C8.30891 19.8389 9.18249 20.9098 9.18249 22.2276Z" fill="#303030"/>
<path d="M7.23186 25.1612C5.91376 25.1612 4.83893 23.8462 4.83893 22.2303C4.83893 20.6143 5.91155 19.2993 7.23186 19.2993C8.55218 19.2993 9.6248 20.6143 9.6248 22.2303C9.6248 23.8462 8.55218 25.1612 7.23186 25.1612ZM7.23186 20.3811C6.40031 20.3811 5.72356 21.2108 5.72356 22.2276C5.72356 23.2443 6.40031 24.074 7.23186 24.074C8.06342 24.074 8.74017 23.2443 8.74017 22.2276C8.74017 21.2108 8.06342 20.3811 7.23186 20.3811Z" fill="#281000"/>
<path d="M6.85813 22.2467C6.85813 22.949 6.3937 23.5183 5.8209 23.5183H1.47956C0.906755 23.5183 0.442322 22.949 0.442322 22.2467C0.442322 21.5445 0.906755 20.9751 1.47956 20.9751H5.8209C6.3937 20.9751 6.85813 21.5445 6.85813 22.2467Z" fill="#303030"/>
<path d="M5.82089 24.0604H1.47955C0.663476 24.0604 0 23.247 0 22.2465C0 21.246 0.663476 20.4326 1.47955 20.4326H5.82089C6.63697 20.4326 7.30044 21.246 7.30044 22.2465C7.30044 23.247 6.63697 24.0604 5.82089 24.0604ZM1.47955 21.5172C1.15002 21.5172 0.884634 21.8452 0.884634 22.2465C0.884634 22.6478 1.15224 22.9759 1.47955 22.9759H5.82089C6.14821 22.9759 6.41581 22.6478 6.41581 22.2465C6.41581 21.8452 6.14821 21.5172 5.82089 21.5172H1.47955Z" fill="#281000"/>
<path d="M9.18249 41.5298C9.18249 42.8502 8.30891 43.9185 7.23187 43.9185C6.15483 43.9185 5.28125 42.8475 5.28125 41.5298C5.28125 40.2121 6.15483 39.1411 7.23187 39.1411C8.30891 39.1411 9.18249 40.2121 9.18249 41.5298Z" fill="#303030"/>
<path d="M7.23186 44.4606C5.91376 44.4606 4.83893 43.1456 4.83893 41.5296C4.83893 39.9136 5.91155 38.5986 7.23186 38.5986C8.55218 38.5986 9.6248 39.9136 9.6248 41.5296C9.6248 43.1456 8.55218 44.4606 7.23186 44.4606ZM7.23186 39.6805C6.40031 39.6805 5.72356 40.5101 5.72356 41.5269C5.72356 42.5436 6.40031 43.3733 7.23186 43.3733C8.06342 43.3733 8.74017 42.5436 8.74017 41.5269C8.74017 40.5101 8.06342 39.6805 7.23186 39.6805Z" fill="#281000"/>
<path d="M6.85813 41.546C6.85813 42.2483 6.3937 42.8177 5.8209 42.8177H1.47956C0.906755 42.8177 0.442322 42.2483 0.442322 41.546C0.442322 40.8438 0.906755 40.2744 1.47956 40.2744H5.8209C6.3937 40.2744 6.85813 40.8438 6.85813 41.546Z" fill="#303030"/>
<path d="M5.82089 43.3597H1.47955C0.663476 43.3597 0 42.5463 0 41.5458C0 40.5453 0.663476 39.7319 1.47955 39.7319H5.82089C6.63697 39.7319 7.30044 40.5453 7.30044 41.5458C7.30044 42.5463 6.63697 43.3597 5.82089 43.3597ZM1.47955 40.8165C1.15002 40.8165 0.884634 41.1445 0.884634 41.5458C0.884634 41.9471 1.15224 42.2752 1.47955 42.2752H5.82089C6.14821 42.2752 6.41581 41.9471 6.41581 41.5458C6.41581 41.1445 6.14821 40.8165 5.82089 40.8165H1.47955Z" fill="#281000"/>
<path d="M9.18249 60.8291C9.18249 62.1495 8.30891 63.2178 7.23187 63.2178C6.15483 63.2178 5.28125 62.1468 5.28125 60.8291C5.28125 59.5114 6.15483 58.4404 7.23187 58.4404C8.30891 58.4404 9.18249 59.5114 9.18249 60.8291Z" fill="#303030"/>
<path d="M7.23186 63.7599C5.91376 63.7599 4.83893 62.4449 4.83893 60.8289C4.83893 59.2129 5.91155 57.8979 7.23186 57.8979C8.55218 57.8979 9.6248 59.2129 9.6248 60.8289C9.6248 62.4449 8.55218 63.7599 7.23186 63.7599ZM7.23186 58.9798C6.40031 58.9798 5.72356 59.8094 5.72356 60.8262C5.72356 61.843 6.40031 62.6726 7.23186 62.6726C8.06342 62.6726 8.74017 61.843 8.74017 60.8262C8.74017 59.8094 8.06342 58.9798 7.23186 58.9798Z" fill="#281000"/>
<path d="M6.85813 60.8453C6.85813 61.5476 6.3937 62.117 5.8209 62.117H1.47956C0.906755 62.117 0.442322 61.5476 0.442322 60.8453C0.442322 60.1431 0.906755 59.5737 1.47956 59.5737H5.8209C6.3937 59.5737 6.85813 60.1431 6.85813 60.8453Z" fill="#303030"/>
<path d="M5.82089 62.659H1.47955C0.663476 62.659 0 61.8456 0 60.8451C0 59.8447 0.663476 59.0312 1.47955 59.0312H5.82089C6.63697 59.0312 7.30044 59.8447 7.30044 60.8451C7.30044 61.8456 6.63697 62.659 5.82089 62.659ZM1.47955 60.1158C1.15002 60.1158 0.884634 60.4439 0.884634 60.8451C0.884634 61.2464 1.15224 61.5745 1.47955 61.5745H5.82089C6.14821 61.5745 6.41581 61.2464 6.41581 60.8451C6.41581 60.4439 6.14821 60.1158 5.82089 60.1158H1.47955Z" fill="#281000"/>
<path d="M9.18249 80.1284C9.18249 81.4489 8.30891 82.5171 7.23187 82.5171C6.15483 82.5171 5.28125 81.4461 5.28125 80.1284C5.28125 78.8107 6.15483 77.7397 7.23187 77.7397C8.30891 77.7397 9.18249 78.8107 9.18249 80.1284Z" fill="#303030"/>
<path d="M7.23186 83.0592C5.91376 83.0592 4.83893 81.7442 4.83893 80.1282C4.83893 78.5123 5.91155 77.1973 7.23186 77.1973C8.55218 77.1973 9.6248 78.5123 9.6248 80.1282C9.6248 81.7442 8.55218 83.0592 7.23186 83.0592ZM7.23186 78.2791C6.40031 78.2791 5.72356 79.1088 5.72356 80.1255C5.72356 81.1423 6.40031 81.9719 7.23186 81.9719C8.06342 81.9719 8.74017 81.1423 8.74017 80.1255C8.74017 79.1088 8.06342 78.2791 7.23186 78.2791Z" fill="#281000"/>
<path d="M6.85813 80.1447C6.85813 80.8469 6.3937 81.4163 5.8209 81.4163H1.47956C0.906755 81.4163 0.442322 80.8469 0.442322 80.1447C0.442322 79.4424 0.906755 78.873 1.47956 78.873H5.8209C6.3937 78.873 6.85813 79.4424 6.85813 80.1447Z" fill="#303030"/>
<path d="M5.82089 81.9583H1.47955C0.663476 81.9583 0 81.1449 0 80.1445C0 79.144 0.663476 78.3306 1.47955 78.3306H5.82089C6.63697 78.3306 7.30044 79.144 7.30044 80.1445C7.30044 81.1449 6.63697 81.9583 5.82089 81.9583ZM1.47955 79.4151C1.15002 79.4151 0.884634 79.7432 0.884634 80.1445C0.884634 80.5457 1.15224 80.8738 1.47955 80.8738H5.82089C6.14821 80.8738 6.41581 80.5457 6.41581 80.1445C6.41581 79.7432 6.14821 79.4151 5.82089 79.4151H1.47955Z" fill="#281000"/>
<path d="M9.18249 99.4278C9.18249 100.748 8.30891 101.816 7.23187 101.816C6.15483 101.816 5.28125 100.745 5.28125 99.4278C5.28125 98.11 6.15483 97.0391 7.23187 97.0391C8.30891 97.0391 9.18249 98.11 9.18249 99.4278Z" fill="#303030"/>
<path d="M7.23186 102.358C5.91376 102.358 4.83893 101.043 4.83893 99.4275C4.83893 97.8116 5.91155 96.4966 7.23186 96.4966C8.55218 96.4966 9.6248 97.8116 9.6248 99.4275C9.6248 101.043 8.55218 102.358 7.23186 102.358ZM7.23186 97.5784C6.40031 97.5784 5.72356 98.4081 5.72356 99.4248C5.72356 100.442 6.40031 101.271 7.23186 101.271C8.06342 101.271 8.74017 100.442 8.74017 99.4248C8.74017 98.4081 8.06342 97.5784 7.23186 97.5784Z" fill="#281000"/>
<path d="M6.85813 99.444C6.85813 100.146 6.3937 100.716 5.8209 100.716H1.47956C0.906755 100.716 0.442322 100.146 0.442322 99.444C0.442322 98.7417 0.906755 98.1724 1.47956 98.1724H5.8209C6.3937 98.1724 6.85813 98.7417 6.85813 99.444Z" fill="#303030"/>
<path d="M5.82089 101.258H1.47955C0.663476 101.258 0 100.444 0 99.4438C0 98.4433 0.663476 97.6299 1.47955 97.6299H5.82089C6.63697 97.6299 7.30044 98.4433 7.30044 99.4438C7.30044 100.444 6.63697 101.258 5.82089 101.258ZM1.47955 98.7144C1.15002 98.7144 0.884634 99.0425 0.884634 99.4438C0.884634 99.845 1.15224 100.173 1.47955 100.173H5.82089C6.14821 100.173 6.41581 99.845 6.41581 99.4438C6.41581 99.0425 6.14821 98.7144 5.82089 98.7144H1.47955Z" fill="#281000"/>
<path d="M9.18249 118.727C9.18249 120.047 8.30891 121.116 7.23187 121.116C6.15483 121.116 5.28125 120.045 5.28125 118.727C5.28125 117.409 6.15483 116.338 7.23187 116.338C8.30891 116.338 9.18249 117.409 9.18249 118.727Z" fill="#303030"/>
<path d="M7.23186 121.658C5.91376 121.658 4.83893 120.343 4.83893 118.727C4.83893 117.111 5.91155 115.796 7.23186 115.796C8.55218 115.796 9.6248 117.111 9.6248 118.727C9.6248 120.343 8.55218 121.658 7.23186 121.658ZM7.23186 116.878C6.40031 116.878 5.72356 117.707 5.72356 118.724C5.72356 119.741 6.40031 120.571 7.23186 120.571C8.06342 120.571 8.74017 119.741 8.74017 118.724C8.74017 117.707 8.06342 116.878 7.23186 116.878Z" fill="#281000"/>
<path d="M6.85813 118.743C6.85813 119.446 6.3937 120.015 5.8209 120.015H1.47956C0.906755 120.015 0.442322 119.446 0.442322 118.743C0.442322 118.041 0.906755 117.472 1.47956 117.472H5.8209C6.3937 117.472 6.85813 118.041 6.85813 118.743Z" fill="#303030"/>
<path d="M5.82089 120.557H1.47955C0.663476 120.557 0 119.744 0 118.743C0 117.743 0.663476 116.929 1.47955 116.929H5.82089C6.63697 116.929 7.30044 117.743 7.30044 118.743C7.30044 119.744 6.63697 120.557 5.82089 120.557ZM1.47955 118.014C1.15002 118.014 0.884634 118.342 0.884634 118.743C0.884634 119.144 1.15224 119.472 1.47955 119.472H5.82089C6.14821 119.472 6.41581 119.144 6.41581 118.743C6.41581 118.342 6.14821 118.014 5.82089 118.014H1.47955Z" fill="#281000"/>
<path d="M9.18133 138.043C9.18528 136.724 8.31615 135.651 7.24008 135.646C6.16401 135.641 5.28849 136.707 5.28455 138.026C5.2806 139.345 6.14973 140.418 7.2258 140.423C8.30187 140.428 9.17739 139.363 9.18133 138.043Z" fill="#303030"/>
<path d="M7.23186 140.957C5.91376 140.957 4.83893 139.642 4.83893 138.026C4.83893 136.41 5.91155 135.095 7.23186 135.095C8.55218 135.095 9.6248 136.41 9.6248 138.026C9.6248 139.642 8.55218 140.957 7.23186 140.957ZM7.23186 136.177C6.40031 136.177 5.72356 137.007 5.72356 138.023C5.72356 139.04 6.40031 139.87 7.23186 139.87C8.06342 139.87 8.74017 139.04 8.74017 138.023C8.74017 137.007 8.06342 136.177 7.23186 136.177Z" fill="#281000"/>
<path d="M6.85813 138.043C6.85813 138.745 6.3937 139.314 5.8209 139.314H1.47956C0.906755 139.314 0.442322 138.745 0.442322 138.043C0.442322 137.34 0.906755 136.771 1.47956 136.771H5.8209C6.3937 136.771 6.85813 137.34 6.85813 138.043Z" fill="#303030"/>
<path d="M5.82089 139.856H1.47955C0.663476 139.856 0 139.043 0 138.042C0 137.042 0.663476 136.229 1.47955 136.229H5.82089C6.63697 136.229 7.30044 137.042 7.30044 138.042C7.30044 139.043 6.63697 139.856 5.82089 139.856ZM1.47955 137.313C1.15002 137.313 0.884634 137.641 0.884634 138.042C0.884634 138.444 1.15224 138.772 1.47955 138.772H5.82089C6.14821 138.772 6.41581 138.444 6.41581 138.042C6.41581 137.641 6.14821 137.313 5.82089 137.313H1.47955Z" fill="#281000"/>
<path d="M9.18249 157.326C9.18249 158.646 8.30891 159.714 7.23187 159.714C6.15483 159.714 5.28125 158.643 5.28125 157.326C5.28125 156.008 6.15483 154.937 7.23187 154.937C8.30891 154.937 9.18249 156.008 9.18249 157.326Z" fill="#303030"/>
<path d="M7.23186 160.256C5.91376 160.256 4.83893 158.941 4.83893 157.325C4.83893 155.71 5.91155 154.395 7.23186 154.395C8.55218 154.395 9.6248 155.71 9.6248 157.325C9.6248 158.941 8.55218 160.256 7.23186 160.256ZM7.23186 155.476C6.40031 155.476 5.72356 156.306 5.72356 157.323C5.72356 158.34 6.40031 159.169 7.23186 159.169C8.06342 159.169 8.74017 158.34 8.74017 157.323C8.74017 156.306 8.06342 155.476 7.23186 155.476Z" fill="#281000"/>
<path d="M6.85813 157.342C6.85813 158.044 6.3937 158.614 5.8209 158.614H1.47956C0.906755 158.614 0.442322 158.044 0.442322 157.342C0.442322 156.64 0.906755 156.07 1.47956 156.07H5.8209C6.3937 156.07 6.85813 156.64 6.85813 157.342Z" fill="#303030"/>
<path d="M5.82089 159.156H1.47955C0.663476 159.156 0 158.342 0 157.342C0 156.341 0.663476 155.528 1.47955 155.528H5.82089C6.63697 155.528 7.30044 156.341 7.30044 157.342C7.30044 158.342 6.63697 159.156 5.82089 159.156ZM1.47955 156.612C1.15002 156.612 0.884634 156.94 0.884634 157.342C0.884634 157.743 1.15224 158.071 1.47955 158.071H5.82089C6.14821 158.071 6.41581 157.743 6.41581 157.342C6.41581 156.94 6.14821 156.612 5.82089 156.612H1.47955Z" fill="#281000"/>
</svg>
